<svg xmlns="http://www.w3.org/2000/svg" xmlns:xlink="http://www.w3.org/1999/xlink" width="45" zoomAndPan="magnify" viewBox="0 0 33.75 43.499998" height="58" preserveAspectRatio="xMidYMid meet" version="1.0"><defs><clipPath id="77150bc3de"><path d="M 9 11.066406 L 25 11.066406 L 25 31.828125 L 9 31.828125 Z M 9 11.066406 " clip-rule="nonzero"/></clipPath><clipPath id="03383f0b6f"><path d="M 8.785156 11.066406 L 25.097656 11.066406 L 25.097656 31.828125 L 8.785156 31.828125 Z M 8.785156 11.066406 " clip-rule="nonzero"/></clipPath><clipPath id="0d9c624231"><path d="M 13 27 L 21 27 L 21 31.828125 L 13 31.828125 Z M 13 27 " clip-rule="nonzero"/></clipPath><clipPath id="b83d75cd52"><path d="M 13 26 L 21 26 L 21 31.828125 L 13 31.828125 Z M 13 26 " clip-rule="nonzero"/></clipPath><clipPath id="56f2caa808"><path d="M 0.613281 0.664062 L 33.238281 0.664062 L 33.238281 42.1875 L 0.613281 42.1875 Z M 0.613281 0.664062 " clip-rule="nonzero"/></clipPath><clipPath id="66c89359ad"><path d="M 9 32 L 25 32 L 25 42.1875 L 9 42.1875 Z M 9 32 " clip-rule="nonzero"/></clipPath></defs><g clip-path="url(#77150bc3de)"><path fill="#fffbe0" d="M 24.917969 19.316406 C 24.917969 14.761719 21.070312 11.109375 16.445312 11.429688 C 12.476562 11.707031 9.296875 14.976562 9.117188 18.949219 C 8.988281 21.859375 10.429688 24.441406 12.667969 25.917969 C 13.074219 26.1875 13.316406 26.648438 13.316406 27.140625 L 13.316406 31.257812 C 13.316406 31.480469 13.5 31.660156 13.722656 31.660156 L 20.308594 31.660156 C 20.53125 31.660156 20.710938 31.480469 20.710938 31.257812 L 20.710938 27.035156 C 20.710938 26.605469 20.925781 26.199219 21.289062 25.964844 C 23.472656 24.558594 24.917969 22.105469 24.917969 19.316406 Z M 24.917969 19.316406 " fill-opacity="1" fill-rule="nonzero"/></g><g clip-path="url(#03383f0b6f)"><path fill="#000000" d="M 20.308594 31.863281 L 13.722656 31.863281 C 13.386719 31.863281 13.113281 31.589844 13.113281 31.257812 L 13.113281 27.140625 C 13.113281 26.710938 12.90625 26.316406 12.554688 26.085938 C 10.144531 24.496094 8.785156 21.824219 8.914062 18.941406 C 9.101562 14.832031 12.332031 11.515625 16.433594 11.230469 C 18.710938 11.070312 20.882812 11.835938 22.542969 13.386719 C 24.183594 14.914062 25.121094 17.074219 25.121094 19.316406 C 25.121094 22.082031 23.730469 24.632812 21.398438 26.132812 C 21.097656 26.328125 20.914062 26.667969 20.914062 27.035156 L 20.914062 31.257812 C 20.914062 31.589844 20.640625 31.863281 20.308594 31.863281 Z M 17.019531 11.613281 C 16.835938 11.613281 16.648438 11.621094 16.460938 11.632812 C 12.566406 11.90625 9.496094 15.054688 9.320312 18.957031 C 9.195312 21.699219 10.488281 24.238281 12.777344 25.746094 C 13.242188 26.054688 13.519531 26.574219 13.519531 27.140625 L 13.519531 31.257812 C 13.519531 31.367188 13.609375 31.460938 13.722656 31.460938 L 20.308594 31.460938 C 20.417969 31.460938 20.507812 31.367188 20.507812 31.257812 L 20.507812 27.035156 C 20.507812 26.527344 20.761719 26.0625 21.179688 25.792969 C 23.394531 24.367188 24.71875 21.945312 24.71875 19.316406 C 24.71875 17.1875 23.824219 15.132812 22.265625 13.683594 C 20.824219 12.335938 18.980469 11.613281 17.019531 11.613281 Z M 17.019531 11.613281 " fill-opacity="1" fill-rule="nonzero"/></g><g clip-path="url(#0d9c624231)"><path fill="#ffd83f" d="M 20.710938 27 L 13.316406 27 L 13.316406 31.257812 C 13.316406 31.480469 13.5 31.660156 13.722656 31.660156 L 20.308594 31.660156 C 20.53125 31.660156 20.710938 31.480469 20.710938 31.257812 Z M 20.710938 27 " fill-opacity="1" fill-rule="nonzero"/></g><g clip-path="url(#b83d75cd52)"><path fill="#000000" d="M 20.308594 31.863281 L 13.722656 31.863281 C 13.386719 31.863281 13.113281 31.589844 13.113281 31.257812 L 13.113281 27 C 13.113281 26.886719 13.207031 26.796875 13.316406 26.796875 L 20.710938 26.796875 C 20.824219 26.796875 20.914062 26.886719 20.914062 27 L 20.914062 31.257812 C 20.914062 31.589844 20.640625 31.863281 20.308594 31.863281 Z M 13.519531 27.199219 L 13.519531 31.257812 C 13.519531 31.367188 13.609375 31.460938 13.722656 31.460938 L 20.308594 31.460938 C 20.417969 31.460938 20.507812 31.367188 20.507812 31.257812 L 20.507812 27.199219 Z M 13.519531 27.199219 " fill-opacity="1" fill-rule="nonzero"/></g><path fill="#000000" d="M 20.320312 24.609375 C 20.253906 24.609375 20.1875 24.574219 20.148438 24.515625 C 20.089844 24.421875 20.113281 24.296875 20.207031 24.234375 C 21.882812 23.148438 22.882812 21.308594 22.882812 19.316406 C 22.882812 19.203125 22.972656 19.113281 23.082031 19.113281 C 23.195312 19.113281 23.285156 19.203125 23.285156 19.316406 C 23.285156 21.445312 22.21875 23.410156 20.429688 24.574219 C 20.394531 24.597656 20.355469 24.609375 20.320312 24.609375 Z M 20.320312 24.609375 " fill-opacity="1" fill-rule="nonzero"/><path fill="#000000" d="M 10.953125 19.234375 C 10.949219 19.234375 10.945312 19.234375 10.941406 19.234375 C 10.832031 19.230469 10.746094 19.132812 10.75 19.023438 C 10.898438 15.726562 13.710938 13.042969 17.015625 13.042969 C 17.128906 13.042969 17.21875 13.136719 17.21875 13.246094 C 17.21875 13.359375 17.128906 13.449219 17.015625 13.449219 C 13.921875 13.449219 11.292969 15.957031 11.152344 19.042969 C 11.148438 19.148438 11.058594 19.234375 10.953125 19.234375 Z M 10.953125 19.234375 " fill-opacity="1" fill-rule="nonzero"/><path fill="#ffffff" d="M 12.339844 29.179688 L 21.6875 28.15625 " fill-opacity="1" fill-rule="nonzero"/><path fill="#000000" d="M 12.339844 29.378906 C 12.238281 29.378906 12.148438 29.304688 12.140625 29.199219 C 12.125 29.089844 12.207031 28.988281 12.316406 28.976562 L 21.667969 27.957031 C 21.777344 27.941406 21.878906 28.023438 21.890625 28.132812 C 21.902344 28.246094 21.820312 28.347656 21.710938 28.359375 L 12.363281 29.378906 C 12.355469 29.378906 12.347656 29.378906 12.339844 29.378906 Z M 12.339844 29.378906 " fill-opacity="1" fill-rule="nonzero"/><path fill="#ffffff" d="M 12.339844 30.726562 L 21.6875 29.703125 " fill-opacity="1" fill-rule="nonzero"/><path fill="#000000" d="M 12.339844 30.929688 C 12.238281 30.929688 12.148438 30.851562 12.140625 30.746094 C 12.125 30.636719 12.207031 30.535156 12.316406 30.523438 L 21.667969 29.503906 C 21.777344 29.488281 21.878906 29.570312 21.890625 29.683594 C 21.902344 29.792969 21.820312 29.894531 21.710938 29.90625 L 12.363281 30.925781 C 12.355469 30.925781 12.347656 30.929688 12.339844 30.929688 Z M 12.339844 30.929688 " fill-opacity="1" fill-rule="nonzero"/><path fill="#fffbe0" d="M 32.890625 17.164062 C 32.890625 8.054688 25.1875 0.746094 15.941406 1.390625 C 8 1.945312 1.636719 8.480469 1.277344 16.429688 C 1.015625 22.25 3.902344 27.414062 8.378906 30.371094 C 9.199219 30.910156 9.679688 31.835938 9.679688 32.820312 L 9.679688 41.050781 C 9.679688 41.5 10.042969 41.863281 10.488281 41.863281 L 23.664062 41.863281 C 24.109375 41.863281 24.472656 41.5 24.472656 41.050781 L 24.472656 32.609375 C 24.472656 31.746094 24.902344 30.933594 25.632812 30.464844 C 29.996094 27.648438 32.890625 22.746094 32.890625 17.164062 Z M 32.890625 17.164062 " fill-opacity="1" fill-rule="nonzero"/><g clip-path="url(#56f2caa808)"><path fill="#000000" d="M 23.664062 42.269531 L 10.488281 42.269531 C 9.820312 42.269531 9.273438 41.722656 9.273438 41.050781 L 9.273438 32.820312 C 9.273438 31.960938 8.855469 31.171875 8.152344 30.707031 C 3.335938 27.527344 0.613281 22.183594 0.875 16.414062 C 1.246094 8.191406 7.710938 1.558594 15.914062 0.988281 C 20.472656 0.667969 24.8125 2.199219 28.136719 5.300781 C 31.414062 8.359375 33.296875 12.683594 33.296875 17.164062 C 33.296875 22.699219 30.511719 27.800781 25.851562 30.804688 C 25.242188 31.195312 24.878906 31.871094 24.878906 32.609375 L 24.878906 41.050781 C 24.878906 41.722656 24.332031 42.269531 23.664062 42.269531 Z M 17.089844 1.753906 C 16.71875 1.753906 16.34375 1.769531 15.96875 1.792969 C 8.179688 2.339844 2.035156 8.640625 1.683594 16.449219 C 1.4375 21.933594 4.023438 27.007812 8.601562 30.03125 C 9.53125 30.644531 10.085938 31.6875 10.085938 32.820312 L 10.085938 41.050781 C 10.085938 41.277344 10.265625 41.457031 10.488281 41.457031 L 23.664062 41.457031 C 23.886719 41.457031 24.066406 41.277344 24.066406 41.050781 L 24.066406 32.609375 C 24.066406 31.59375 24.570312 30.664062 25.410156 30.125 C 29.839844 27.269531 32.484375 22.425781 32.484375 17.164062 C 32.484375 12.90625 30.699219 8.800781 27.582031 5.894531 C 24.699219 3.203125 21.007812 1.753906 17.089844 1.753906 Z M 17.089844 1.753906 " fill-opacity="1" fill-rule="nonzero"/></g><path fill="#ffd83f" d="M 24.472656 32.535156 L 9.679688 32.535156 L 9.679688 41.050781 C 9.679688 41.5 10.042969 41.863281 10.488281 41.863281 L 23.664062 41.863281 C 24.109375 41.863281 24.472656 41.5 24.472656 41.050781 Z M 24.472656 32.535156 " fill-opacity="1" fill-rule="nonzero"/><g clip-path="url(#66c89359ad)"><path fill="#000000" d="M 23.664062 42.269531 L 10.488281 42.269531 C 9.820312 42.269531 9.273438 41.722656 9.273438 41.050781 L 9.273438 32.535156 C 9.273438 32.3125 9.457031 32.128906 9.679688 32.128906 L 24.472656 32.128906 C 24.695312 32.128906 24.878906 32.3125 24.878906 32.535156 L 24.878906 41.050781 C 24.878906 41.722656 24.332031 42.269531 23.664062 42.269531 Z M 10.085938 32.941406 L 10.085938 41.050781 C 10.085938 41.277344 10.265625 41.457031 10.488281 41.457031 L 23.664062 41.457031 C 23.886719 41.457031 24.066406 41.277344 24.066406 41.050781 L 24.066406 32.941406 Z M 10.085938 32.941406 " fill-opacity="1" fill-rule="nonzero"/></g><path fill="#000000" d="M 23.6875 27.753906 C 23.554688 27.753906 23.425781 27.6875 23.347656 27.566406 C 23.226562 27.378906 23.277344 27.128906 23.464844 27.007812 C 26.8125 24.828125 28.8125 21.148438 28.8125 17.164062 C 28.8125 16.941406 28.996094 16.757812 29.21875 16.757812 C 29.441406 16.757812 29.625 16.941406 29.625 17.164062 C 29.625 21.425781 27.488281 25.359375 23.910156 27.6875 C 23.839844 27.730469 23.761719 27.753906 23.6875 27.753906 Z M 23.6875 27.753906 " fill-opacity="1" fill-rule="nonzero"/><path fill="#000000" d="M 4.949219 17.003906 C 4.941406 17.003906 4.933594 17.003906 4.929688 17 C 4.707031 16.992188 4.53125 16.800781 4.542969 16.578125 C 4.839844 9.984375 10.464844 4.617188 17.078125 4.617188 C 17.304688 4.617188 17.484375 4.800781 17.484375 5.023438 C 17.484375 5.246094 17.304688 5.429688 17.078125 5.429688 C 10.890625 5.429688 5.632812 10.445312 5.351562 16.617188 C 5.34375 16.832031 5.164062 17.003906 4.949219 17.003906 Z M 4.949219 17.003906 " fill-opacity="1" fill-rule="nonzero"/><path fill="#ffffff" d="M 7.726562 36.894531 L 26.425781 34.851562 " fill-opacity="1" fill-rule="nonzero"/><path fill="#000000" d="M 7.722656 37.300781 C 7.519531 37.300781 7.34375 37.144531 7.324219 36.9375 C 7.296875 36.714844 7.457031 36.515625 7.679688 36.492188 L 26.382812 34.449219 C 26.601562 34.421875 26.804688 34.585938 26.832031 34.808594 C 26.855469 35.03125 26.695312 35.230469 26.472656 35.253906 L 7.769531 37.296875 C 7.753906 37.300781 7.738281 37.300781 7.722656 37.300781 Z M 7.722656 37.300781 " fill-opacity="1" fill-rule="nonzero"/><path fill="#ffffff" d="M 7.726562 39.988281 L 26.425781 37.945312 " fill-opacity="1" fill-rule="nonzero"/><path fill="#000000" d="M 7.722656 40.394531 C 7.519531 40.394531 7.34375 40.242188 7.324219 40.035156 C 7.296875 39.8125 7.457031 39.613281 7.679688 39.585938 L 26.382812 37.542969 C 26.601562 37.519531 26.804688 37.679688 26.832031 37.902344 C 26.855469 38.125 26.695312 38.324219 26.472656 38.347656 L 7.769531 40.394531 C 7.753906 40.394531 7.738281 40.394531 7.722656 40.394531 Z M 7.722656 40.394531 " fill-opacity="1" fill-rule="nonzero"/></svg>