<svg xmlns="http://www.w3.org/2000/svg" xmlns:xlink="http://www.w3.org/1999/xlink" width="187" zoomAndPan="magnify" viewBox="0 0 140.25 128.249994" height="171" preserveAspectRatio="xMidYMid meet" version="1.0"><defs><clipPath id="b02421b6d5"><path d="M 0.480469 0.453125 L 138.671875 0.453125 L 138.671875 127 L 0.480469 127 Z M 0.480469 0.453125 " clip-rule="nonzero"/></clipPath><clipPath id="36842e45c0"><path d="M 137.011719 126.914062 L 2.136719 126.914062 C 1.285156 126.914062 0.585938 126.210938 0.585938 125.359375 L 0.585938 2.113281 C 0.585938 1.261719 1.285156 0.558594 2.136719 0.558594 L 136.988281 0.558594 C 137.839844 0.558594 138.542969 1.261719 138.542969 2.113281 L 138.542969 125.339844 C 138.5625 126.210938 137.863281 126.914062 137.011719 126.914062 Z M 137.011719 126.914062 " clip-rule="nonzero"/></clipPath><clipPath id="ecf1387c4c"><path d="M 0.0546875 0.0273438 L 139.097656 0.0273438 L 139.097656 127.445312 L 0.0546875 127.445312 Z M 0.0546875 0.0273438 " clip-rule="nonzero"/></clipPath><clipPath id="74cf21e3c3"><path d="M 137.011719 1.027344 C 137.605469 1.027344 138.097656 1.515625 138.097656 2.113281 L 138.097656 125.359375 C 138.097656 125.957031 137.605469 126.445312 137.011719 126.445312 L 2.136719 126.445312 C 1.542969 126.445312 1.054688 125.957031 1.054688 125.359375 L 1.054688 2.113281 C 1.054688 1.515625 1.542969 1.027344 2.136719 1.027344 L 137.011719 1.027344 M 137.011719 0.0273438 L 2.136719 0.0273438 C 0.988281 0.0273438 0.0546875 0.964844 0.0546875 2.113281 L 0.0546875 125.359375 C 0.0546875 126.507812 0.988281 127.445312 2.136719 127.445312 L 137.011719 127.445312 C 138.160156 127.445312 139.097656 126.507812 139.097656 125.359375 L 139.097656 2.113281 C 139.097656 0.964844 138.160156 0.0273438 137.011719 0.0273438 Z M 137.011719 0.0273438 " clip-rule="nonzero"/></clipPath><clipPath id="69b8517c73"><path d="M 14 17.628906 L 91 17.628906 L 91 105.613281 L 14 105.613281 Z M 14 17.628906 " clip-rule="nonzero"/></clipPath><clipPath id="6ac2feb9b6"><path d="M 97 97 L 125.097656 97 L 125.097656 105.613281 L 97 105.613281 Z M 97 97 " clip-rule="nonzero"/></clipPath></defs><g clip-path="url(#b02421b6d5)"><g clip-path="url(#36842e45c0)"><path fill="#000000" d="M 0.0546875 0.0273438 L 139.097656 0.0273438 L 139.097656 127.445312 L 0.0546875 127.445312 Z M 0.0546875 0.0273438 " fill-opacity="1" fill-rule="nonzero"/></g></g><g clip-path="url(#ecf1387c4c)"><g clip-path="url(#74cf21e3c3)"><path fill="#000000" d="M 0.0546875 0.0273438 L 139.097656 0.0273438 L 139.097656 127.445312 L 0.0546875 127.445312 Z M 0.0546875 0.0273438 " fill-opacity="1" fill-rule="nonzero"/></g></g><g clip-path="url(#69b8517c73)"><path fill="#ffffff" d="M 14.746094 105.542969 L 89.777344 105.542969 C 89.792969 105.542969 89.800781 105.542969 89.8125 105.542969 C 90.050781 105.542969 90.265625 105.4375 90.410156 105.269531 C 90.488281 105.1875 90.582031 105.023438 90.582031 104.746094 L 90.582031 18.402344 C 90.5 18.160156 90.4375 18.011719 90.363281 17.851562 L 90.359375 17.851562 L 90.3125 17.855469 L 90.3125 17.785156 C 90.222656 17.707031 89.964844 17.628906 89.777344 17.628906 L 14.480469 17.628906 C 14.21875 17.703125 14.035156 17.96875 14.035156 18.320312 L 14.035156 104.839844 C 14.035156 104.84375 14.035156 104.847656 14.035156 104.851562 C 14.035156 105.09375 14.132812 105.300781 14.292969 105.453125 C 14.394531 105.542969 14.566406 105.542969 14.746094 105.542969 Z M 22.472656 26.761719 C 22.472656 26.410156 22.660156 26.164062 22.917969 26.070312 L 81.515625 26.070312 C 81.789062 26.144531 81.972656 26.421875 81.972656 26.761719 L 81.972656 96.46875 C 81.972656 96.828125 81.792969 97.089844 81.527344 97.179688 L 22.914062 97.179688 C 22.644531 97.101562 22.46875 96.8125 22.46875 96.472656 L 22.460938 96.46875 Z M 22.472656 26.761719 " fill-opacity="1" fill-rule="nonzero"/></g><g clip-path="url(#6ac2feb9b6)"><path fill="#ffffff" d="M 125.308594 98.003906 C 125.308594 97.523438 125.042969 97.238281 124.503906 97.238281 L 124.503906 97.1875 L 98.5625 97.1875 C 98.128906 97.1875 97.777344 97.457031 97.777344 97.976562 L 97.777344 104.941406 C 97.777344 105.371094 98.046875 105.71875 98.574219 105.71875 L 124.507812 105.71875 C 124.953125 105.71875 125.308594 105.515625 125.308594 104.964844 Z M 125.308594 98.003906 " fill-opacity="1" fill-rule="nonzero"/></g><path fill="#ffffff" d="M 46.246094 88.484375 C 51.8125 88.484375 56.054688 86.277344 58.976562 82.898438 C 59.183594 82.558594 59.253906 82.136719 58.90625 81.859375 L 54.097656 77.65625 C 53.757812 77.4375 53.339844 77.4375 53.058594 77.78125 C 51.25 79.847656 49.371094 80.953125 46.316406 80.953125 C 43.042969 80.953125 40.546875 79.367188 39.503906 76.195312 C 38.871094 74.40625 38.734375 72.199219 38.734375 69.378906 C 38.734375 66.550781 38.941406 64.472656 39.566406 62.621094 C 40.679688 59.59375 43.117188 57.992188 46.457031 57.992188 C 49.46875 57.992188 51.15625 58.804688 52.929688 60.835938 C 53.199219 61.175781 53.636719 61.265625 53.996094 60.996094 L 58.789062 56.769531 C 59.136719 56.566406 59.058594 56.011719 58.882812 55.738281 C 55.9375 52.230469 51.675781 50.023438 46.179688 50.023438 C 38.808594 50.023438 33.242188 53.675781 31.085938 60.15625 C 30.320312 62.433594 29.972656 65.332031 29.972656 69.25 C 29.972656 73.175781 30.320312 76.070312 31.15625 78.347656 C 33.3125 84.90625 38.875 88.484375 46.246094 88.484375 Z M 46.246094 88.484375 " fill-opacity="1" fill-rule="nonzero"/></svg>