<svg xmlns="http://www.w3.org/2000/svg" xmlns:xlink="http://www.w3.org/1999/xlink" width="49" zoomAndPan="magnify" viewBox="0 0 36.75 36.75" height="49" preserveAspectRatio="xMidYMid meet" version="1.0"><defs><clipPath id="95a5c4d907"><path d="M 5 7 L 31.691406 7 L 31.691406 33.707031 L 5 33.707031 Z M 5 7 " clip-rule="nonzero"/></clipPath><clipPath id="39784a935a"><path d="M 4.875 6.890625 L 31.691406 6.890625 L 31.691406 33.707031 L 4.875 33.707031 Z M 4.875 6.890625 " clip-rule="nonzero"/></clipPath><clipPath id="4f0cc1e616"><path d="M 0.480469 0.402344 L 36 0.402344 L 36 36 L 0.480469 36 Z M 0.480469 0.402344 " clip-rule="nonzero"/></clipPath></defs><g clip-path="url(#95a5c4d907)"><path fill="#ffd83f" d="M 23.746094 21.726562 L 23.746094 7.1875 L 12.792969 7.1875 L 12.792969 21.726562 L 5.226562 21.726562 L 18.269531 33.269531 L 31.3125 21.726562 Z M 23.746094 21.726562 " fill-opacity="1" fill-rule="nonzero"/></g><g clip-path="url(#39784a935a)"><path fill="#000000" d="M 18.269531 33.566406 C 18.199219 33.566406 18.128906 33.542969 18.074219 33.492188 L 5.03125 21.949219 C 4.9375 21.867188 4.90625 21.734375 4.949219 21.621094 C 4.992188 21.503906 5.105469 21.429688 5.226562 21.429688 L 12.496094 21.429688 L 12.496094 7.1875 C 12.496094 7.023438 12.628906 6.890625 12.792969 6.890625 L 23.746094 6.890625 C 23.910156 6.890625 24.042969 7.023438 24.042969 7.1875 L 24.042969 21.429688 L 31.3125 21.429688 C 31.433594 21.429688 31.546875 21.503906 31.589844 21.621094 C 31.632812 21.734375 31.601562 21.867188 31.507812 21.949219 L 18.464844 33.492188 C 18.410156 33.542969 18.339844 33.566406 18.269531 33.566406 Z M 6.011719 22.023438 L 18.269531 32.875 L 30.527344 22.023438 L 23.746094 22.023438 C 23.582031 22.023438 23.449219 21.890625 23.449219 21.726562 L 23.449219 7.484375 L 13.089844 7.484375 L 13.089844 21.726562 C 13.089844 21.890625 12.957031 22.023438 12.792969 22.023438 Z M 6.011719 22.023438 " fill-opacity="1" fill-rule="nonzero"/></g><g clip-path="url(#4f0cc1e616)"><path fill="#ffd83f" d="M 25.542969 20.113281 L 25.542969 0.796875 L 10.988281 0.796875 L 10.988281 20.113281 L 0.941406 20.113281 L 18.265625 35.449219 L 35.59375 20.113281 Z M 25.542969 20.113281 " fill-opacity="1" fill-rule="nonzero"/><path fill="#000000" d="M 18.265625 35.84375 C 18.175781 35.84375 18.082031 35.808594 18.007812 35.746094 L 0.679688 20.40625 C 0.554688 20.296875 0.511719 20.125 0.570312 19.972656 C 0.628906 19.820312 0.777344 19.71875 0.941406 19.71875 L 10.597656 19.71875 L 10.597656 0.796875 C 10.597656 0.578125 10.773438 0.402344 10.992188 0.402344 L 25.542969 0.402344 C 25.761719 0.402344 25.9375 0.578125 25.9375 0.796875 L 25.9375 19.71875 L 35.59375 19.71875 C 35.757812 19.71875 35.90625 19.820312 35.964844 19.972656 C 36.019531 20.125 35.976562 20.296875 35.855469 20.40625 L 18.527344 35.746094 C 18.453125 35.808594 18.359375 35.84375 18.265625 35.84375 Z M 1.980469 20.507812 L 18.265625 34.921875 L 34.554688 20.507812 L 25.542969 20.507812 C 25.328125 20.507812 25.148438 20.328125 25.148438 20.113281 L 25.148438 1.191406 L 11.382812 1.191406 L 11.382812 20.113281 C 11.382812 20.328125 11.207031 20.507812 10.992188 20.507812 Z M 1.980469 20.507812 " fill-opacity="1" fill-rule="nonzero"/></g></svg>