<svg xmlns="http://www.w3.org/2000/svg" xmlns:xlink="http://www.w3.org/1999/xlink" width="71" zoomAndPan="magnify" viewBox="0 0 53.25 37.499999" height="50" preserveAspectRatio="xMidYMid meet" version="1.0"><defs><clipPath id="f42397c4ce"><path d="M 18 0.589844 L 35 0.589844 L 35 36.828125 L 18 36.828125 Z M 18 0.589844 " clip-rule="nonzero"/></clipPath><clipPath id="b29a5944db"><path d="M 18 0.550781 L 35 0.550781 L 35 36.789062 L 18 36.789062 Z M 18 0.550781 " clip-rule="nonzero"/></clipPath></defs><path fill="#353333" d="M 13.789062 31.566406 C 13.027344 31.566406 12.519531 31.3125 12.011719 30.804688 L 1.855469 20.648438 C 0.839844 19.632812 0.839844 18.109375 1.855469 17.09375 L 12.011719 6.9375 C 13.027344 5.921875 14.550781 5.921875 15.566406 6.9375 C 16.582031 7.953125 16.582031 9.476562 15.566406 10.492188 L 7.1875 18.871094 L 15.566406 27.25 C 16.582031 28.265625 16.582031 29.789062 15.566406 30.804688 C 15.058594 31.3125 14.550781 31.566406 13.789062 31.566406 Z M 13.789062 31.566406 " fill-opacity="1" fill-rule="nonzero"/><path fill="#353333" d="M 39.179688 31.566406 C 38.417969 31.566406 37.910156 31.3125 37.402344 30.804688 C 36.386719 29.789062 36.386719 28.265625 37.402344 27.25 L 45.78125 18.871094 L 37.402344 10.492188 C 36.386719 9.476562 36.386719 7.953125 37.402344 6.9375 C 38.417969 5.921875 39.941406 5.921875 40.957031 6.9375 L 51.113281 17.09375 C 52.128906 18.109375 52.128906 19.632812 51.113281 20.648438 L 40.957031 30.804688 C 40.449219 31.3125 39.941406 31.566406 39.179688 31.566406 Z M 39.179688 31.566406 " fill-opacity="1" fill-rule="nonzero"/><g clip-path="url(#f42397c4ce)"><path fill="#353333" d="M 21.40625 36.644531 C 21.152344 36.644531 20.898438 36.644531 20.644531 36.390625 C 19.375 35.882812 18.613281 34.613281 19.121094 33.089844 L 29.277344 2.621094 C 29.785156 1.351562 31.054688 0.589844 32.578125 1.097656 C 33.847656 1.605469 34.609375 2.875 34.101562 4.398438 L 23.945312 34.867188 C 23.4375 35.882812 22.421875 36.644531 21.40625 36.644531 Z M 21.40625 36.644531 " fill-opacity="1" fill-rule="nonzero"/></g><path fill="#353333" d="M 13.789062 31.527344 C 13.027344 31.527344 12.519531 31.273438 12.011719 30.765625 L 1.855469 20.609375 C 0.839844 19.59375 0.839844 18.070312 1.855469 17.054688 L 12.011719 6.898438 C 13.027344 5.882812 14.550781 5.882812 15.566406 6.898438 C 16.582031 7.914062 16.582031 9.4375 15.566406 10.453125 L 7.1875 18.832031 L 15.566406 27.210938 C 16.582031 28.226562 16.582031 29.75 15.566406 30.765625 C 15.058594 31.273438 14.550781 31.527344 13.789062 31.527344 Z M 13.789062 31.527344 " fill-opacity="1" fill-rule="nonzero"/><path fill="#353333" d="M 39.179688 31.527344 C 38.417969 31.527344 37.910156 31.273438 37.402344 30.765625 C 36.386719 29.75 36.386719 28.226562 37.402344 27.210938 L 45.78125 18.832031 L 37.402344 10.453125 C 36.386719 9.4375 36.386719 7.914062 37.402344 6.898438 C 38.417969 5.882812 39.941406 5.882812 40.957031 6.898438 L 51.113281 17.054688 C 52.128906 18.070312 52.128906 19.59375 51.113281 20.609375 L 40.957031 30.765625 C 40.449219 31.273438 39.941406 31.527344 39.179688 31.527344 Z M 39.179688 31.527344 " fill-opacity="1" fill-rule="nonzero"/><g clip-path="url(#b29a5944db)"><path fill="#353333" d="M 21.40625 36.605469 C 21.152344 36.605469 20.898438 36.605469 20.644531 36.351562 C 19.375 35.84375 18.613281 34.574219 19.121094 33.050781 L 29.277344 2.582031 C 29.785156 1.3125 31.054688 0.550781 32.578125 1.058594 C 33.847656 1.566406 34.609375 2.835938 34.101562 4.359375 L 23.945312 34.828125 C 23.4375 35.84375 22.421875 36.605469 21.40625 36.605469 Z M 21.40625 36.605469 " fill-opacity="1" fill-rule="nonzero"/></g></svg>