<svg xmlns="http://www.w3.org/2000/svg" xmlns:xlink="http://www.w3.org/1999/xlink" width="62" zoomAndPan="magnify" viewBox="0 0 46.5 32.999998" height="44" preserveAspectRatio="xMidYMid meet" version="1.0"><defs><clipPath id="d1a5829fe3"><path d="M 10.558594 18 L 35.046875 18 L 35.046875 23.050781 L 10.558594 23.050781 Z M 10.558594 18 " clip-rule="nonzero"/></clipPath><clipPath id="f8939763ad"><path d="M 10.558594 6 L 35.046875 6 L 35.046875 23.050781 L 10.558594 23.050781 Z M 10.558594 6 " clip-rule="nonzero"/></clipPath><clipPath id="2f9754bda5"><path d="M 5 0.546875 L 41 0.546875 L 41 29 L 5 29 Z M 5 0.546875 " clip-rule="nonzero"/></clipPath><clipPath id="66f6b865a1"><path d="M 0.0195312 23 L 46 23 L 46 32.453125 L 0.0195312 32.453125 Z M 0.0195312 23 " clip-rule="nonzero"/></clipPath><clipPath id="837d4da27e"><path d="M 0.0195312 0.546875 L 46 0.546875 L 46 32.453125 L 0.0195312 32.453125 Z M 0.0195312 0.546875 " clip-rule="nonzero"/></clipPath></defs><path fill="#f1f2f2" d="M 32.539062 8.378906 L 32.539062 20.75 C 32.542969 20.882812 32.496094 20.996094 32.402344 21.089844 C 32.308594 21.179688 32.195312 21.226562 32.0625 21.226562 L 13.984375 21.226562 C 13.855469 21.226562 13.742188 21.179688 13.648438 21.089844 C 13.554688 20.996094 13.507812 20.882812 13.511719 20.75 L 13.511719 8.378906 C 13.511719 8.066406 13.570312 7.761719 13.691406 7.46875 C 13.8125 7.179688 13.984375 6.921875 14.207031 6.699219 C 14.429688 6.476562 14.6875 6.304688 14.976562 6.183594 C 15.269531 6.0625 15.574219 6 15.890625 6 L 30.160156 6 C 30.476562 6 30.78125 6.0625 31.070312 6.183594 C 31.363281 6.304688 31.621094 6.476562 31.84375 6.699219 C 32.066406 6.921875 32.238281 7.179688 32.359375 7.46875 C 32.480469 7.761719 32.539062 8.066406 32.539062 8.378906 Z M 32.539062 8.378906 " fill-opacity="1" fill-rule="nonzero"/><path fill="#e6e7e8" d="M 32.539062 17.421875 L 32.539062 20.75 C 32.542969 20.882812 32.496094 20.996094 32.402344 21.089844 C 32.308594 21.179688 32.195312 21.226562 32.0625 21.226562 L 13.984375 21.226562 C 13.855469 21.226562 13.742188 21.179688 13.648438 21.089844 C 13.554688 20.996094 13.507812 20.882812 13.511719 20.75 L 13.511719 17.421875 L 20.019531 17.421875 C 20.480469 17.421875 20.902344 17.546875 21.289062 17.796875 C 21.679688 18.042969 21.972656 18.375 22.167969 18.789062 C 22.34375 19.144531 22.628906 19.324219 23.023438 19.324219 C 23.421875 19.324219 23.707031 19.144531 23.882812 18.789062 C 24.078125 18.375 24.371094 18.042969 24.757812 17.796875 C 25.148438 17.546875 25.570312 17.421875 26.03125 17.421875 Z M 32.539062 17.421875 " fill-opacity="1" fill-rule="nonzero"/><g clip-path="url(#d1a5829fe3)"><path fill="#ffdd40" d="M 35.1875 19.046875 C 34.921875 18.597656 34.53125 18.371094 34.007812 18.371094 L 25.941406 18.371094 C 25.667969 18.378906 25.417969 18.457031 25.191406 18.609375 C 24.964844 18.761719 24.792969 18.960938 24.683594 19.210938 C 24.535156 19.535156 24.308594 19.792969 24.011719 19.984375 C 23.710938 20.179688 23.382812 20.273438 23.023438 20.273438 C 22.667969 20.273438 22.339844 20.179688 22.039062 19.988281 C 21.738281 19.792969 21.515625 19.535156 21.367188 19.214844 C 21.253906 18.964844 21.085938 18.761719 20.859375 18.613281 C 20.628906 18.460938 20.378906 18.382812 20.105469 18.375 L 12.042969 18.371094 C 11.519531 18.375 11.128906 18.597656 10.863281 19.046875 C 10.589844 19.5 10.570312 19.964844 10.804688 20.4375 L 11.726562 22.339844 C 11.839844 22.582031 12.007812 22.773438 12.234375 22.914062 C 12.457031 23.058594 12.703125 23.128906 12.96875 23.128906 L 33.082031 23.128906 C 33.347656 23.128906 33.59375 23.058594 33.816406 22.914062 C 34.039062 22.773438 34.210938 22.582031 34.324219 22.339844 L 35.246094 20.4375 C 35.480469 19.960938 35.457031 19.5 35.1875 19.046875 Z M 35.1875 19.046875 " fill-opacity="1" fill-rule="nonzero"/></g><path fill="#ffdd40" d="M 24.453125 8.855469 L 21.597656 8.855469 C 21.464844 8.855469 21.355469 8.808594 21.261719 8.71875 C 21.167969 8.625 21.121094 8.511719 21.121094 8.378906 C 21.121094 8.25 21.167969 8.136719 21.261719 8.042969 C 21.355469 7.953125 21.464844 7.90625 21.597656 7.90625 L 24.453125 7.90625 C 24.582031 7.90625 24.695312 7.953125 24.789062 8.042969 C 24.882812 8.136719 24.929688 8.25 24.929688 8.378906 C 24.929688 8.511719 24.882812 8.625 24.789062 8.71875 C 24.695312 8.808594 24.582031 8.855469 24.453125 8.855469 Z M 24.453125 8.855469 " fill-opacity="1" fill-rule="nonzero"/><path fill="#ffdd40" d="M 19.695312 15.515625 C 19.5625 15.515625 19.453125 15.46875 19.359375 15.378906 L 17.457031 13.472656 C 17.363281 13.382812 17.316406 13.269531 17.316406 13.136719 C 17.316406 13.007812 17.363281 12.894531 17.457031 12.800781 L 19.359375 10.898438 C 19.453125 10.808594 19.5625 10.765625 19.691406 10.765625 C 19.824219 10.765625 19.933594 10.8125 20.023438 10.90625 C 20.117188 10.996094 20.164062 11.105469 20.164062 11.238281 C 20.164062 11.367188 20.121094 11.476562 20.03125 11.570312 L 18.464844 13.136719 L 20.03125 14.703125 C 20.179688 14.855469 20.214844 15.027344 20.132812 15.222656 C 20.054688 15.417969 19.90625 15.515625 19.695312 15.515625 Z M 19.695312 15.515625 " fill-opacity="1" fill-rule="nonzero"/><path fill="#ffdd40" d="M 26.355469 15.515625 C 26.144531 15.515625 25.996094 15.417969 25.914062 15.222656 C 25.835938 15.027344 25.871094 14.855469 26.019531 14.703125 L 27.585938 13.136719 L 26.019531 11.570312 C 25.929688 11.476562 25.882812 11.367188 25.886719 11.238281 C 25.886719 11.105469 25.933594 10.996094 26.023438 10.90625 C 26.117188 10.8125 26.226562 10.765625 26.355469 10.765625 C 26.488281 10.765625 26.597656 10.808594 26.691406 10.898438 L 28.59375 12.800781 C 28.6875 12.894531 28.734375 13.007812 28.734375 13.136719 C 28.734375 13.269531 28.6875 13.382812 28.59375 13.472656 L 26.691406 15.378906 C 26.597656 15.46875 26.488281 15.515625 26.355469 15.515625 Z M 26.355469 15.515625 " fill-opacity="1" fill-rule="nonzero"/><path fill="#ffdd40" d="M 21.597656 15.515625 C 21.402344 15.515625 21.261719 15.429688 21.171875 15.253906 C 21.085938 15.078125 21.101562 14.914062 21.21875 14.757812 L 24.070312 10.949219 C 24.152344 10.84375 24.253906 10.78125 24.386719 10.765625 C 24.515625 10.746094 24.632812 10.777344 24.738281 10.855469 C 24.84375 10.933594 24.90625 11.039062 24.921875 11.167969 C 24.941406 11.296875 24.910156 11.414062 24.832031 11.519531 L 21.976562 15.328125 C 21.882812 15.453125 21.757812 15.515625 21.597656 15.515625 Z M 21.597656 15.515625 " fill-opacity="1" fill-rule="nonzero"/><g clip-path="url(#f8939763ad)"><path fill="#000000" d="M 35.1875 19.046875 C 34.921875 18.597656 34.53125 18.371094 34.007812 18.371094 L 32.539062 18.371094 L 32.539062 8.378906 C 32.539062 8.066406 32.480469 7.761719 32.359375 7.472656 C 32.238281 7.179688 32.066406 6.921875 31.84375 6.699219 C 31.621094 6.476562 31.363281 6.304688 31.070312 6.183594 C 30.78125 6.0625 30.476562 6.003906 30.160156 6 L 15.890625 6 C 15.574219 6.003906 15.269531 6.0625 14.980469 6.183594 C 14.6875 6.304688 14.429688 6.476562 14.207031 6.699219 C 13.984375 6.921875 13.8125 7.179688 13.691406 7.472656 C 13.570312 7.761719 13.511719 8.066406 13.511719 8.378906 L 13.511719 18.371094 L 12.042969 18.371094 C 11.519531 18.375 11.128906 18.597656 10.863281 19.046875 C 10.589844 19.5 10.570312 19.964844 10.804688 20.4375 L 11.726562 22.339844 C 11.839844 22.582031 12.007812 22.773438 12.234375 22.914062 C 12.457031 23.058594 12.703125 23.128906 12.96875 23.128906 L 33.082031 23.128906 C 33.347656 23.128906 33.59375 23.058594 33.816406 22.914062 C 34.039062 22.773438 34.210938 22.582031 34.324219 22.339844 L 35.246094 20.4375 C 35.480469 19.960938 35.457031 19.5 35.1875 19.046875 Z M 14.460938 8.378906 C 14.460938 8.191406 14.496094 8.007812 14.570312 7.835938 C 14.644531 7.660156 14.746094 7.503906 14.878906 7.371094 C 15.015625 7.238281 15.167969 7.136719 15.34375 7.0625 C 15.515625 6.988281 15.699219 6.953125 15.890625 6.953125 L 30.160156 6.953125 C 30.351562 6.953125 30.53125 6.988281 30.707031 7.0625 C 30.882812 7.136719 31.035156 7.238281 31.171875 7.371094 C 31.304688 7.503906 31.40625 7.660156 31.480469 7.835938 C 31.550781 8.007812 31.589844 8.191406 31.589844 8.378906 L 31.589844 18.371094 L 25.941406 18.371094 C 25.667969 18.378906 25.417969 18.457031 25.191406 18.609375 C 24.964844 18.761719 24.792969 18.960938 24.683594 19.210938 C 24.535156 19.535156 24.308594 19.792969 24.011719 19.984375 C 23.710938 20.179688 23.382812 20.273438 23.023438 20.273438 C 22.667969 20.273438 22.339844 20.179688 22.039062 19.988281 C 21.738281 19.792969 21.515625 19.535156 21.367188 19.214844 C 21.253906 18.964844 21.085938 18.761719 20.859375 18.613281 C 20.628906 18.460938 20.378906 18.382812 20.105469 18.375 L 14.460938 18.375 Z M 34.417969 20.011719 L 33.496094 21.914062 C 33.414062 22.089844 33.277344 22.175781 33.082031 22.175781 L 12.96875 22.175781 C 12.773438 22.175781 12.636719 22.089844 12.554688 21.914062 L 11.628906 20.011719 C 11.550781 19.855469 11.558594 19.699219 11.648438 19.550781 C 11.738281 19.398438 11.867188 19.324219 12.042969 19.324219 L 20.105469 19.328125 C 20.316406 19.335938 20.460938 19.441406 20.539062 19.636719 C 20.761719 20.121094 21.097656 20.507812 21.550781 20.792969 C 22 21.082031 22.492188 21.226562 23.027344 21.226562 C 23.558594 21.226562 24.050781 21.082031 24.503906 20.792969 C 24.953125 20.503906 25.289062 20.117188 25.511719 19.632812 C 25.589844 19.4375 25.734375 19.335938 25.941406 19.324219 L 34.007812 19.324219 C 34.183594 19.324219 34.3125 19.398438 34.398438 19.546875 C 34.492188 19.699219 34.5 19.851562 34.417969 20.011719 Z M 34.417969 20.011719 " fill-opacity="1" fill-rule="nonzero"/></g><path fill="#231f20" d="M 24.453125 8.855469 L 21.597656 8.855469 C 21.464844 8.855469 21.355469 8.808594 21.261719 8.71875 C 21.167969 8.625 21.121094 8.511719 21.121094 8.378906 C 21.121094 8.25 21.167969 8.136719 21.261719 8.042969 C 21.355469 7.953125 21.464844 7.90625 21.597656 7.90625 L 24.453125 7.90625 C 24.582031 7.90625 24.695312 7.953125 24.789062 8.042969 C 24.882812 8.136719 24.929688 8.25 24.929688 8.378906 C 24.929688 8.511719 24.882812 8.625 24.789062 8.71875 C 24.695312 8.808594 24.582031 8.855469 24.453125 8.855469 Z M 24.453125 8.855469 " fill-opacity="1" fill-rule="nonzero"/><path fill="#231f20" d="M 19.359375 15.378906 L 17.457031 13.472656 C 17.363281 13.382812 17.316406 13.269531 17.316406 13.136719 C 17.316406 13.007812 17.363281 12.894531 17.457031 12.800781 L 19.359375 10.898438 C 19.453125 10.808594 19.5625 10.765625 19.691406 10.765625 C 19.824219 10.765625 19.933594 10.8125 20.023438 10.90625 C 20.117188 10.996094 20.164062 11.105469 20.164062 11.238281 C 20.164062 11.367188 20.121094 11.476562 20.03125 11.570312 L 18.464844 13.136719 L 20.03125 14.703125 C 20.121094 14.796875 20.164062 14.910156 20.164062 15.039062 C 20.164062 15.167969 20.117188 15.28125 20.023438 15.371094 C 19.933594 15.464844 19.824219 15.511719 19.691406 15.511719 C 19.5625 15.511719 19.453125 15.46875 19.359375 15.378906 Z M 19.359375 15.378906 " fill-opacity="1" fill-rule="nonzero"/><path fill="#231f20" d="M 26.019531 15.378906 C 25.925781 15.285156 25.878906 15.171875 25.878906 15.042969 C 25.878906 14.910156 25.925781 14.796875 26.019531 14.703125 L 27.585938 13.136719 L 26.019531 11.570312 C 25.929688 11.476562 25.882812 11.367188 25.886719 11.238281 C 25.886719 11.105469 25.933594 10.996094 26.023438 10.90625 C 26.117188 10.8125 26.226562 10.765625 26.355469 10.765625 C 26.488281 10.765625 26.597656 10.808594 26.691406 10.898438 L 28.59375 12.800781 C 28.6875 12.894531 28.734375 13.007812 28.734375 13.136719 C 28.734375 13.269531 28.6875 13.382812 28.59375 13.472656 L 26.691406 15.378906 C 26.597656 15.46875 26.488281 15.515625 26.355469 15.515625 C 26.222656 15.515625 26.113281 15.46875 26.019531 15.378906 Z M 26.019531 15.378906 " fill-opacity="1" fill-rule="nonzero"/><path fill="#231f20" d="M 21.3125 15.421875 C 21.207031 15.34375 21.144531 15.238281 21.125 15.109375 C 21.109375 14.980469 21.136719 14.859375 21.21875 14.757812 L 24.070312 10.949219 C 24.152344 10.84375 24.253906 10.78125 24.386719 10.765625 C 24.515625 10.746094 24.632812 10.777344 24.738281 10.855469 C 24.84375 10.933594 24.90625 11.039062 24.921875 11.167969 C 24.941406 11.296875 24.910156 11.414062 24.832031 11.519531 L 21.976562 15.328125 C 21.898438 15.433594 21.796875 15.492188 21.664062 15.511719 C 21.535156 15.53125 21.417969 15.5 21.3125 15.421875 Z M 21.3125 15.421875 " fill-opacity="1" fill-rule="nonzero"/><g clip-path="url(#2f9754bda5)"><path fill="#f1f2f2" d="M 40.65625 4.980469 L 40.65625 27.847656 C 40.65625 28.089844 40.574219 28.300781 40.402344 28.472656 C 40.226562 28.644531 40.019531 28.730469 39.777344 28.726562 L 6.351562 28.726562 C 6.109375 28.730469 5.902344 28.644531 5.726562 28.472656 C 5.554688 28.300781 5.472656 28.089844 5.472656 27.847656 L 5.472656 4.980469 C 5.472656 4.691406 5.5 4.402344 5.558594 4.121094 C 5.613281 3.835938 5.699219 3.5625 5.808594 3.296875 C 5.917969 3.027344 6.054688 2.777344 6.214844 2.535156 C 6.375 2.296875 6.558594 2.074219 6.761719 1.871094 C 6.964844 1.664062 7.1875 1.484375 7.429688 1.324219 C 7.667969 1.164062 7.921875 1.027344 8.1875 0.917969 C 8.457031 0.804688 8.730469 0.722656 9.011719 0.664062 C 9.296875 0.609375 9.582031 0.582031 9.871094 0.582031 L 36.257812 0.582031 C 36.546875 0.582031 36.832031 0.609375 37.117188 0.664062 C 37.398438 0.722656 37.671875 0.804688 37.941406 0.917969 C 38.207031 1.027344 38.460938 1.164062 38.699219 1.324219 C 38.941406 1.484375 39.164062 1.664062 39.367188 1.871094 C 39.570312 2.074219 39.753906 2.296875 39.914062 2.535156 C 40.074219 2.777344 40.210938 3.027344 40.320312 3.296875 C 40.429688 3.5625 40.515625 3.835938 40.570312 4.121094 C 40.628906 4.402344 40.65625 4.691406 40.65625 4.980469 Z M 40.65625 4.980469 " fill-opacity="1" fill-rule="nonzero"/></g><path fill="#e6e7e8" d="M 40.65625 21.691406 L 40.65625 27.847656 C 40.65625 28.089844 40.574219 28.300781 40.402344 28.472656 C 40.226562 28.644531 40.019531 28.730469 39.777344 28.726562 L 6.351562 28.726562 C 6.109375 28.730469 5.902344 28.644531 5.726562 28.472656 C 5.554688 28.300781 5.472656 28.089844 5.472656 27.847656 L 5.472656 21.691406 L 17.503906 21.691406 C 17.921875 21.691406 18.332031 21.753906 18.730469 21.871094 C 19.132812 21.988281 19.507812 22.160156 19.859375 22.382812 C 20.210938 22.609375 20.523438 22.875 20.800781 23.1875 C 21.074219 23.5 21.304688 23.847656 21.480469 24.222656 C 21.628906 24.523438 21.847656 24.765625 22.132812 24.941406 C 22.417969 25.121094 22.726562 25.207031 23.0625 25.207031 C 23.402344 25.207031 23.710938 25.121094 23.996094 24.941406 C 24.28125 24.765625 24.5 24.523438 24.648438 24.222656 C 24.824219 23.847656 25.054688 23.5 25.328125 23.1875 C 25.605469 22.875 25.917969 22.609375 26.269531 22.382812 C 26.621094 22.160156 26.996094 21.988281 27.398438 21.871094 C 27.796875 21.753906 28.207031 21.691406 28.625 21.691406 Z M 40.65625 21.691406 " fill-opacity="1" fill-rule="nonzero"/><g clip-path="url(#66f6b865a1)"><path fill="#ffdd40" d="M 45.546875 24.695312 C 45.320312 24.3125 45.011719 24.007812 44.625 23.785156 C 44.238281 23.5625 43.820312 23.449219 43.371094 23.449219 L 28.460938 23.449219 C 27.953125 23.460938 27.488281 23.605469 27.070312 23.886719 C 26.648438 24.167969 26.335938 24.542969 26.132812 25.003906 C 25.855469 25.601562 25.441406 26.078125 24.886719 26.433594 C 24.332031 26.789062 23.722656 26.96875 23.066406 26.96875 C 22.40625 26.96875 21.800781 26.789062 21.242188 26.433594 C 20.6875 26.082031 20.273438 25.605469 19.996094 25.003906 C 19.792969 24.542969 19.480469 24.171875 19.058594 23.894531 C 18.636719 23.613281 18.175781 23.46875 17.667969 23.457031 L 2.761719 23.449219 L 2.757812 23.449219 C 2.3125 23.453125 1.894531 23.5625 1.503906 23.785156 C 1.117188 24.007812 0.808594 24.3125 0.582031 24.699219 C 0.347656 25.089844 0.21875 25.515625 0.199219 25.96875 C 0.179688 26.425781 0.269531 26.859375 0.46875 27.269531 L 2.175781 30.785156 C 2.386719 31.230469 2.699219 31.585938 3.113281 31.847656 C 3.527344 32.109375 3.980469 32.242188 4.46875 32.246094 L 41.65625 32.246094 C 42.148438 32.242188 42.601562 32.109375 43.015625 31.847656 C 43.429688 31.585938 43.742188 31.230469 43.949219 30.785156 L 45.660156 27.269531 C 45.859375 26.859375 45.949219 26.425781 45.929688 25.96875 C 45.910156 25.511719 45.78125 25.089844 45.546875 24.695312 Z M 45.546875 24.695312 " fill-opacity="1" fill-rule="nonzero"/></g><path fill="#ffdd40" d="M 25.703125 5.859375 L 20.425781 5.859375 C 20.183594 5.859375 19.976562 5.773438 19.804688 5.601562 C 19.632812 5.429688 19.546875 5.222656 19.546875 4.980469 C 19.546875 4.734375 19.632812 4.527344 19.804688 4.355469 C 19.976562 4.183594 20.183594 4.097656 20.425781 4.097656 L 25.703125 4.097656 C 25.945312 4.097656 26.152344 4.183594 26.324219 4.355469 C 26.496094 4.527344 26.582031 4.734375 26.582031 4.980469 C 26.582031 5.222656 26.496094 5.429688 26.324219 5.601562 C 26.152344 5.773438 25.945312 5.859375 25.703125 5.859375 Z M 25.703125 5.859375 " fill-opacity="1" fill-rule="nonzero"/><path fill="#ffdd40" d="M 16.90625 18.171875 C 16.664062 18.171875 16.457031 18.085938 16.285156 17.914062 L 12.765625 14.394531 C 12.597656 14.222656 12.511719 14.015625 12.511719 13.773438 C 12.511719 13.53125 12.597656 13.324219 12.765625 13.152344 L 16.285156 9.632812 C 16.457031 9.46875 16.664062 9.386719 16.90625 9.386719 C 17.144531 9.390625 17.347656 9.476562 17.519531 9.644531 C 17.6875 9.816406 17.773438 10.019531 17.777344 10.257812 C 17.777344 10.5 17.695312 10.707031 17.53125 10.878906 L 14.632812 13.773438 L 17.53125 16.671875 C 17.65625 16.796875 17.734375 16.945312 17.769531 17.121094 C 17.804688 17.296875 17.789062 17.464844 17.71875 17.628906 C 17.652344 17.792969 17.542969 17.925781 17.394531 18.023438 C 17.25 18.121094 17.085938 18.171875 16.90625 18.171875 Z M 16.90625 18.171875 " fill-opacity="1" fill-rule="nonzero"/><path fill="#ffdd40" d="M 29.222656 18.171875 C 29.042969 18.171875 28.878906 18.121094 28.734375 18.023438 C 28.585938 17.925781 28.476562 17.792969 28.410156 17.628906 C 28.339844 17.464844 28.324219 17.296875 28.359375 17.121094 C 28.394531 16.945312 28.472656 16.796875 28.597656 16.671875 L 31.496094 13.773438 L 28.597656 10.878906 C 28.433594 10.707031 28.351562 10.5 28.351562 10.257812 C 28.355469 10.019531 28.441406 9.816406 28.609375 9.644531 C 28.78125 9.476562 28.984375 9.390625 29.222656 9.386719 C 29.464844 9.386719 29.671875 9.46875 29.84375 9.632812 L 33.363281 13.152344 C 33.53125 13.324219 33.617188 13.53125 33.617188 13.773438 C 33.617188 14.015625 33.53125 14.222656 33.363281 14.394531 L 29.84375 17.914062 C 29.671875 18.085938 29.464844 18.171875 29.222656 18.171875 Z M 29.222656 18.171875 " fill-opacity="1" fill-rule="nonzero"/><path fill="#ffdd40" d="M 20.425781 18.171875 C 20.0625 18.171875 19.800781 18.007812 19.640625 17.683594 C 19.476562 17.363281 19.503906 17.054688 19.722656 16.765625 L 25 9.730469 C 25.144531 9.535156 25.339844 9.421875 25.578125 9.386719 C 25.820312 9.351562 26.035156 9.40625 26.230469 9.550781 C 26.425781 9.699219 26.539062 9.890625 26.574219 10.132812 C 26.609375 10.371094 26.550781 10.589844 26.40625 10.785156 L 21.128906 17.820312 C 20.953125 18.054688 20.71875 18.171875 20.425781 18.171875 Z M 20.425781 18.171875 " fill-opacity="1" fill-rule="nonzero"/><g clip-path="url(#837d4da27e)"><path fill="#000000" d="M 45.546875 24.695312 C 45.320312 24.3125 45.011719 24.007812 44.625 23.785156 C 44.238281 23.5625 43.820312 23.449219 43.371094 23.449219 L 40.65625 23.449219 L 40.65625 4.980469 C 40.65625 4.691406 40.625 4.402344 40.570312 4.121094 C 40.511719 3.839844 40.429688 3.5625 40.320312 3.296875 C 40.207031 3.03125 40.074219 2.777344 39.914062 2.535156 C 39.753906 2.296875 39.570312 2.074219 39.367188 1.871094 C 39.160156 1.667969 38.941406 1.484375 38.699219 1.324219 C 38.460938 1.164062 38.207031 1.027344 37.941406 0.917969 C 37.671875 0.804688 37.398438 0.722656 37.117188 0.667969 C 36.832031 0.609375 36.546875 0.582031 36.257812 0.582031 L 9.871094 0.582031 C 9.582031 0.582031 9.296875 0.609375 9.011719 0.667969 C 8.730469 0.722656 8.457031 0.804688 8.1875 0.917969 C 7.921875 1.027344 7.667969 1.164062 7.429688 1.324219 C 7.1875 1.484375 6.96875 1.667969 6.761719 1.871094 C 6.558594 2.074219 6.375 2.296875 6.214844 2.535156 C 6.054688 2.777344 5.921875 3.03125 5.808594 3.296875 C 5.699219 3.5625 5.617188 3.839844 5.558594 4.121094 C 5.503906 4.402344 5.472656 4.691406 5.472656 4.980469 L 5.472656 23.453125 L 2.761719 23.449219 L 2.757812 23.449219 C 2.3125 23.453125 1.894531 23.5625 1.503906 23.785156 C 1.117188 24.007812 0.808594 24.3125 0.582031 24.699219 C 0.347656 25.089844 0.21875 25.515625 0.199219 25.96875 C 0.179688 26.425781 0.269531 26.859375 0.46875 27.269531 L 2.175781 30.785156 C 2.386719 31.230469 2.699219 31.585938 3.113281 31.847656 C 3.527344 32.109375 3.980469 32.242188 4.46875 32.246094 L 41.65625 32.246094 C 42.148438 32.242188 42.601562 32.109375 43.015625 31.847656 C 43.429688 31.585938 43.742188 31.230469 43.949219 30.785156 L 45.660156 27.269531 C 45.859375 26.859375 45.949219 26.425781 45.929688 25.96875 C 45.910156 25.511719 45.78125 25.089844 45.546875 24.695312 Z M 7.234375 4.980469 C 7.234375 4.628906 7.300781 4.292969 7.433594 3.96875 C 7.566406 3.644531 7.757812 3.359375 8.007812 3.113281 C 8.253906 2.867188 8.539062 2.675781 8.863281 2.542969 C 9.183594 2.40625 9.519531 2.339844 9.871094 2.339844 L 36.257812 2.339844 C 36.609375 2.339844 36.945312 2.40625 37.265625 2.542969 C 37.589844 2.675781 37.875 2.867188 38.121094 3.113281 C 38.371094 3.359375 38.5625 3.644531 38.695312 3.96875 C 38.828125 4.292969 38.894531 4.628906 38.894531 4.980469 L 38.894531 23.449219 L 28.460938 23.449219 C 27.953125 23.460938 27.488281 23.605469 27.070312 23.886719 C 26.648438 24.167969 26.335938 24.542969 26.132812 25.003906 C 25.855469 25.601562 25.441406 26.078125 24.886719 26.433594 C 24.332031 26.789062 23.722656 26.96875 23.066406 26.96875 C 22.40625 26.96875 21.800781 26.789062 21.242188 26.433594 C 20.6875 26.082031 20.273438 25.605469 19.996094 25.003906 C 19.792969 24.542969 19.480469 24.171875 19.058594 23.894531 C 18.636719 23.613281 18.175781 23.46875 17.667969 23.457031 L 7.234375 23.453125 Z M 44.128906 26.480469 L 42.421875 30 C 42.269531 30.324219 42.015625 30.484375 41.65625 30.484375 L 4.46875 30.484375 C 4.113281 30.484375 3.855469 30.324219 3.707031 30 L 1.996094 26.484375 C 1.851562 26.191406 1.867188 25.90625 2.035156 25.625 C 2.195312 25.347656 2.4375 25.210938 2.761719 25.210938 L 17.667969 25.214844 C 18.058594 25.234375 18.324219 25.425781 18.464844 25.785156 C 18.667969 26.226562 18.929688 26.625 19.246094 26.992188 C 19.566406 27.355469 19.929688 27.667969 20.335938 27.929688 C 20.742188 28.191406 21.179688 28.386719 21.644531 28.523438 C 22.109375 28.660156 22.582031 28.726562 23.066406 28.726562 C 23.550781 28.726562 24.023438 28.65625 24.488281 28.523438 C 24.953125 28.386719 25.386719 28.1875 25.796875 27.925781 C 26.203125 27.664062 26.566406 27.351562 26.882812 26.988281 C 27.199219 26.621094 27.460938 26.21875 27.664062 25.78125 C 27.808594 25.421875 28.070312 25.230469 28.460938 25.207031 L 43.371094 25.207031 C 43.691406 25.207031 43.933594 25.34375 44.09375 25.621094 C 44.265625 25.902344 44.277344 26.1875 44.128906 26.480469 Z M 44.128906 26.480469 " fill-opacity="1" fill-rule="nonzero"/></g><path fill="#231f20" d="M 25.703125 5.859375 L 20.425781 5.859375 C 20.183594 5.859375 19.976562 5.773438 19.804688 5.601562 C 19.632812 5.429688 19.546875 5.222656 19.546875 4.980469 C 19.546875 4.734375 19.632812 4.527344 19.804688 4.355469 C 19.976562 4.183594 20.183594 4.097656 20.425781 4.097656 L 25.703125 4.097656 C 25.945312 4.097656 26.152344 4.183594 26.324219 4.355469 C 26.496094 4.527344 26.582031 4.734375 26.582031 4.980469 C 26.582031 5.222656 26.496094 5.429688 26.324219 5.601562 C 26.152344 5.773438 25.945312 5.859375 25.703125 5.859375 Z M 25.703125 5.859375 " fill-opacity="1" fill-rule="nonzero"/><path fill="#231f20" d="M 16.285156 17.914062 L 12.765625 14.394531 C 12.597656 14.222656 12.511719 14.015625 12.511719 13.773438 C 12.511719 13.53125 12.597656 13.324219 12.765625 13.152344 L 16.285156 9.632812 C 16.457031 9.46875 16.664062 9.386719 16.90625 9.386719 C 17.144531 9.390625 17.347656 9.476562 17.519531 9.644531 C 17.6875 9.816406 17.773438 10.019531 17.777344 10.257812 C 17.777344 10.5 17.695312 10.707031 17.53125 10.878906 L 14.632812 13.773438 L 17.53125 16.671875 C 17.695312 16.84375 17.777344 17.050781 17.777344 17.289062 C 17.773438 17.527344 17.6875 17.734375 17.519531 17.902344 C 17.347656 18.074219 17.144531 18.160156 16.90625 18.160156 C 16.664062 18.164062 16.457031 18.082031 16.285156 17.914062 Z M 16.285156 17.914062 " fill-opacity="1" fill-rule="nonzero"/><path fill="#231f20" d="M 28.597656 17.914062 C 28.425781 17.742188 28.339844 17.535156 28.339844 17.292969 C 28.339844 17.050781 28.425781 16.84375 28.597656 16.671875 L 31.496094 13.773438 L 28.597656 10.878906 C 28.433594 10.707031 28.351562 10.5 28.351562 10.257812 C 28.355469 10.019531 28.441406 9.816406 28.609375 9.644531 C 28.78125 9.476562 28.984375 9.390625 29.222656 9.386719 C 29.464844 9.386719 29.671875 9.46875 29.84375 9.632812 L 33.363281 13.152344 C 33.53125 13.324219 33.617188 13.53125 33.617188 13.773438 C 33.617188 14.015625 33.53125 14.222656 33.363281 14.394531 L 29.84375 17.914062 C 29.671875 18.085938 29.464844 18.171875 29.222656 18.171875 C 28.976562 18.171875 28.769531 18.085938 28.597656 17.914062 Z M 28.597656 17.914062 " fill-opacity="1" fill-rule="nonzero"/><path fill="#231f20" d="M 19.898438 17.996094 C 19.703125 17.851562 19.589844 17.65625 19.554688 17.417969 C 19.519531 17.175781 19.578125 16.960938 19.722656 16.765625 L 25 9.730469 C 25.144531 9.535156 25.339844 9.421875 25.578125 9.386719 C 25.820312 9.351562 26.035156 9.40625 26.230469 9.550781 C 26.425781 9.699219 26.539062 9.890625 26.574219 10.132812 C 26.609375 10.371094 26.550781 10.589844 26.40625 10.785156 L 21.128906 17.820312 C 20.984375 18.015625 20.789062 18.128906 20.550781 18.164062 C 20.308594 18.199219 20.09375 18.140625 19.898438 17.996094 Z M 19.898438 17.996094 " fill-opacity="1" fill-rule="nonzero"/></svg>