<svg xmlns="http://www.w3.org/2000/svg" xmlns:xlink="http://www.w3.org/1999/xlink" width="75" zoomAndPan="magnify" viewBox="0 0 56.25 60.749998" height="81" preserveAspectRatio="xMidYMid meet" version="1.0"><defs><clipPath id="e9742817cc"><path d="M 0.683594 0.738281 L 54.75 0.738281 L 54.75 59.261719 L 0.683594 59.261719 Z M 0.683594 0.738281 " clip-rule="nonzero"/></clipPath><clipPath id="f7caa82e91"><path d="M 53.101562 59.15625 L 2.332031 59.15625 C 1.488281 59.15625 0.789062 58.460938 0.789062 57.613281 L 0.789062 2.386719 C 0.789062 1.539062 1.488281 0.84375 2.332031 0.84375 L 53.082031 0.84375 C 53.925781 0.84375 54.625 1.539062 54.625 2.386719 L 54.625 57.59375 C 54.644531 58.460938 53.949219 59.15625 53.101562 59.15625 Z M 53.101562 59.15625 " clip-rule="nonzero"/></clipPath><clipPath id="27e34e1870"><path d="M 0.261719 0.316406 L 55.175781 0.316406 L 55.175781 59.683594 L 0.261719 59.683594 Z M 0.261719 0.316406 " clip-rule="nonzero"/></clipPath><clipPath id="de716dfbb6"><path d="M 53.101562 1.308594 C 53.695312 1.308594 54.179688 1.792969 54.179688 2.386719 L 54.179688 57.613281 C 54.179688 58.207031 53.695312 58.691406 53.101562 58.691406 L 2.332031 58.691406 C 1.738281 58.691406 1.253906 58.207031 1.253906 57.613281 L 1.253906 2.386719 C 1.253906 1.792969 1.738281 1.308594 2.332031 1.308594 L 53.101562 1.308594 M 53.101562 0.316406 L 2.332031 0.316406 C 1.191406 0.316406 0.261719 1.246094 0.261719 2.386719 L 0.261719 57.613281 C 0.261719 58.753906 1.191406 59.683594 2.332031 59.683594 L 53.101562 59.683594 C 54.246094 59.683594 55.175781 58.753906 55.175781 57.613281 L 55.175781 2.386719 C 55.175781 1.246094 54.246094 0.316406 53.101562 0.316406 Z M 53.101562 0.316406 " clip-rule="nonzero"/></clipPath><clipPath id="1d73478fe7"><path d="M 11.402344 8.535156 L 43.96875 8.535156 L 43.96875 51.460938 L 11.402344 51.460938 Z M 11.402344 8.535156 " clip-rule="nonzero"/></clipPath><clipPath id="19f420fca0"><path d="M 35 43 L 43.96875 43 L 43.96875 51.460938 L 35 51.460938 Z M 35 43 " clip-rule="nonzero"/></clipPath><clipPath id="77a9d66069"><path d="M 35 42 L 43.96875 42 L 43.96875 51.460938 L 35 51.460938 Z M 35 42 " clip-rule="nonzero"/></clipPath></defs><g clip-path="url(#e9742817cc)"><g clip-path="url(#f7caa82e91)"><path fill="#b6cbe0" d="M 0.261719 0.316406 L 55.175781 0.316406 L 55.175781 59.683594 L 0.261719 59.683594 Z M 0.261719 0.316406 " fill-opacity="1" fill-rule="nonzero"/></g></g><g clip-path="url(#27e34e1870)"><g clip-path="url(#de716dfbb6)"><path fill="#000000" d="M 0.261719 0.316406 L 55.175781 0.316406 L 55.175781 59.683594 L 0.261719 59.683594 Z M 0.261719 0.316406 " fill-opacity="1" fill-rule="nonzero"/></g></g><g clip-path="url(#1d73478fe7)"><path fill="#b6cbe0" d="M 11.839844 48.09375 L 11.839844 11.902344 C 11.839844 10.273438 13.15625 8.957031 14.78125 8.957031 L 40.558594 8.957031 C 42.179688 8.957031 43.496094 10.273438 43.496094 11.902344 L 43.496094 43.105469 C 40.40625 46.207031 38.671875 47.941406 35.578125 51.042969 L 14.78125 51.042969 C 13.15625 51.042969 11.839844 49.722656 11.839844 48.09375 Z M 11.839844 48.09375 " fill-opacity="1" fill-rule="nonzero"/><path fill="#353333" d="M 35.578125 51.460938 L 14.78125 51.460938 C 12.929688 51.460938 11.421875 49.953125 11.421875 48.09375 L 11.421875 11.902344 C 11.421875 10.042969 12.929688 8.535156 14.78125 8.535156 L 40.558594 8.535156 C 42.410156 8.535156 43.917969 10.042969 43.917969 11.902344 L 43.917969 43.105469 C 43.917969 43.21875 43.875 43.324219 43.796875 43.402344 L 35.875 51.339844 C 35.796875 51.417969 35.6875 51.460938 35.578125 51.460938 Z M 14.78125 9.375 C 13.390625 9.375 12.261719 10.507812 12.261719 11.902344 L 12.261719 48.09375 C 12.261719 49.488281 13.390625 50.621094 14.78125 50.621094 L 35.402344 50.621094 L 43.078125 42.933594 L 43.078125 11.902344 C 43.078125 10.507812 41.945312 9.375 40.558594 9.375 Z M 14.78125 9.375 " fill-opacity="1" fill-rule="nonzero"/></g><g clip-path="url(#19f420fca0)"><path fill="#dbe5ee" d="M 38.519531 43.105469 L 43.496094 43.105469 C 40.40625 46.207031 38.671875 47.941406 35.578125 51.042969 L 35.578125 46.050781 C 35.578125 44.425781 36.894531 43.105469 38.519531 43.105469 Z M 38.519531 43.105469 " fill-opacity="1" fill-rule="nonzero"/></g><g clip-path="url(#77a9d66069)"><path fill="#353333" d="M 35.578125 51.460938 C 35.523438 51.460938 35.46875 51.453125 35.417969 51.429688 C 35.257812 51.363281 35.15625 51.210938 35.15625 51.042969 L 35.15625 46.050781 C 35.15625 44.195312 36.664062 42.6875 38.519531 42.6875 L 43.496094 42.6875 C 43.667969 42.6875 43.820312 42.789062 43.886719 42.945312 C 43.949219 43.101562 43.914062 43.285156 43.796875 43.402344 L 35.875 51.339844 C 35.792969 51.417969 35.6875 51.460938 35.578125 51.460938 Z M 38.519531 43.527344 C 37.128906 43.527344 35.996094 44.660156 35.996094 46.050781 L 35.996094 50.023438 L 42.484375 43.527344 Z M 38.519531 43.527344 " fill-opacity="1" fill-rule="nonzero"/></g><path fill="#353333" d="M 18.675781 17.007812 L 27.667969 17.007812 L 27.667969 17.847656 L 18.675781 17.847656 Z M 18.675781 17.007812 " fill-opacity="1" fill-rule="nonzero"/><path fill="#353333" d="M 18.675781 23.238281 L 36.660156 23.238281 L 36.660156 24.078125 L 18.675781 24.078125 Z M 18.675781 23.238281 " fill-opacity="1" fill-rule="nonzero"/><path fill="#353333" d="M 18.675781 29.46875 L 36.660156 29.46875 L 36.660156 30.308594 L 18.675781 30.308594 Z M 18.675781 29.46875 " fill-opacity="1" fill-rule="nonzero"/><path fill="#353333" d="M 18.675781 35.699219 L 36.660156 35.699219 L 36.660156 36.542969 L 18.675781 36.542969 Z M 18.675781 35.699219 " fill-opacity="1" fill-rule="nonzero"/></svg>