<svg xmlns="http://www.w3.org/2000/svg" xmlns:xlink="http://www.w3.org/1999/xlink" width="45" zoomAndPan="magnify" viewBox="0 0 33.75 44.249999" height="59" preserveAspectRatio="xMidYMid meet" version="1.0"><defs><clipPath id="6b018a4436"><path d="M 1 0.265625 L 33 0.265625 L 33 43 L 1 43 Z M 1 0.265625 " clip-rule="nonzero"/></clipPath><clipPath id="00c0332fee"><path d="M 0.703125 0.265625 L 33.152344 0.265625 L 33.152344 43.039062 L 0.703125 43.039062 Z M 0.703125 0.265625 " clip-rule="nonzero"/></clipPath><clipPath id="b7f776bf50"><path d="M 24 34 L 33.152344 34 L 33.152344 43.039062 L 24 43.039062 Z M 24 34 " clip-rule="nonzero"/></clipPath><clipPath id="db4de427c7"><path d="M 1 1 L 33 1 L 33 43.507812 L 1 43.507812 Z M 1 1 " clip-rule="nonzero"/></clipPath><clipPath id="8492a546b0"><path d="M 0.703125 0.730469 L 33.152344 0.730469 L 33.152344 43.507812 L 0.703125 43.507812 Z M 0.703125 0.730469 " clip-rule="nonzero"/></clipPath><clipPath id="e262d44a9f"><path d="M 24 35 L 33 35 L 33 43.507812 L 24 43.507812 Z M 24 35 " clip-rule="nonzero"/></clipPath><clipPath id="30e9740791"><path d="M 24 34 L 33.152344 34 L 33.152344 43.507812 L 24 43.507812 Z M 24 34 " clip-rule="nonzero"/></clipPath></defs><g clip-path="url(#6b018a4436)"><path fill="#b6cbe0" d="M 1.136719 39.6875 L 1.136719 3.621094 C 1.136719 2 2.449219 0.683594 4.066406 0.683594 L 29.753906 0.683594 C 31.371094 0.683594 32.683594 2 32.683594 3.621094 L 32.683594 34.714844 C 29.601562 37.800781 27.871094 39.535156 24.789062 42.621094 L 4.066406 42.621094 C 2.449219 42.621094 1.136719 41.308594 1.136719 39.6875 Z M 1.136719 39.6875 " fill-opacity="1" fill-rule="nonzero"/></g><g clip-path="url(#00c0332fee)"><path fill="#353333" d="M 24.789062 43.039062 L 4.066406 43.039062 C 2.222656 43.039062 0.71875 41.535156 0.71875 39.6875 L 0.71875 3.621094 C 0.71875 1.769531 2.222656 0.265625 4.066406 0.265625 L 29.753906 0.265625 C 31.597656 0.265625 33.101562 1.769531 33.101562 3.621094 L 33.101562 34.714844 C 33.101562 34.828125 33.058594 34.933594 32.976562 35.011719 L 25.085938 42.917969 C 25.007812 42.996094 24.902344 43.039062 24.789062 43.039062 Z M 4.066406 1.105469 C 2.683594 1.105469 1.554688 2.234375 1.554688 3.621094 L 1.554688 39.6875 C 1.554688 41.074219 2.683594 42.203125 4.066406 42.203125 L 24.617188 42.203125 L 32.265625 34.542969 L 32.265625 3.621094 C 32.265625 2.234375 31.136719 1.105469 29.753906 1.105469 Z M 4.066406 1.105469 " fill-opacity="1" fill-rule="nonzero"/></g><path fill="#dbe5ee" d="M 27.71875 34.714844 L 32.683594 34.714844 C 29.601562 37.800781 27.871094 39.535156 24.789062 42.621094 L 24.789062 37.652344 C 24.789062 36.027344 26.101562 34.714844 27.71875 34.714844 Z M 27.71875 34.714844 " fill-opacity="1" fill-rule="nonzero"/><g clip-path="url(#b7f776bf50)"><path fill="#353333" d="M 24.789062 43.039062 C 24.734375 43.039062 24.683594 43.03125 24.628906 43.007812 C 24.472656 42.945312 24.371094 42.789062 24.371094 42.621094 L 24.371094 37.652344 C 24.371094 35.800781 25.875 34.296875 27.71875 34.296875 L 32.683594 34.296875 C 32.851562 34.296875 33.003906 34.398438 33.070312 34.554688 C 33.132812 34.710938 33.097656 34.890625 32.976562 35.011719 L 25.085938 42.917969 C 25.007812 42.996094 24.898438 43.039062 24.789062 43.039062 Z M 27.71875 35.132812 C 26.335938 35.132812 25.207031 36.261719 25.207031 37.652344 L 25.207031 41.609375 L 31.671875 35.132812 Z M 27.71875 35.132812 " fill-opacity="1" fill-rule="nonzero"/></g><path fill="#353333" d="M 7.949219 8.707031 L 16.910156 8.707031 L 16.910156 9.546875 L 7.949219 9.546875 Z M 7.949219 8.707031 " fill-opacity="1" fill-rule="nonzero"/><path fill="#353333" d="M 7.949219 14.917969 L 25.871094 14.917969 L 25.871094 15.753906 L 7.949219 15.753906 Z M 7.949219 14.917969 " fill-opacity="1" fill-rule="nonzero"/><path fill="#353333" d="M 7.949219 21.125 L 25.871094 21.125 L 25.871094 21.964844 L 7.949219 21.964844 Z M 7.949219 21.125 " fill-opacity="1" fill-rule="nonzero"/><path fill="#353333" d="M 7.949219 27.335938 L 25.871094 27.335938 L 25.871094 28.171875 L 7.949219 28.171875 Z M 7.949219 27.335938 " fill-opacity="1" fill-rule="nonzero"/><g clip-path="url(#db4de427c7)"><path fill="#b6cbe0" d="M 1.136719 40.152344 L 1.136719 4.085938 C 1.136719 2.464844 2.449219 1.152344 4.066406 1.152344 L 29.753906 1.152344 C 31.371094 1.152344 32.683594 2.464844 32.683594 4.085938 L 32.683594 35.179688 C 29.601562 38.269531 27.871094 40 24.789062 43.085938 L 4.066406 43.085938 C 2.449219 43.085938 1.136719 41.773438 1.136719 40.152344 Z M 1.136719 40.152344 " fill-opacity="1" fill-rule="nonzero"/></g><g clip-path="url(#8492a546b0)"><path fill="#353333" d="M 24.789062 43.507812 L 4.066406 43.507812 C 2.222656 43.507812 0.71875 42 0.71875 40.152344 L 0.71875 4.085938 C 0.71875 2.234375 2.222656 0.730469 4.066406 0.730469 L 29.753906 0.730469 C 31.597656 0.730469 33.101562 2.234375 33.101562 4.085938 L 33.101562 35.179688 C 33.101562 35.292969 33.058594 35.398438 32.976562 35.476562 L 25.085938 43.382812 C 25.007812 43.460938 24.902344 43.507812 24.789062 43.507812 Z M 4.066406 1.570312 C 2.683594 1.570312 1.554688 2.699219 1.554688 4.085938 L 1.554688 40.152344 C 1.554688 41.539062 2.683594 42.667969 4.066406 42.667969 L 24.617188 42.667969 L 32.265625 35.007812 L 32.265625 4.085938 C 32.265625 2.699219 31.136719 1.570312 29.753906 1.570312 Z M 4.066406 1.570312 " fill-opacity="1" fill-rule="nonzero"/></g><g clip-path="url(#e262d44a9f)"><path fill="#dbe5ee" d="M 27.71875 35.179688 L 32.683594 35.179688 C 29.601562 38.269531 27.871094 40 24.789062 43.085938 L 24.789062 38.117188 C 24.789062 36.496094 26.101562 35.179688 27.71875 35.179688 Z M 27.71875 35.179688 " fill-opacity="1" fill-rule="nonzero"/></g><g clip-path="url(#30e9740791)"><path fill="#353333" d="M 24.789062 43.507812 C 24.734375 43.507812 24.683594 43.496094 24.628906 43.472656 C 24.472656 43.410156 24.371094 43.257812 24.371094 43.085938 L 24.371094 38.117188 C 24.371094 36.265625 25.875 34.761719 27.71875 34.761719 L 32.683594 34.761719 C 32.851562 34.761719 33.003906 34.863281 33.070312 35.019531 C 33.132812 35.175781 33.097656 35.355469 32.976562 35.476562 L 25.085938 43.382812 C 25.007812 43.464844 24.898438 43.507812 24.789062 43.507812 Z M 27.71875 35.601562 C 26.335938 35.601562 25.207031 36.726562 25.207031 38.117188 L 25.207031 42.074219 L 31.671875 35.601562 Z M 27.71875 35.601562 " fill-opacity="1" fill-rule="nonzero"/></g><path fill="#353333" d="M 7.949219 9.171875 L 16.910156 9.171875 L 16.910156 10.011719 L 7.949219 10.011719 Z M 7.949219 9.171875 " fill-opacity="1" fill-rule="nonzero"/><path fill="#353333" d="M 7.949219 15.382812 L 25.871094 15.382812 L 25.871094 16.21875 L 7.949219 16.21875 Z M 7.949219 15.382812 " fill-opacity="1" fill-rule="nonzero"/><path fill="#353333" d="M 7.949219 21.589844 L 25.871094 21.589844 L 25.871094 22.429688 L 7.949219 22.429688 Z M 7.949219 21.589844 " fill-opacity="1" fill-rule="nonzero"/><path fill="#353333" d="M 7.949219 27.800781 L 25.871094 27.800781 L 25.871094 28.640625 L 7.949219 28.640625 Z M 7.949219 27.800781 " fill-opacity="1" fill-rule="nonzero"/></svg>