<svg xmlns="http://www.w3.org/2000/svg" xmlns:xlink="http://www.w3.org/1999/xlink" width="53" zoomAndPan="magnify" viewBox="0 0 39.75 44.999999" height="60" preserveAspectRatio="xMidYMid meet" version="1.0"><defs><clipPath id="1ae2fbae8a"><path d="M 25 10.65625 L 30.253906 10.65625 L 30.253906 16 L 25 16 Z M 25 10.65625 " clip-rule="nonzero"/></clipPath><clipPath id="c1a5851a58"><path d="M 12 10.65625 L 30.253906 10.65625 L 30.253906 34.503906 L 12 34.503906 Z M 12 10.65625 " clip-rule="nonzero"/></clipPath><clipPath id="74a228a90e"><path d="M 26 15 L 30.253906 15 L 30.253906 17 L 26 17 Z M 26 15 " clip-rule="nonzero"/></clipPath><clipPath id="b4ef84ef45"><path d="M 9.382812 11 L 24 11 L 24 18 L 9.382812 18 Z M 9.382812 11 " clip-rule="nonzero"/></clipPath><clipPath id="f905c2e3a4"><path d="M 30 0.65625 L 39.289062 0.65625 L 39.289062 10 L 30 10 Z M 30 0.65625 " clip-rule="nonzero"/></clipPath><clipPath id="8b7c75bb71"><path d="M 6 0.65625 L 39.289062 0.65625 L 39.289062 44.632812 L 6 44.632812 Z M 6 0.65625 " clip-rule="nonzero"/></clipPath><clipPath id="9a18a70d58"><path d="M 31 9 L 39.289062 9 L 39.289062 11 L 31 11 Z M 31 9 " clip-rule="nonzero"/></clipPath><clipPath id="6854ca7a9c"><path d="M 0.53125 2 L 27 2 L 27 15 L 0.53125 15 Z M 0.53125 2 " clip-rule="nonzero"/></clipPath></defs><g clip-path="url(#1ae2fbae8a)"><path fill="#59caff" d="M 25.613281 10.65625 L 30.25 15.269531 L 25.613281 15.269531 Z M 25.613281 10.65625 " fill-opacity="1" fill-rule="nonzero"/></g><g clip-path="url(#c1a5851a58)"><path fill="#0096dc" d="M 30.25 15.269531 L 30.25 34.503906 L 12.476562 34.503906 L 12.476562 10.65625 L 25.613281 10.65625 L 25.613281 15.269531 Z M 30.25 15.269531 " fill-opacity="1" fill-rule="nonzero"/></g><path fill="#006bc0" d="M 13.25 13.730469 L 13.25 32.195312 C 13.25 32.402344 13.289062 32.597656 13.367188 32.785156 C 13.445312 32.972656 13.558594 33.140625 13.703125 33.285156 C 13.847656 33.429688 14.015625 33.539062 14.203125 33.617188 C 14.394531 33.695312 14.589844 33.734375 14.792969 33.734375 L 27.933594 33.734375 C 28.136719 33.734375 28.335938 33.695312 28.523438 33.617188 C 28.714844 33.539062 28.878906 33.429688 29.023438 33.285156 C 29.171875 33.140625 29.28125 32.972656 29.359375 32.785156 C 29.4375 32.597656 29.476562 32.402344 29.476562 32.195312 L 29.476562 31.378906 C 13.25 30.382812 13.25 13.730469 13.25 13.730469 Z M 13.25 13.730469 " fill-opacity="1" fill-rule="nonzero"/><g clip-path="url(#74a228a90e)"><path fill="#005599" d="M 26 15.269531 L 30.25 15.269531 L 30.25 16.039062 L 26 16.039062 Z M 26 15.269531 " fill-opacity="1" fill-rule="nonzero"/></g><g clip-path="url(#b4ef84ef45)"><path fill="#006bc0" d="M 9.386719 11.808594 L 23.296875 11.808594 L 23.296875 17.964844 L 9.386719 17.964844 Z M 9.386719 11.808594 " fill-opacity="1" fill-rule="nonzero"/></g><path fill="#005599" d="M 12.476562 17.964844 L 22.523438 17.964844 L 22.523438 19.117188 L 12.476562 19.117188 Z M 12.476562 17.964844 " fill-opacity="1" fill-rule="nonzero"/><path fill="#ffffff" d="M 18.660156 30.273438 L 18.273438 30.273438 C 18.015625 30.273438 17.769531 30.222656 17.535156 30.125 C 17.296875 30.027344 17.089844 29.890625 16.90625 29.710938 C 16.726562 29.527344 16.585938 29.320312 16.488281 29.085938 C 16.390625 28.851562 16.339844 28.605469 16.339844 28.351562 L 16.339844 27.195312 C 16.324219 27.144531 16.242188 27.097656 16.183594 27.0625 C 15.996094 26.964844 15.828125 26.84375 15.679688 26.699219 C 15.605469 26.625 15.566406 26.53125 15.566406 26.425781 C 15.566406 26.320312 15.605469 26.230469 15.679688 26.15625 C 15.828125 26.007812 15.996094 25.886719 16.183594 25.789062 C 16.238281 25.757812 16.289062 25.726562 16.339844 25.6875 L 16.339844 24.503906 C 16.339844 24.25 16.390625 24.003906 16.488281 23.765625 C 16.585938 23.53125 16.726562 23.324219 16.90625 23.144531 C 17.089844 22.964844 17.296875 22.824219 17.535156 22.726562 C 17.769531 22.628906 18.015625 22.578125 18.273438 22.578125 L 18.660156 22.578125 L 18.660156 23.347656 L 18.273438 23.347656 C 18.117188 23.347656 17.972656 23.378906 17.828125 23.4375 C 17.6875 23.496094 17.5625 23.578125 17.453125 23.6875 C 17.34375 23.796875 17.261719 23.921875 17.203125 24.0625 C 17.144531 24.203125 17.113281 24.351562 17.113281 24.503906 L 17.113281 25.65625 C 17.113281 26.019531 16.949219 26.277344 16.617188 26.425781 C 16.949219 26.578125 17.113281 26.832031 17.113281 27.195312 L 17.113281 28.351562 C 17.113281 28.503906 17.144531 28.648438 17.203125 28.792969 C 17.261719 28.933594 17.34375 29.058594 17.453125 29.164062 C 17.5625 29.273438 17.6875 29.359375 17.828125 29.417969 C 17.972656 29.472656 18.117188 29.503906 18.273438 29.503906 L 18.660156 29.503906 Z M 18.660156 30.273438 " fill-opacity="1" fill-rule="nonzero"/><path fill="#ffffff" d="M 24.453125 30.273438 L 24.070312 30.273438 L 24.070312 29.503906 L 24.453125 29.503906 C 24.609375 29.503906 24.757812 29.472656 24.898438 29.417969 C 25.039062 29.359375 25.164062 29.273438 25.273438 29.164062 C 25.382812 29.058594 25.46875 28.933594 25.527344 28.792969 C 25.585938 28.648438 25.613281 28.503906 25.613281 28.351562 L 25.613281 27.195312 C 25.613281 26.832031 25.777344 26.578125 26.109375 26.425781 C 25.777344 26.277344 25.613281 26.019531 25.613281 25.65625 L 25.613281 24.503906 C 25.613281 24.351562 25.585938 24.203125 25.527344 24.0625 C 25.46875 23.921875 25.382812 23.796875 25.273438 23.6875 C 25.164062 23.578125 25.039062 23.496094 24.898438 23.4375 C 24.757812 23.378906 24.609375 23.347656 24.453125 23.347656 L 24.070312 23.347656 L 24.070312 22.578125 L 24.453125 22.578125 C 24.710938 22.578125 24.957031 22.628906 25.195312 22.726562 C 25.429688 22.824219 25.640625 22.964844 25.820312 23.144531 C 26 23.324219 26.140625 23.53125 26.238281 23.765625 C 26.335938 24.003906 26.386719 24.25 26.386719 24.503906 L 26.386719 25.65625 C 26.402344 25.707031 26.484375 25.753906 26.546875 25.789062 C 26.730469 25.886719 26.898438 26.007812 27.046875 26.15625 C 27.121094 26.230469 27.160156 26.320312 27.160156 26.425781 C 27.160156 26.53125 27.121094 26.625 27.046875 26.699219 C 26.898438 26.84375 26.730469 26.964844 26.546875 27.0625 C 26.488281 27.09375 26.433594 27.128906 26.386719 27.167969 L 26.386719 28.351562 C 26.386719 28.605469 26.335938 28.851562 26.238281 29.085938 C 26.140625 29.320312 26 29.527344 25.820312 29.710938 C 25.640625 29.890625 25.429688 30.027344 25.195312 30.125 C 24.957031 30.222656 24.710938 30.273438 24.453125 30.273438 Z M 24.453125 30.273438 " fill-opacity="1" fill-rule="nonzero"/><path fill="#005599" d="M 25.613281 29.886719 C 25.226562 30.402344 24.710938 30.65625 24.070312 30.65625 L 23.683594 30.65625 L 23.683594 29.886719 L 24.070312 29.886719 L 24.070312 30.273438 L 24.453125 30.273438 C 24.882812 30.273438 25.269531 30.148438 25.613281 29.886719 Z M 25.613281 29.886719 " fill-opacity="1" fill-rule="nonzero"/><path fill="#005599" d="M 25.695312 26.828125 C 25.636719 26.941406 25.609375 27.066406 25.613281 27.195312 L 25.613281 28.351562 C 25.613281 28.78125 25.425781 29.109375 25.058594 29.335938 C 25.171875 29.152344 25.226562 28.949219 25.226562 28.734375 L 25.226562 27.582031 C 25.222656 27.230469 25.378906 26.980469 25.695312 26.828125 Z M 25.695312 26.828125 " fill-opacity="1" fill-rule="nonzero"/><path fill="#005599" d="M 26.75 26.9375 C 26.734375 26.996094 26.703125 27.042969 26.660156 27.085938 C 26.578125 27.167969 26.484375 27.242188 26.386719 27.3125 L 26.386719 27.167969 C 26.4375 27.128906 26.488281 27.09375 26.546875 27.066406 C 26.617188 27.027344 26.683594 26.984375 26.75 26.9375 Z M 26.75 26.9375 " fill-opacity="1" fill-rule="nonzero"/><path fill="#005599" d="M 26.109375 26.425781 C 25.9375 26.515625 25.804688 26.640625 25.707031 26.804688 C 25.386719 26.648438 25.226562 26.394531 25.226562 26.042969 L 25.226562 24.886719 C 25.226562 24.734375 25.199219 24.585938 25.136719 24.445312 C 25.078125 24.304688 24.996094 24.179688 24.886719 24.074219 C 24.777344 23.964844 24.652344 23.882812 24.511719 23.824219 C 24.371094 23.765625 24.222656 23.734375 24.070312 23.734375 L 23.683594 23.734375 L 23.683594 22.964844 L 24.070312 22.964844 L 24.070312 23.347656 L 24.453125 23.347656 C 24.609375 23.347656 24.757812 23.378906 24.898438 23.4375 C 25.039062 23.496094 25.164062 23.578125 25.273438 23.6875 C 25.382812 23.796875 25.464844 23.921875 25.523438 24.0625 C 25.582031 24.203125 25.613281 24.351562 25.613281 24.503906 L 25.613281 25.65625 C 25.613281 26.019531 25.777344 26.277344 26.109375 26.425781 Z M 26.109375 26.425781 " fill-opacity="1" fill-rule="nonzero"/><path fill="#005599" d="M 18.273438 30.273438 L 18.273438 30.65625 L 17.886719 30.65625 C 17.628906 30.65625 17.382812 30.609375 17.148438 30.511719 C 16.910156 30.414062 16.699219 30.273438 16.519531 30.09375 C 16.339844 29.914062 16.199219 29.707031 16.101562 29.46875 C 16.003906 29.234375 15.953125 28.988281 15.953125 28.734375 L 15.953125 27.582031 C 15.9375 27.53125 15.851562 27.484375 15.796875 27.449219 C 15.613281 27.351562 15.445312 27.226562 15.292969 27.085938 C 15.21875 27.007812 15.179688 26.917969 15.179688 26.8125 C 15.179688 26.703125 15.21875 26.613281 15.292969 26.539062 C 15.386719 26.449219 15.484375 26.371094 15.589844 26.300781 C 15.535156 26.453125 15.5625 26.585938 15.679688 26.699219 C 15.832031 26.84375 16 26.964844 16.183594 27.066406 C 16.238281 27.101562 16.324219 27.144531 16.339844 27.195312 L 16.339844 28.351562 C 16.339844 28.605469 16.390625 28.851562 16.488281 29.085938 C 16.585938 29.320312 16.726562 29.53125 16.90625 29.710938 C 17.085938 29.890625 17.296875 30.027344 17.53125 30.125 C 17.769531 30.222656 18.015625 30.273438 18.273438 30.273438 Z M 18.273438 30.273438 " fill-opacity="1" fill-rule="nonzero"/><path fill="#005599" d="M 16.726562 23.347656 C 16.46875 23.691406 16.339844 24.074219 16.339844 24.503906 L 16.339844 25.683594 C 16.292969 25.722656 16.238281 25.757812 16.183594 25.789062 C 16.117188 25.828125 16.039062 25.871094 15.953125 25.925781 L 15.953125 24.886719 C 15.953125 24.246094 16.210938 23.734375 16.726562 23.347656 Z M 16.726562 23.347656 " fill-opacity="1" fill-rule="nonzero"/><path fill="#005599" d="M 18.273438 23.347656 L 18.273438 23.734375 L 17.886719 23.734375 C 17.667969 23.734375 17.46875 23.789062 17.28125 23.902344 C 17.507812 23.535156 17.839844 23.351562 18.273438 23.347656 Z M 18.273438 23.347656 " fill-opacity="1" fill-rule="nonzero"/><path fill="#ffffff" d="M 15.953125 16.808594 C 14.730469 16.808594 14.410156 16.054688 14.410156 15.65625 L 14.792969 15.65625 L 15.179688 15.644531 C 15.1875 15.710938 15.242188 16.039062 15.953125 16.039062 C 16.0625 16.039062 16.152344 16.003906 16.226562 15.925781 C 16.300781 15.851562 16.339844 15.761719 16.339844 15.65625 C 16.339844 15.550781 16.300781 15.457031 16.226562 15.382812 C 16.152344 15.308594 16.0625 15.269531 15.953125 15.269531 L 15.566406 15.269531 C 15.414062 15.269531 15.265625 15.242188 15.125 15.183594 C 14.980469 15.125 14.855469 15.039062 14.746094 14.933594 C 14.640625 14.824219 14.554688 14.699219 14.496094 14.558594 C 14.4375 14.417969 14.410156 14.269531 14.410156 14.117188 C 14.410156 13.964844 14.4375 13.816406 14.496094 13.675781 C 14.554688 13.535156 14.640625 13.410156 14.746094 13.300781 C 14.855469 13.191406 14.980469 13.109375 15.125 13.050781 C 15.265625 12.992188 15.414062 12.960938 15.566406 12.960938 C 16.789062 12.960938 17.113281 13.71875 17.113281 14.117188 L 16.339844 14.117188 C 16.335938 14.0625 16.277344 13.730469 15.566406 13.730469 C 15.460938 13.730469 15.371094 13.769531 15.292969 13.84375 C 15.21875 13.917969 15.179688 14.011719 15.179688 14.117188 C 15.179688 14.222656 15.21875 14.3125 15.292969 14.390625 C 15.371094 14.464844 15.460938 14.5 15.566406 14.5 L 15.953125 14.5 C 16.109375 14.5 16.253906 14.53125 16.398438 14.589844 C 16.539062 14.648438 16.664062 14.730469 16.773438 14.839844 C 16.882812 14.949219 16.964844 15.074219 17.023438 15.214844 C 17.082031 15.355469 17.113281 15.503906 17.113281 15.65625 C 17.113281 15.808594 17.082031 15.957031 17.023438 16.097656 C 16.964844 16.238281 16.882812 16.363281 16.773438 16.472656 C 16.664062 16.578125 16.539062 16.664062 16.398438 16.722656 C 16.253906 16.78125 16.109375 16.808594 15.953125 16.808594 Z M 15.953125 16.808594 " fill-opacity="1" fill-rule="nonzero"/><path fill="#08449e" d="M 16.558594 16.640625 C 16.332031 17.007812 16 17.191406 15.566406 17.195312 C 14.347656 17.195312 14.023438 16.441406 14.023438 16.039062 L 14.492188 16.039062 C 14.652344 16.410156 15.066406 16.808594 15.953125 16.808594 C 16.171875 16.808594 16.371094 16.753906 16.558594 16.640625 Z M 16.558594 16.640625 " fill-opacity="1" fill-rule="nonzero"/><path fill="#08449e" d="M 16.339844 15.65625 C 16.339844 15.761719 16.300781 15.851562 16.226562 15.925781 C 16.152344 16.003906 16.0625 16.039062 15.953125 16.039062 C 15.953125 15.933594 15.917969 15.84375 15.839844 15.769531 C 15.765625 15.691406 15.675781 15.65625 15.566406 15.65625 L 15.179688 15.65625 L 15.179688 15.644531 L 15.066406 15.648438 L 15.0625 15.648438 C 14.816406 15.621094 14.597656 15.527344 14.414062 15.363281 C 14.226562 15.199219 14.109375 14.996094 14.054688 14.753906 C 14 14.511719 14.019531 14.277344 14.117188 14.050781 C 14.214844 13.824219 14.367188 13.644531 14.578125 13.515625 C 14.34375 13.902344 14.335938 14.289062 14.558594 14.683594 C 14.777344 15.074219 15.117188 15.269531 15.566406 15.269531 L 15.953125 15.269531 C 16.0625 15.269531 16.152344 15.308594 16.226562 15.382812 C 16.300781 15.457031 16.339844 15.550781 16.339844 15.65625 Z M 16.339844 15.65625 " fill-opacity="1" fill-rule="nonzero"/><path fill="#08449e" d="M 16.726562 14.5 L 15.953125 14.5 C 15.949219 14.449219 15.890625 14.117188 15.179688 14.117188 C 15.179688 14.011719 15.21875 13.917969 15.292969 13.84375 C 15.371094 13.769531 15.460938 13.730469 15.566406 13.730469 C 16.277344 13.730469 16.335938 14.0625 16.339844 14.117188 L 16.640625 14.117188 C 16.695312 14.238281 16.726562 14.367188 16.726562 14.5 Z M 16.726562 14.5 " fill-opacity="1" fill-rule="nonzero"/><path fill="#ffffff" d="M 19.429688 16.808594 C 18.210938 16.808594 17.886719 16.054688 17.886719 15.65625 L 18.273438 15.65625 L 18.660156 15.644531 C 18.664062 15.710938 18.71875 16.039062 19.429688 16.039062 C 19.539062 16.039062 19.628906 16.003906 19.703125 15.925781 C 19.78125 15.851562 19.816406 15.761719 19.816406 15.65625 C 19.816406 15.550781 19.78125 15.457031 19.703125 15.382812 C 19.628906 15.308594 19.539062 15.269531 19.429688 15.269531 L 19.046875 15.269531 C 18.890625 15.269531 18.742188 15.242188 18.601562 15.183594 C 18.460938 15.125 18.335938 15.039062 18.226562 14.933594 C 18.117188 14.824219 18.03125 14.699219 17.972656 14.558594 C 17.914062 14.417969 17.886719 14.269531 17.886719 14.117188 C 17.886719 13.964844 17.914062 13.816406 17.972656 13.675781 C 18.03125 13.535156 18.117188 13.410156 18.226562 13.300781 C 18.335938 13.191406 18.460938 13.109375 18.601562 13.050781 C 18.742188 12.992188 18.890625 12.960938 19.046875 12.960938 C 20.269531 12.960938 20.589844 13.71875 20.589844 14.117188 L 19.816406 14.117188 C 19.8125 14.0625 19.757812 13.730469 19.046875 13.730469 C 18.9375 13.730469 18.847656 13.769531 18.773438 13.84375 C 18.695312 13.917969 18.660156 14.011719 18.660156 14.117188 C 18.660156 14.222656 18.695312 14.3125 18.773438 14.390625 C 18.847656 14.464844 18.9375 14.5 19.046875 14.5 L 19.429688 14.5 C 19.585938 14.5 19.734375 14.53125 19.875 14.589844 C 20.015625 14.648438 20.140625 14.730469 20.25 14.839844 C 20.359375 14.949219 20.445312 15.074219 20.503906 15.214844 C 20.5625 15.355469 20.589844 15.503906 20.589844 15.65625 C 20.589844 15.808594 20.5625 15.957031 20.503906 16.097656 C 20.445312 16.238281 20.359375 16.363281 20.25 16.472656 C 20.140625 16.578125 20.015625 16.664062 19.875 16.722656 C 19.734375 16.78125 19.585938 16.808594 19.429688 16.808594 Z M 19.429688 16.808594 " fill-opacity="1" fill-rule="nonzero"/><path fill="#08449e" d="M 20.035156 16.640625 C 19.808594 17.007812 19.476562 17.191406 19.046875 17.195312 C 17.824219 17.195312 17.5 16.441406 17.5 16.039062 L 17.972656 16.039062 C 18.128906 16.410156 18.542969 16.808594 19.429688 16.808594 C 19.648438 16.808594 19.847656 16.753906 20.035156 16.640625 Z M 20.035156 16.640625 " fill-opacity="1" fill-rule="nonzero"/><path fill="#08449e" d="M 19.816406 15.65625 C 19.816406 15.761719 19.78125 15.851562 19.703125 15.925781 C 19.628906 16.003906 19.539062 16.039062 19.429688 16.039062 C 19.429688 15.933594 19.394531 15.84375 19.320312 15.769531 C 19.242188 15.691406 19.152344 15.65625 19.046875 15.65625 L 18.660156 15.65625 L 18.660156 15.644531 L 18.542969 15.648438 L 18.539062 15.648438 C 18.292969 15.621094 18.078125 15.527344 17.890625 15.363281 C 17.707031 15.199219 17.585938 14.996094 17.53125 14.753906 C 17.476562 14.511719 17.496094 14.277344 17.59375 14.050781 C 17.691406 13.824219 17.84375 13.644531 18.054688 13.515625 C 17.820312 13.902344 17.8125 14.289062 18.035156 14.683594 C 18.257812 15.074219 18.59375 15.269531 19.046875 15.269531 L 19.429688 15.269531 C 19.539062 15.269531 19.628906 15.308594 19.703125 15.382812 C 19.78125 15.457031 19.816406 15.550781 19.816406 15.65625 Z M 19.816406 15.65625 " fill-opacity="1" fill-rule="nonzero"/><path fill="#08449e" d="M 20.203125 14.5 L 19.429688 14.5 C 19.425781 14.449219 19.371094 14.117188 18.660156 14.117188 C 18.660156 14.011719 18.695312 13.917969 18.773438 13.84375 C 18.847656 13.769531 18.9375 13.730469 19.046875 13.730469 C 19.757812 13.730469 19.8125 14.0625 19.816406 14.117188 L 20.121094 14.117188 C 20.175781 14.238281 20.203125 14.367188 20.203125 14.5 Z M 20.203125 14.5 " fill-opacity="1" fill-rule="nonzero"/><path fill="#f2f2f2" d="M 13.636719 16.808594 L 13.25 16.808594 C 12.992188 16.808594 12.746094 16.761719 12.511719 16.664062 C 12.273438 16.566406 12.0625 16.425781 11.882812 16.246094 C 11.703125 16.066406 11.5625 15.859375 11.464844 15.621094 C 11.367188 15.386719 11.316406 15.140625 11.316406 14.886719 C 11.316406 14.632812 11.367188 14.386719 11.464844 14.148438 C 11.5625 13.914062 11.703125 13.707031 11.882812 13.527344 C 12.0625 13.347656 12.273438 13.207031 12.511719 13.109375 C 12.746094 13.011719 12.992188 12.960938 13.25 12.960938 L 13.636719 12.960938 L 13.636719 13.730469 L 13.25 13.730469 C 13.09375 13.730469 12.949219 13.761719 12.804688 13.820312 C 12.664062 13.878906 12.539062 13.960938 12.429688 14.070312 C 12.320312 14.179688 12.238281 14.304688 12.179688 14.445312 C 12.121094 14.585938 12.089844 14.734375 12.089844 14.886719 C 12.089844 15.039062 12.121094 15.1875 12.179688 15.328125 C 12.238281 15.46875 12.320312 15.59375 12.429688 15.703125 C 12.539062 15.808594 12.664062 15.894531 12.804688 15.953125 C 12.949219 16.011719 13.09375 16.039062 13.25 16.039062 L 13.636719 16.039062 Z M 13.636719 16.808594 " fill-opacity="1" fill-rule="nonzero"/><path fill="#08449e" d="M 13.25 16.808594 L 13.25 17.195312 L 12.863281 17.195312 C 12.445312 17.195312 12.070312 17.074219 11.734375 16.832031 C 11.394531 16.589844 11.160156 16.273438 11.03125 15.878906 C 10.898438 15.488281 10.894531 15.09375 11.019531 14.699219 C 11.144531 14.300781 11.371094 13.980469 11.703125 13.730469 C 11.445312 14.074219 11.316406 14.457031 11.316406 14.886719 C 11.316406 15.140625 11.367188 15.386719 11.464844 15.621094 C 11.5625 15.859375 11.703125 16.066406 11.882812 16.246094 C 12.0625 16.425781 12.273438 16.566406 12.511719 16.664062 C 12.746094 16.761719 12.992188 16.808594 13.25 16.808594 Z M 13.25 16.808594 " fill-opacity="1" fill-rule="nonzero"/><path fill="#08449e" d="M 13.25 13.730469 L 13.25 14.117188 L 12.863281 14.117188 C 12.644531 14.117188 12.445312 14.171875 12.261719 14.285156 C 12.484375 13.917969 12.816406 13.734375 13.25 13.730469 Z M 13.25 13.730469 " fill-opacity="1" fill-rule="nonzero"/><g clip-path="url(#f905c2e3a4)"><path fill="#59caff" d="M 30.671875 0.65625 L 39.28125 9.167969 L 30.671875 9.167969 Z M 30.671875 0.65625 " fill-opacity="1" fill-rule="nonzero"/></g><g clip-path="url(#8b7c75bb71)"><path fill="#0096dc" d="M 39.28125 9.167969 L 39.28125 44.632812 L 6.277344 44.632812 L 6.277344 0.65625 L 30.671875 0.65625 L 30.671875 9.167969 Z M 39.28125 9.167969 " fill-opacity="1" fill-rule="nonzero"/></g><path fill="#006bc0" d="M 7.714844 6.332031 L 7.714844 40.375 C 7.714844 40.753906 7.785156 41.113281 7.933594 41.460938 C 8.078125 41.808594 8.285156 42.117188 8.554688 42.382812 C 8.824219 42.648438 9.132812 42.851562 9.484375 42.996094 C 9.835938 43.140625 10.203125 43.214844 10.582031 43.214844 L 34.976562 43.214844 C 35.355469 43.214844 35.722656 43.140625 36.074219 42.996094 C 36.425781 42.851562 36.734375 42.648438 37.003906 42.382812 C 37.273438 42.117188 37.480469 41.808594 37.628906 41.460938 C 37.773438 41.113281 37.84375 40.753906 37.84375 40.375 L 37.84375 38.871094 C 7.714844 37.035156 7.714844 6.332031 7.714844 6.332031 Z M 7.714844 6.332031 " fill-opacity="1" fill-rule="nonzero"/><g clip-path="url(#9a18a70d58)"><path fill="#005599" d="M 31.390625 9.167969 L 39.28125 9.167969 L 39.28125 10.585938 L 31.390625 10.585938 Z M 31.390625 9.167969 " fill-opacity="1" fill-rule="nonzero"/></g><g clip-path="url(#6854ca7a9c)"><path fill="#006bc0" d="M 0.539062 2.785156 L 26.367188 2.785156 L 26.367188 14.132812 L 0.539062 14.132812 Z M 0.539062 2.785156 " fill-opacity="1" fill-rule="nonzero"/></g><path fill="#005599" d="M 6.277344 14.132812 L 24.933594 14.132812 L 24.933594 16.261719 L 6.277344 16.261719 Z M 6.277344 14.132812 " fill-opacity="1" fill-rule="nonzero"/><path fill="#ffffff" d="M 17.757812 36.828125 L 17.039062 36.828125 C 16.566406 36.828125 16.105469 36.738281 15.667969 36.558594 C 15.230469 36.378906 14.839844 36.121094 14.503906 35.789062 C 14.167969 35.457031 13.910156 35.074219 13.726562 34.640625 C 13.546875 34.207031 13.453125 33.753906 13.453125 33.285156 L 13.453125 31.15625 C 13.421875 31.0625 13.269531 30.976562 13.160156 30.914062 C 12.816406 30.730469 12.503906 30.507812 12.226562 30.238281 C 12.085938 30.101562 12.015625 29.933594 12.015625 29.738281 C 12.015625 29.542969 12.085938 29.375 12.226562 29.234375 C 12.503906 28.96875 12.816406 28.742188 13.160156 28.5625 C 13.261719 28.507812 13.359375 28.445312 13.453125 28.371094 L 13.453125 26.191406 C 13.453125 25.722656 13.546875 25.269531 13.726562 24.835938 C 13.910156 24.402344 14.167969 24.015625 14.503906 23.683594 C 14.839844 23.351562 15.230469 23.097656 15.667969 22.914062 C 16.105469 22.734375 16.566406 22.644531 17.039062 22.644531 L 17.757812 22.644531 L 17.757812 24.0625 L 17.039062 24.0625 C 16.753906 24.0625 16.480469 24.117188 16.214844 24.226562 C 15.953125 24.332031 15.71875 24.488281 15.519531 24.6875 C 15.316406 24.886719 15.160156 25.117188 15.050781 25.375 C 14.941406 25.636719 14.886719 25.910156 14.886719 26.191406 L 14.886719 28.320312 C 14.890625 28.625 14.804688 28.90625 14.640625 29.160156 C 14.472656 29.417969 14.25 29.609375 13.96875 29.738281 C 14.25 29.863281 14.472656 30.054688 14.640625 30.3125 C 14.804688 30.570312 14.890625 30.851562 14.886719 31.15625 L 14.886719 33.285156 C 14.886719 33.566406 14.941406 33.835938 15.050781 34.097656 C 15.160156 34.359375 15.316406 34.589844 15.519531 34.789062 C 15.71875 34.988281 15.953125 35.140625 16.214844 35.25 C 16.480469 35.355469 16.753906 35.410156 17.039062 35.410156 L 17.757812 35.410156 Z M 17.757812 36.828125 " fill-opacity="1" fill-rule="nonzero"/><path fill="#ffffff" d="M 28.519531 36.828125 L 27.800781 36.828125 L 27.800781 35.410156 L 28.519531 35.410156 C 28.804688 35.410156 29.078125 35.355469 29.34375 35.25 C 29.605469 35.140625 29.839844 34.988281 30.039062 34.789062 C 30.242188 34.589844 30.398438 34.359375 30.507812 34.097656 C 30.617188 33.835938 30.671875 33.566406 30.671875 33.285156 L 30.671875 31.15625 C 30.671875 30.851562 30.753906 30.570312 30.917969 30.3125 C 31.085938 30.054688 31.308594 29.863281 31.589844 29.738281 C 31.308594 29.609375 31.085938 29.417969 30.917969 29.160156 C 30.753906 28.90625 30.671875 28.625 30.671875 28.320312 L 30.671875 26.191406 C 30.671875 25.910156 30.617188 25.636719 30.507812 25.375 C 30.398438 25.117188 30.242188 24.886719 30.039062 24.6875 C 29.839844 24.488281 29.605469 24.332031 29.34375 24.226562 C 29.078125 24.117188 28.804688 24.0625 28.519531 24.0625 L 27.800781 24.0625 L 27.800781 22.644531 L 28.519531 22.644531 C 28.996094 22.644531 29.453125 22.734375 29.890625 22.914062 C 30.332031 23.097656 30.71875 23.351562 31.054688 23.683594 C 31.390625 24.015625 31.648438 24.402344 31.832031 24.835938 C 32.015625 25.269531 32.105469 25.722656 32.105469 26.191406 L 32.105469 28.320312 C 32.136719 28.410156 32.289062 28.5 32.398438 28.5625 C 32.742188 28.742188 33.054688 28.96875 33.332031 29.234375 C 33.472656 29.375 33.542969 29.542969 33.542969 29.738281 C 33.542969 29.933594 33.472656 30.101562 33.332031 30.238281 C 33.054688 30.507812 32.742188 30.730469 32.398438 30.914062 C 32.296875 30.964844 32.195312 31.03125 32.105469 31.101562 L 32.105469 33.285156 C 32.105469 33.753906 32.015625 34.207031 31.832031 34.640625 C 31.648438 35.074219 31.390625 35.457031 31.054688 35.789062 C 30.71875 36.121094 30.332031 36.378906 29.890625 36.558594 C 29.453125 36.738281 28.996094 36.828125 28.519531 36.828125 Z M 28.519531 36.828125 " fill-opacity="1" fill-rule="nonzero"/><path fill="#005599" d="M 30.671875 36.121094 C 30.332031 36.566406 29.910156 36.914062 29.40625 37.164062 C 28.902344 37.414062 28.367188 37.539062 27.800781 37.539062 L 27.085938 37.539062 L 27.085938 36.121094 L 27.800781 36.121094 L 27.800781 36.828125 L 28.519531 36.828125 C 29.316406 36.832031 30.035156 36.597656 30.671875 36.121094 Z M 30.671875 36.121094 " fill-opacity="1" fill-rule="nonzero"/><path fill="#005599" d="M 30.820312 30.476562 C 30.714844 30.691406 30.667969 30.917969 30.671875 31.15625 L 30.671875 33.285156 C 30.671875 33.652344 30.578125 34 30.394531 34.324219 C 30.210938 34.648438 29.957031 34.90625 29.636719 35.097656 C 29.847656 34.761719 29.953125 34.390625 29.953125 33.992188 L 29.953125 31.863281 C 29.949219 31.570312 30.027344 31.296875 30.183594 31.046875 C 30.339844 30.792969 30.554688 30.605469 30.820312 30.476562 Z M 30.820312 30.476562 " fill-opacity="1" fill-rule="nonzero"/><path fill="#005599" d="M 32.78125 30.679688 C 32.75 30.785156 32.695312 30.875 32.617188 30.949219 C 32.457031 31.105469 32.289062 31.246094 32.105469 31.367188 L 32.105469 31.105469 C 32.195312 31.03125 32.296875 30.96875 32.398438 30.914062 C 32.53125 30.84375 32.660156 30.765625 32.78125 30.679688 Z M 32.78125 30.679688 " fill-opacity="1" fill-rule="nonzero"/><path fill="#005599" d="M 31.589844 29.738281 C 31.273438 29.898438 31.023438 30.128906 30.84375 30.433594 C 30.570312 30.300781 30.355469 30.109375 30.191406 29.855469 C 30.03125 29.605469 29.953125 29.328125 29.953125 29.027344 L 29.953125 26.898438 C 29.953125 26.617188 29.898438 26.347656 29.789062 26.085938 C 29.679688 25.828125 29.523438 25.597656 29.320312 25.398438 C 29.121094 25.199219 28.886719 25.042969 28.625 24.9375 C 28.359375 24.828125 28.085938 24.773438 27.800781 24.773438 L 27.085938 24.773438 L 27.085938 23.355469 L 27.800781 23.355469 L 27.800781 24.0625 L 28.519531 24.0625 C 28.804688 24.0625 29.078125 24.117188 29.339844 24.226562 C 29.605469 24.335938 29.835938 24.488281 30.039062 24.6875 C 30.242188 24.886719 30.394531 25.117188 30.503906 25.378906 C 30.617188 25.636719 30.671875 25.910156 30.671875 26.191406 L 30.671875 28.320312 C 30.671875 28.625 30.753906 28.90625 30.917969 29.160156 C 31.085938 29.417969 31.308594 29.609375 31.589844 29.738281 Z M 31.589844 29.738281 " fill-opacity="1" fill-rule="nonzero"/><path fill="#005599" d="M 17.039062 36.828125 L 17.039062 37.539062 L 16.324219 37.539062 C 15.847656 37.539062 15.390625 37.449219 14.949219 37.269531 C 14.511719 37.089844 14.121094 36.832031 13.785156 36.5 C 13.449219 36.167969 13.191406 35.785156 13.007812 35.351562 C 12.828125 34.914062 12.734375 34.464844 12.734375 33.992188 L 12.734375 31.863281 C 12.707031 31.773438 12.550781 31.6875 12.441406 31.625 C 12.101562 31.441406 11.789062 31.214844 11.507812 30.949219 C 11.367188 30.8125 11.300781 30.644531 11.300781 30.445312 C 11.300781 30.25 11.367188 30.082031 11.507812 29.941406 C 11.679688 29.78125 11.863281 29.632812 12.0625 29.503906 C 11.957031 29.785156 12.011719 30.03125 12.226562 30.242188 C 12.507812 30.507812 12.816406 30.730469 13.160156 30.914062 C 13.265625 30.976562 13.425781 31.0625 13.453125 31.15625 L 13.453125 33.285156 C 13.453125 33.753906 13.542969 34.207031 13.726562 34.640625 C 13.90625 35.074219 14.167969 35.457031 14.503906 35.792969 C 14.839844 36.125 15.226562 36.378906 15.667969 36.558594 C 16.105469 36.738281 16.5625 36.828125 17.039062 36.828125 Z M 17.039062 36.828125 " fill-opacity="1" fill-rule="nonzero"/><path fill="#005599" d="M 14.171875 24.0625 C 13.6875 24.691406 13.449219 25.402344 13.453125 26.191406 L 13.453125 28.367188 C 13.363281 28.441406 13.265625 28.507812 13.160156 28.558594 C 13.035156 28.628906 12.894531 28.714844 12.734375 28.816406 L 12.734375 26.898438 C 12.734375 26.34375 12.863281 25.8125 13.113281 25.316406 C 13.367188 24.816406 13.71875 24.398438 14.171875 24.0625 Z M 14.171875 24.0625 " fill-opacity="1" fill-rule="nonzero"/><path fill="#005599" d="M 17.039062 24.0625 L 17.039062 24.773438 L 16.324219 24.773438 C 15.917969 24.773438 15.546875 24.875 15.203125 25.085938 C 15.398438 24.769531 15.660156 24.519531 15.988281 24.335938 C 16.3125 24.15625 16.664062 24.0625 17.039062 24.0625 Z M 17.039062 24.0625 " fill-opacity="1" fill-rule="nonzero"/><path fill="#ffffff" d="M 12.734375 12.007812 C 10.464844 12.007812 9.867188 10.613281 9.867188 9.878906 L 10.582031 9.878906 L 11.300781 9.859375 C 11.308594 9.980469 11.414062 10.585938 12.734375 10.585938 C 12.933594 10.585938 13.101562 10.519531 13.242188 10.378906 C 13.382812 10.242188 13.453125 10.074219 13.453125 9.878906 C 13.453125 9.683594 13.382812 9.515625 13.242188 9.375 C 13.101562 9.238281 12.933594 9.167969 12.734375 9.167969 L 12.019531 9.167969 C 11.734375 9.167969 11.457031 9.113281 11.195312 9.007812 C 10.929688 8.898438 10.699219 8.746094 10.496094 8.546875 C 10.292969 8.347656 10.140625 8.117188 10.03125 7.855469 C 9.921875 7.59375 9.867188 7.324219 9.867188 7.042969 C 9.867188 6.757812 9.921875 6.488281 10.03125 6.226562 C 10.140625 5.964844 10.292969 5.734375 10.496094 5.535156 C 10.699219 5.335938 10.929688 5.183594 11.195312 5.074219 C 11.457031 4.96875 11.734375 4.914062 12.019531 4.914062 C 14.289062 4.914062 14.886719 6.304688 14.886719 7.042969 L 13.453125 7.042969 C 13.445312 6.941406 13.339844 6.332031 12.019531 6.332031 C 11.820312 6.332031 11.652344 6.402344 11.511719 6.539062 C 11.371094 6.679688 11.300781 6.84375 11.300781 7.042969 C 11.300781 7.238281 11.371094 7.40625 11.511719 7.542969 C 11.652344 7.679688 11.820312 7.75 12.019531 7.75 L 12.734375 7.75 C 13.019531 7.75 13.296875 7.804688 13.558594 7.914062 C 13.824219 8.019531 14.054688 8.175781 14.257812 8.375 C 14.460938 8.574219 14.613281 8.804688 14.722656 9.0625 C 14.832031 9.324219 14.886719 9.597656 14.886719 9.878906 C 14.886719 10.160156 14.832031 10.433594 14.722656 10.691406 C 14.613281 10.953125 14.460938 11.183594 14.257812 11.382812 C 14.054688 11.582031 13.824219 11.734375 13.558594 11.84375 C 13.296875 11.953125 13.019531 12.007812 12.734375 12.007812 Z M 12.734375 12.007812 " fill-opacity="1" fill-rule="nonzero"/><path fill="#08449e" d="M 13.855469 11.695312 C 13.660156 12.011719 13.398438 12.257812 13.070312 12.441406 C 12.742188 12.621094 12.394531 12.714844 12.019531 12.714844 C 9.75 12.714844 9.148438 11.324219 9.148438 10.585938 L 10.023438 10.585938 C 10.316406 11.269531 11.085938 12.007812 12.734375 12.007812 C 13.136719 12.007812 13.511719 11.902344 13.855469 11.695312 Z M 13.855469 11.695312 " fill-opacity="1" fill-rule="nonzero"/><path fill="#08449e" d="M 13.453125 9.878906 C 13.453125 10.074219 13.382812 10.242188 13.242188 10.378906 C 13.101562 10.519531 12.933594 10.585938 12.734375 10.585938 C 12.734375 10.390625 12.664062 10.222656 12.527344 10.085938 C 12.386719 9.949219 12.214844 9.878906 12.019531 9.878906 L 11.300781 9.878906 L 11.300781 9.855469 L 11.085938 9.863281 L 11.078125 9.863281 C 10.621094 9.816406 10.21875 9.640625 9.875 9.335938 C 9.53125 9.035156 9.308594 8.660156 9.207031 8.214844 C 9.105469 7.773438 9.144531 7.339844 9.324219 6.921875 C 9.503906 6.5 9.789062 6.171875 10.179688 5.933594 C 9.980469 6.261719 9.875 6.621094 9.867188 7.003906 C 9.859375 7.386719 9.953125 7.746094 10.144531 8.082031 C 10.332031 8.417969 10.597656 8.683594 10.933594 8.878906 C 11.265625 9.070312 11.628906 9.167969 12.019531 9.167969 L 12.734375 9.167969 C 12.933594 9.167969 13.101562 9.238281 13.242188 9.375 C 13.382812 9.515625 13.453125 9.683594 13.453125 9.878906 Z M 13.453125 9.878906 " fill-opacity="1" fill-rule="nonzero"/><path fill="#08449e" d="M 14.171875 7.75 L 12.734375 7.75 C 12.726562 7.652344 12.621094 7.042969 11.300781 7.042969 C 11.300781 6.84375 11.371094 6.679688 11.511719 6.539062 C 11.652344 6.402344 11.820312 6.332031 12.019531 6.332031 C 13.339844 6.332031 13.445312 6.941406 13.453125 7.042969 L 14.011719 7.042969 C 14.113281 7.265625 14.167969 7.503906 14.171875 7.75 Z M 14.171875 7.75 " fill-opacity="1" fill-rule="nonzero"/><path fill="#ffffff" d="M 19.191406 12.007812 C 16.921875 12.007812 16.324219 10.613281 16.324219 9.878906 L 17.039062 9.878906 L 17.757812 9.859375 C 17.765625 9.980469 17.871094 10.585938 19.191406 10.585938 C 19.390625 10.585938 19.558594 10.519531 19.699219 10.378906 C 19.839844 10.242188 19.910156 10.074219 19.910156 9.878906 C 19.910156 9.683594 19.839844 9.515625 19.699219 9.375 C 19.558594 9.238281 19.390625 9.167969 19.191406 9.167969 L 18.476562 9.167969 C 18.191406 9.167969 17.914062 9.113281 17.652344 9.007812 C 17.386719 8.898438 17.15625 8.746094 16.953125 8.546875 C 16.75 8.347656 16.597656 8.117188 16.488281 7.855469 C 16.378906 7.59375 16.324219 7.324219 16.324219 7.042969 C 16.324219 6.757812 16.378906 6.488281 16.488281 6.226562 C 16.597656 5.964844 16.75 5.734375 16.953125 5.535156 C 17.15625 5.335938 17.386719 5.183594 17.652344 5.074219 C 17.914062 4.96875 18.191406 4.914062 18.476562 4.914062 C 20.746094 4.914062 21.34375 6.304688 21.34375 7.042969 L 19.910156 7.042969 C 19.902344 6.941406 19.796875 6.332031 18.476562 6.332031 C 18.277344 6.332031 18.109375 6.402344 17.96875 6.539062 C 17.828125 6.679688 17.757812 6.84375 17.757812 7.042969 C 17.757812 7.238281 17.828125 7.40625 17.96875 7.542969 C 18.109375 7.679688 18.277344 7.75 18.476562 7.75 L 19.191406 7.75 C 19.476562 7.75 19.753906 7.804688 20.015625 7.914062 C 20.28125 8.019531 20.511719 8.175781 20.714844 8.375 C 20.917969 8.574219 21.070312 8.804688 21.179688 9.0625 C 21.289062 9.324219 21.34375 9.597656 21.34375 9.878906 C 21.34375 10.160156 21.289062 10.433594 21.179688 10.691406 C 21.070312 10.953125 20.917969 11.183594 20.714844 11.382812 C 20.511719 11.582031 20.28125 11.734375 20.015625 11.84375 C 19.753906 11.953125 19.476562 12.007812 19.191406 12.007812 Z M 19.191406 12.007812 " fill-opacity="1" fill-rule="nonzero"/><path fill="#08449e" d="M 20.3125 11.695312 C 20.117188 12.011719 19.855469 12.257812 19.527344 12.441406 C 19.199219 12.621094 18.851562 12.714844 18.476562 12.714844 C 16.207031 12.714844 15.605469 11.324219 15.605469 10.585938 L 16.480469 10.585938 C 16.773438 11.269531 17.542969 12.007812 19.191406 12.007812 C 19.59375 12.007812 19.96875 11.902344 20.3125 11.695312 Z M 20.3125 11.695312 " fill-opacity="1" fill-rule="nonzero"/><path fill="#08449e" d="M 19.910156 9.878906 C 19.910156 10.074219 19.839844 10.242188 19.699219 10.378906 C 19.558594 10.519531 19.390625 10.585938 19.191406 10.585938 C 19.191406 10.390625 19.121094 10.222656 18.980469 10.085938 C 18.84375 9.949219 18.671875 9.878906 18.476562 9.878906 L 17.757812 9.878906 L 17.757812 9.855469 L 17.542969 9.863281 L 17.535156 9.863281 C 17.078125 9.816406 16.675781 9.640625 16.332031 9.335938 C 15.988281 9.035156 15.765625 8.660156 15.664062 8.214844 C 15.5625 7.773438 15.601562 7.339844 15.78125 6.921875 C 15.960938 6.5 16.246094 6.171875 16.636719 5.933594 C 16.4375 6.261719 16.332031 6.621094 16.324219 7.003906 C 16.316406 7.386719 16.410156 7.746094 16.601562 8.082031 C 16.789062 8.417969 17.054688 8.683594 17.386719 8.878906 C 17.722656 9.070312 18.085938 9.167969 18.476562 9.167969 L 19.191406 9.167969 C 19.390625 9.167969 19.558594 9.238281 19.699219 9.375 C 19.839844 9.515625 19.910156 9.683594 19.910156 9.878906 Z M 19.910156 9.878906 " fill-opacity="1" fill-rule="nonzero"/><path fill="#08449e" d="M 20.628906 7.75 L 19.191406 7.75 C 19.183594 7.652344 19.078125 7.042969 17.757812 7.042969 C 17.757812 6.84375 17.828125 6.679688 17.96875 6.539062 C 18.109375 6.402344 18.277344 6.332031 18.476562 6.332031 C 19.796875 6.332031 19.902344 6.941406 19.910156 7.042969 L 20.46875 7.042969 C 20.570312 7.265625 20.625 7.503906 20.628906 7.75 Z M 20.628906 7.75 " fill-opacity="1" fill-rule="nonzero"/><path fill="#f2f2f2" d="M 8.429688 12.007812 L 7.714844 12.007812 C 7.238281 12.007812 6.78125 11.917969 6.339844 11.734375 C 5.902344 11.554688 5.511719 11.300781 5.175781 10.96875 C 4.839844 10.636719 4.582031 10.25 4.398438 9.816406 C 4.21875 9.382812 4.125 8.929688 4.125 8.460938 C 4.125 7.988281 4.21875 7.539062 4.398438 7.101562 C 4.582031 6.667969 4.839844 6.285156 5.175781 5.953125 C 5.511719 5.621094 5.902344 5.363281 6.339844 5.183594 C 6.78125 5.003906 7.238281 4.914062 7.714844 4.914062 L 8.429688 4.914062 L 8.429688 6.332031 L 7.714844 6.332031 C 7.429688 6.332031 7.152344 6.386719 6.890625 6.492188 C 6.625 6.601562 6.394531 6.753906 6.191406 6.957031 C 5.988281 7.15625 5.835938 7.386719 5.726562 7.644531 C 5.617188 7.90625 5.5625 8.175781 5.5625 8.460938 C 5.5625 8.742188 5.617188 9.011719 5.726562 9.273438 C 5.835938 9.535156 5.988281 9.765625 6.191406 9.964844 C 6.394531 10.164062 6.625 10.316406 6.890625 10.425781 C 7.152344 10.535156 7.429688 10.585938 7.714844 10.585938 L 8.429688 10.585938 Z M 8.429688 12.007812 " fill-opacity="1" fill-rule="nonzero"/><path fill="#08449e" d="M 7.714844 12.007812 L 7.714844 12.714844 L 6.996094 12.714844 C 6.621094 12.714844 6.253906 12.65625 5.894531 12.542969 C 5.535156 12.429688 5.203125 12.261719 4.898438 12.046875 C 4.59375 11.828125 4.328125 11.570312 4.105469 11.269531 C 3.882812 10.96875 3.710938 10.644531 3.59375 10.289062 C 3.472656 9.9375 3.414062 9.574219 3.410156 9.203125 C 3.40625 8.832031 3.460938 8.46875 3.570312 8.113281 C 3.683594 7.757812 3.847656 7.425781 4.066406 7.121094 C 4.285156 6.820312 4.542969 6.554688 4.84375 6.332031 C 4.363281 6.960938 4.125 7.671875 4.125 8.460938 C 4.125 8.929688 4.21875 9.382812 4.398438 9.816406 C 4.582031 10.25 4.839844 10.636719 5.175781 10.96875 C 5.511719 11.300781 5.902344 11.554688 6.339844 11.734375 C 6.78125 11.917969 7.238281 12.007812 7.714844 12.007812 Z M 7.714844 12.007812 " fill-opacity="1" fill-rule="nonzero"/><path fill="#08449e" d="M 7.714844 6.332031 L 7.714844 7.042969 L 6.996094 7.042969 C 6.59375 7.042969 6.21875 7.144531 5.878906 7.351562 C 6.074219 7.039062 6.332031 6.789062 6.660156 6.605469 C 6.988281 6.425781 7.339844 6.332031 7.714844 6.332031 Z M 7.714844 6.332031 " fill-opacity="1" fill-rule="nonzero"/></svg>