<svg xmlns="http://www.w3.org/2000/svg" xmlns:xlink="http://www.w3.org/1999/xlink" width="54" zoomAndPan="magnify" viewBox="0 0 40.5 41.25" height="55" preserveAspectRatio="xMidYMid meet" version="1.0"><defs><clipPath id="210d2d5011"><path d="M 0.203125 0.191406 L 39.894531 0.191406 L 39.894531 39.96875 L 0.203125 39.96875 Z M 0.203125 0.191406 " clip-rule="nonzero"/></clipPath><clipPath id="73ce45ce8e"><path d="M 0.203125 0.191406 L 39.894531 0.191406 L 39.894531 39.96875 L 0.203125 39.96875 Z M 0.203125 0.191406 " clip-rule="nonzero"/></clipPath></defs><g clip-path="url(#210d2d5011)"><path fill="#ffd83f" d="M 39.390625 20.003906 C 39.390625 20.636719 39.359375 21.269531 39.296875 21.902344 C 39.234375 22.535156 39.140625 23.160156 39.019531 23.78125 C 38.894531 24.40625 38.742188 25.019531 38.554688 25.628906 C 38.371094 26.234375 38.160156 26.832031 37.917969 27.417969 C 37.671875 28.003906 37.402344 28.578125 37.101562 29.136719 C 36.804688 29.695312 36.476562 30.238281 36.125 30.765625 C 35.773438 31.292969 35.394531 31.804688 34.992188 32.292969 C 34.589844 32.785156 34.164062 33.253906 33.714844 33.703125 C 33.269531 34.152344 32.796875 34.578125 32.308594 34.980469 C 31.816406 35.382812 31.308594 35.757812 30.78125 36.113281 C 30.253906 36.464844 29.710938 36.789062 29.148438 37.089844 C 28.589844 37.386719 28.019531 37.660156 27.433594 37.902344 C 26.84375 38.144531 26.25 38.359375 25.640625 38.542969 C 25.035156 38.726562 24.417969 38.878906 23.796875 39.003906 C 23.175781 39.128906 22.546875 39.222656 21.917969 39.28125 C 21.285156 39.34375 20.652344 39.375 20.019531 39.375 C 19.382812 39.375 18.75 39.34375 18.121094 39.28125 C 17.488281 39.222656 16.859375 39.128906 16.238281 39.003906 C 15.617188 38.878906 15 38.726562 14.394531 38.542969 C 13.789062 38.359375 13.191406 38.144531 12.605469 37.902344 C 12.019531 37.660156 11.445312 37.386719 10.886719 37.089844 C 10.328125 36.789062 9.78125 36.464844 9.253906 36.113281 C 8.726562 35.757812 8.21875 35.382812 7.726562 34.980469 C 7.238281 34.578125 6.769531 34.152344 6.320312 33.703125 C 5.871094 33.253906 5.445312 32.785156 5.042969 32.292969 C 4.640625 31.804688 4.261719 31.292969 3.910156 30.765625 C 3.558594 30.238281 3.230469 29.695312 2.933594 29.136719 C 2.632812 28.578125 2.363281 28.003906 2.121094 27.417969 C 1.878906 26.832031 1.664062 26.234375 1.480469 25.628906 C 1.296875 25.019531 1.140625 24.40625 1.019531 23.78125 C 0.894531 23.160156 0.800781 22.535156 0.738281 21.902344 C 0.675781 21.269531 0.644531 20.636719 0.644531 20.003906 C 0.644531 19.367188 0.675781 18.734375 0.738281 18.105469 C 0.800781 17.472656 0.894531 16.847656 1.019531 16.222656 C 1.140625 15.601562 1.296875 14.988281 1.480469 14.378906 C 1.664062 13.773438 1.878906 13.175781 2.121094 12.589844 C 2.363281 12.003906 2.632812 11.429688 2.933594 10.871094 C 3.230469 10.3125 3.558594 9.769531 3.910156 9.242188 C 4.261719 8.714844 4.640625 8.203125 5.042969 7.714844 C 5.445312 7.222656 5.871094 6.753906 6.320312 6.304688 C 6.769531 5.855469 7.238281 5.429688 7.726562 5.027344 C 8.21875 4.625 8.726562 4.25 9.253906 3.894531 C 9.78125 3.542969 10.328125 3.21875 10.886719 2.917969 C 11.445312 2.621094 12.019531 2.347656 12.605469 2.105469 C 13.191406 1.863281 13.789062 1.648438 14.394531 1.464844 C 15 1.28125 15.617188 1.128906 16.238281 1.003906 C 16.859375 0.878906 17.488281 0.785156 18.121094 0.722656 C 18.75 0.660156 19.382812 0.632812 20.019531 0.632812 C 20.652344 0.632812 21.285156 0.660156 21.917969 0.722656 C 22.546875 0.785156 23.175781 0.878906 23.796875 1.003906 C 24.417969 1.128906 25.035156 1.28125 25.640625 1.464844 C 26.25 1.648438 26.84375 1.863281 27.433594 2.105469 C 28.019531 2.347656 28.589844 2.621094 29.148438 2.917969 C 29.710938 3.21875 30.253906 3.542969 30.78125 3.894531 C 31.308594 4.25 31.816406 4.625 32.308594 5.027344 C 32.796875 5.429688 33.269531 5.855469 33.714844 6.304688 C 34.164062 6.753906 34.589844 7.222656 34.992188 7.714844 C 35.394531 8.203125 35.773438 8.714844 36.125 9.242188 C 36.476562 9.769531 36.804688 10.3125 37.101562 10.871094 C 37.402344 11.429688 37.671875 12.003906 37.917969 12.589844 C 38.160156 13.175781 38.371094 13.773438 38.554688 14.378906 C 38.742188 14.988281 38.894531 15.601562 39.019531 16.222656 C 39.140625 16.847656 39.234375 17.472656 39.296875 18.105469 C 39.359375 18.734375 39.390625 19.367188 39.390625 20.003906 Z M 39.390625 20.003906 " fill-opacity="1" fill-rule="nonzero"/><path fill="#353333" d="M 20.019531 39.816406 C 9.09375 39.816406 0.203125 30.929688 0.203125 20.003906 C 0.203125 9.078125 9.09375 0.191406 20.019531 0.191406 C 30.945312 0.191406 39.832031 9.078125 39.832031 20.003906 C 39.832031 30.929688 30.945312 39.816406 20.019531 39.816406 Z M 20.019531 1.070312 C 9.578125 1.070312 1.085938 9.566406 1.085938 20.003906 C 1.085938 30.441406 9.578125 38.933594 20.019531 38.933594 C 30.457031 38.933594 38.949219 30.441406 38.949219 20.003906 C 38.949219 9.566406 30.457031 1.070312 20.019531 1.070312 Z M 20.019531 1.070312 " fill-opacity="1" fill-rule="nonzero"/></g><path fill="#fffbe0" d="M 35.714844 20.003906 C 35.714844 20.519531 35.6875 21.03125 35.640625 21.542969 C 35.589844 22.054688 35.511719 22.5625 35.414062 23.066406 C 35.3125 23.570312 35.1875 24.066406 35.039062 24.558594 C 34.890625 25.050781 34.714844 25.535156 34.519531 26.011719 C 34.324219 26.484375 34.105469 26.949219 33.859375 27.402344 C 33.617188 27.855469 33.355469 28.296875 33.070312 28.722656 C 32.785156 29.152344 32.476562 29.5625 32.152344 29.960938 C 31.824219 30.359375 31.480469 30.738281 31.117188 31.101562 C 30.753906 31.464844 30.375 31.8125 29.976562 32.136719 C 29.578125 32.464844 29.167969 32.769531 28.738281 33.054688 C 28.3125 33.339844 27.871094 33.605469 27.417969 33.847656 C 26.964844 34.089844 26.5 34.308594 26.023438 34.503906 C 25.550781 34.703125 25.066406 34.875 24.574219 35.023438 C 24.082031 35.171875 23.585938 35.296875 23.082031 35.398438 C 22.578125 35.5 22.066406 35.574219 21.558594 35.625 C 21.046875 35.675781 20.53125 35.699219 20.019531 35.699219 C 19.503906 35.699219 18.992188 35.675781 18.480469 35.625 C 17.96875 35.574219 17.460938 35.5 16.957031 35.398438 C 16.453125 35.296875 15.953125 35.171875 15.460938 35.023438 C 14.96875 34.875 14.488281 34.703125 14.011719 34.503906 C 13.535156 34.308594 13.074219 34.089844 12.617188 33.847656 C 12.164062 33.605469 11.726562 33.339844 11.296875 33.054688 C 10.871094 32.769531 10.457031 32.464844 10.058594 32.136719 C 9.664062 31.8125 9.28125 31.464844 8.917969 31.101562 C 8.554688 30.738281 8.210938 30.359375 7.882812 29.960938 C 7.558594 29.5625 7.253906 29.152344 6.96875 28.722656 C 6.679688 28.296875 6.417969 27.855469 6.175781 27.402344 C 5.933594 26.949219 5.714844 26.484375 5.515625 26.011719 C 5.320312 25.535156 5.148438 25.050781 4.996094 24.558594 C 4.847656 24.066406 4.722656 23.570312 4.625 23.066406 C 4.523438 22.5625 4.449219 22.054688 4.398438 21.542969 C 4.347656 21.03125 4.320312 20.519531 4.320312 20.003906 C 4.320312 19.488281 4.347656 18.976562 4.398438 18.464844 C 4.449219 17.953125 4.523438 17.445312 4.625 16.941406 C 4.722656 16.4375 4.847656 15.9375 4.996094 15.445312 C 5.148438 14.957031 5.320312 14.472656 5.515625 13.996094 C 5.714844 13.523438 5.933594 13.058594 6.175781 12.605469 C 6.417969 12.152344 6.679688 11.710938 6.96875 11.28125 C 7.253906 10.855469 7.558594 10.441406 7.882812 10.046875 C 8.210938 9.648438 8.554688 9.269531 8.917969 8.90625 C 9.28125 8.539062 9.664062 8.195312 10.058594 7.871094 C 10.457031 7.542969 10.871094 7.238281 11.296875 6.953125 C 11.726562 6.667969 12.164062 6.402344 12.617188 6.160156 C 13.074219 5.917969 13.535156 5.699219 14.011719 5.5 C 14.488281 5.304688 14.96875 5.132812 15.460938 4.984375 C 15.953125 4.832031 16.453125 4.710938 16.957031 4.609375 C 17.460938 4.507812 17.96875 4.433594 18.480469 4.382812 C 18.992188 4.332031 19.503906 4.308594 20.019531 4.308594 C 20.53125 4.308594 21.046875 4.332031 21.558594 4.382812 C 22.066406 4.433594 22.578125 4.507812 23.082031 4.609375 C 23.585938 4.710938 24.082031 4.832031 24.574219 4.984375 C 25.066406 5.132812 25.550781 5.304688 26.023438 5.5 C 26.5 5.699219 26.964844 5.917969 27.417969 6.160156 C 27.871094 6.402344 28.3125 6.667969 28.738281 6.953125 C 29.167969 7.238281 29.578125 7.542969 29.976562 7.871094 C 30.375 8.195312 30.753906 8.539062 31.117188 8.90625 C 31.480469 9.269531 31.824219 9.648438 32.152344 10.046875 C 32.476562 10.441406 32.785156 10.855469 33.070312 11.28125 C 33.355469 11.710938 33.617188 12.152344 33.859375 12.605469 C 34.105469 13.058594 34.324219 13.523438 34.519531 13.996094 C 34.714844 14.472656 34.890625 14.957031 35.039062 15.445312 C 35.1875 15.9375 35.3125 16.4375 35.414062 16.941406 C 35.511719 17.445312 35.589844 17.953125 35.640625 18.464844 C 35.6875 18.976562 35.714844 19.488281 35.714844 20.003906 Z M 35.714844 20.003906 " fill-opacity="1" fill-rule="nonzero"/><path fill="#353333" d="M 20.019531 36.140625 C 11.121094 36.140625 3.878906 28.902344 3.878906 20.003906 C 3.878906 11.105469 11.121094 3.867188 20.019531 3.867188 C 28.917969 3.867188 36.15625 11.105469 36.15625 20.003906 C 36.15625 28.902344 28.917969 36.140625 20.019531 36.140625 Z M 20.019531 4.75 C 11.605469 4.75 4.761719 11.589844 4.761719 20.003906 C 4.761719 28.414062 11.605469 35.257812 20.019531 35.257812 C 28.429688 35.257812 35.273438 28.414062 35.273438 20.003906 C 35.273438 11.589844 28.429688 4.75 20.019531 4.75 Z M 20.019531 4.75 " fill-opacity="1" fill-rule="nonzero"/><path fill="#353333" d="M 14.722656 28.1875 C 14.714844 28.1875 14.707031 28.1875 14.699219 28.1875 C 14.574219 28.179688 14.460938 28.121094 14.382812 28.027344 L 9.179688 21.703125 C 9.023438 21.515625 9.050781 21.238281 9.238281 21.082031 C 9.429688 20.929688 9.707031 20.953125 9.859375 21.144531 L 14.757812 27.097656 C 16.019531 25.867188 20.804688 21.210938 30.210938 12.167969 C 30.386719 12 30.664062 12.007812 30.832031 12.183594 C 31.003906 12.359375 30.996094 12.636719 30.820312 12.804688 C 19.746094 23.453125 15.078125 28.019531 15.03125 28.0625 C 14.949219 28.144531 14.835938 28.1875 14.722656 28.1875 Z M 14.722656 28.1875 " fill-opacity="1" fill-rule="nonzero"/><g clip-path="url(#73ce45ce8e)"><path fill="#ffd83f" d="M 39.390625 20.003906 C 39.390625 20.636719 39.359375 21.269531 39.296875 21.902344 C 39.234375 22.535156 39.140625 23.160156 39.019531 23.78125 C 38.894531 24.40625 38.742188 25.019531 38.554688 25.628906 C 38.371094 26.234375 38.160156 26.832031 37.917969 27.417969 C 37.671875 28.003906 37.402344 28.578125 37.101562 29.136719 C 36.804688 29.695312 36.476562 30.238281 36.125 30.765625 C 35.773438 31.292969 35.394531 31.804688 34.992188 32.292969 C 34.589844 32.785156 34.164062 33.253906 33.714844 33.703125 C 33.269531 34.152344 32.796875 34.578125 32.308594 34.980469 C 31.816406 35.382812 31.308594 35.757812 30.78125 36.113281 C 30.253906 36.464844 29.710938 36.789062 29.148438 37.089844 C 28.589844 37.386719 28.019531 37.660156 27.433594 37.902344 C 26.84375 38.144531 26.25 38.359375 25.640625 38.542969 C 25.035156 38.726562 24.417969 38.878906 23.796875 39.003906 C 23.175781 39.128906 22.546875 39.222656 21.917969 39.28125 C 21.285156 39.34375 20.652344 39.375 20.019531 39.375 C 19.382812 39.375 18.75 39.34375 18.121094 39.28125 C 17.488281 39.222656 16.859375 39.128906 16.238281 39.003906 C 15.617188 38.878906 15 38.726562 14.394531 38.542969 C 13.789062 38.359375 13.191406 38.144531 12.605469 37.902344 C 12.019531 37.660156 11.445312 37.386719 10.886719 37.089844 C 10.328125 36.789062 9.78125 36.464844 9.253906 36.113281 C 8.726562 35.757812 8.21875 35.382812 7.726562 34.980469 C 7.238281 34.578125 6.769531 34.152344 6.320312 33.703125 C 5.871094 33.253906 5.445312 32.785156 5.042969 32.292969 C 4.640625 31.804688 4.261719 31.292969 3.910156 30.765625 C 3.558594 30.238281 3.230469 29.695312 2.933594 29.136719 C 2.632812 28.578125 2.363281 28.003906 2.121094 27.417969 C 1.878906 26.832031 1.664062 26.234375 1.480469 25.628906 C 1.296875 25.019531 1.140625 24.40625 1.019531 23.78125 C 0.894531 23.160156 0.800781 22.535156 0.738281 21.902344 C 0.675781 21.269531 0.644531 20.636719 0.644531 20.003906 C 0.644531 19.367188 0.675781 18.734375 0.738281 18.105469 C 0.800781 17.472656 0.894531 16.847656 1.019531 16.222656 C 1.140625 15.601562 1.296875 14.988281 1.480469 14.378906 C 1.664062 13.773438 1.878906 13.175781 2.121094 12.589844 C 2.363281 12.003906 2.632812 11.429688 2.933594 10.871094 C 3.230469 10.3125 3.558594 9.769531 3.910156 9.242188 C 4.261719 8.714844 4.640625 8.203125 5.042969 7.714844 C 5.445312 7.222656 5.871094 6.753906 6.320312 6.304688 C 6.769531 5.855469 7.238281 5.429688 7.726562 5.027344 C 8.21875 4.625 8.726562 4.25 9.253906 3.894531 C 9.78125 3.542969 10.328125 3.21875 10.886719 2.917969 C 11.445312 2.621094 12.019531 2.347656 12.605469 2.105469 C 13.191406 1.863281 13.789062 1.648438 14.394531 1.464844 C 15 1.28125 15.617188 1.128906 16.238281 1.003906 C 16.859375 0.878906 17.488281 0.785156 18.121094 0.722656 C 18.75 0.660156 19.382812 0.632812 20.019531 0.632812 C 20.652344 0.632812 21.285156 0.660156 21.917969 0.722656 C 22.546875 0.785156 23.175781 0.878906 23.796875 1.003906 C 24.417969 1.128906 25.035156 1.28125 25.640625 1.464844 C 26.25 1.648438 26.84375 1.863281 27.433594 2.105469 C 28.019531 2.347656 28.589844 2.621094 29.148438 2.917969 C 29.710938 3.21875 30.253906 3.542969 30.78125 3.894531 C 31.308594 4.25 31.816406 4.625 32.308594 5.027344 C 32.796875 5.429688 33.269531 5.855469 33.714844 6.304688 C 34.164062 6.753906 34.589844 7.222656 34.992188 7.714844 C 35.394531 8.203125 35.773438 8.714844 36.125 9.242188 C 36.476562 9.769531 36.804688 10.3125 37.101562 10.871094 C 37.402344 11.429688 37.671875 12.003906 37.917969 12.589844 C 38.160156 13.175781 38.371094 13.773438 38.554688 14.378906 C 38.742188 14.988281 38.894531 15.601562 39.019531 16.222656 C 39.140625 16.847656 39.234375 17.472656 39.296875 18.105469 C 39.359375 18.734375 39.390625 19.367188 39.390625 20.003906 Z M 39.390625 20.003906 " fill-opacity="1" fill-rule="nonzero"/><path fill="#353333" d="M 20.019531 39.816406 C 9.09375 39.816406 0.203125 30.929688 0.203125 20.003906 C 0.203125 9.078125 9.09375 0.191406 20.019531 0.191406 C 30.945312 0.191406 39.832031 9.078125 39.832031 20.003906 C 39.832031 30.929688 30.945312 39.816406 20.019531 39.816406 Z M 20.019531 1.070312 C 9.578125 1.070312 1.085938 9.566406 1.085938 20.003906 C 1.085938 30.441406 9.578125 38.933594 20.019531 38.933594 C 30.457031 38.933594 38.949219 30.441406 38.949219 20.003906 C 38.949219 9.566406 30.457031 1.070312 20.019531 1.070312 Z M 20.019531 1.070312 " fill-opacity="1" fill-rule="nonzero"/></g><path fill="#fffbe0" d="M 35.714844 20.003906 C 35.714844 20.519531 35.6875 21.03125 35.640625 21.542969 C 35.589844 22.054688 35.511719 22.5625 35.414062 23.066406 C 35.3125 23.570312 35.1875 24.066406 35.039062 24.558594 C 34.890625 25.050781 34.714844 25.535156 34.519531 26.011719 C 34.324219 26.484375 34.105469 26.949219 33.859375 27.402344 C 33.617188 27.855469 33.355469 28.296875 33.070312 28.722656 C 32.785156 29.152344 32.476562 29.5625 32.152344 29.960938 C 31.824219 30.359375 31.480469 30.738281 31.117188 31.101562 C 30.753906 31.464844 30.375 31.8125 29.976562 32.136719 C 29.578125 32.464844 29.167969 32.769531 28.738281 33.054688 C 28.3125 33.339844 27.871094 33.605469 27.417969 33.847656 C 26.964844 34.089844 26.5 34.308594 26.023438 34.503906 C 25.550781 34.703125 25.066406 34.875 24.574219 35.023438 C 24.082031 35.171875 23.585938 35.296875 23.082031 35.398438 C 22.578125 35.5 22.066406 35.574219 21.558594 35.625 C 21.046875 35.675781 20.53125 35.699219 20.019531 35.699219 C 19.503906 35.699219 18.992188 35.675781 18.480469 35.625 C 17.96875 35.574219 17.460938 35.5 16.957031 35.398438 C 16.453125 35.296875 15.953125 35.171875 15.460938 35.023438 C 14.96875 34.875 14.488281 34.703125 14.011719 34.503906 C 13.535156 34.308594 13.074219 34.089844 12.617188 33.847656 C 12.164062 33.605469 11.726562 33.339844 11.296875 33.054688 C 10.871094 32.769531 10.457031 32.464844 10.058594 32.136719 C 9.664062 31.8125 9.28125 31.464844 8.917969 31.101562 C 8.554688 30.738281 8.210938 30.359375 7.882812 29.960938 C 7.558594 29.5625 7.253906 29.152344 6.96875 28.722656 C 6.679688 28.296875 6.417969 27.855469 6.175781 27.402344 C 5.933594 26.949219 5.714844 26.484375 5.515625 26.011719 C 5.320312 25.535156 5.148438 25.050781 4.996094 24.558594 C 4.847656 24.066406 4.722656 23.570312 4.625 23.066406 C 4.523438 22.5625 4.449219 22.054688 4.398438 21.542969 C 4.347656 21.03125 4.320312 20.519531 4.320312 20.003906 C 4.320312 19.488281 4.347656 18.976562 4.398438 18.464844 C 4.449219 17.953125 4.523438 17.445312 4.625 16.941406 C 4.722656 16.4375 4.847656 15.9375 4.996094 15.445312 C 5.148438 14.957031 5.320312 14.472656 5.515625 13.996094 C 5.714844 13.523438 5.933594 13.058594 6.175781 12.605469 C 6.417969 12.152344 6.679688 11.710938 6.96875 11.28125 C 7.253906 10.855469 7.558594 10.441406 7.882812 10.046875 C 8.210938 9.648438 8.554688 9.269531 8.917969 8.90625 C 9.28125 8.539062 9.664062 8.195312 10.058594 7.871094 C 10.457031 7.542969 10.871094 7.238281 11.296875 6.953125 C 11.726562 6.667969 12.164062 6.402344 12.617188 6.160156 C 13.074219 5.917969 13.535156 5.699219 14.011719 5.5 C 14.488281 5.304688 14.96875 5.132812 15.460938 4.984375 C 15.953125 4.832031 16.453125 4.710938 16.957031 4.609375 C 17.460938 4.507812 17.96875 4.433594 18.480469 4.382812 C 18.992188 4.332031 19.503906 4.308594 20.019531 4.308594 C 20.53125 4.308594 21.046875 4.332031 21.558594 4.382812 C 22.066406 4.433594 22.578125 4.507812 23.082031 4.609375 C 23.585938 4.710938 24.082031 4.832031 24.574219 4.984375 C 25.066406 5.132812 25.550781 5.304688 26.023438 5.5 C 26.5 5.699219 26.964844 5.917969 27.417969 6.160156 C 27.871094 6.402344 28.3125 6.667969 28.738281 6.953125 C 29.167969 7.238281 29.578125 7.542969 29.976562 7.871094 C 30.375 8.195312 30.753906 8.539062 31.117188 8.90625 C 31.480469 9.269531 31.824219 9.648438 32.152344 10.046875 C 32.476562 10.441406 32.785156 10.855469 33.070312 11.28125 C 33.355469 11.710938 33.617188 12.152344 33.859375 12.605469 C 34.105469 13.058594 34.324219 13.523438 34.519531 13.996094 C 34.714844 14.472656 34.890625 14.957031 35.039062 15.445312 C 35.1875 15.9375 35.3125 16.4375 35.414062 16.941406 C 35.511719 17.445312 35.589844 17.953125 35.640625 18.464844 C 35.6875 18.976562 35.714844 19.488281 35.714844 20.003906 Z M 35.714844 20.003906 " fill-opacity="1" fill-rule="nonzero"/><path fill="#353333" d="M 20.019531 36.140625 C 11.121094 36.140625 3.878906 28.902344 3.878906 20.003906 C 3.878906 11.105469 11.121094 3.867188 20.019531 3.867188 C 28.917969 3.867188 36.15625 11.105469 36.15625 20.003906 C 36.15625 28.902344 28.917969 36.140625 20.019531 36.140625 Z M 20.019531 4.75 C 11.605469 4.75 4.761719 11.589844 4.761719 20.003906 C 4.761719 28.414062 11.605469 35.257812 20.019531 35.257812 C 28.429688 35.257812 35.273438 28.414062 35.273438 20.003906 C 35.273438 11.589844 28.429688 4.75 20.019531 4.75 Z M 20.019531 4.75 " fill-opacity="1" fill-rule="nonzero"/><path fill="#353333" d="M 14.722656 28.1875 C 14.714844 28.1875 14.707031 28.1875 14.699219 28.1875 C 14.574219 28.179688 14.460938 28.121094 14.382812 28.027344 L 9.179688 21.703125 C 9.023438 21.515625 9.050781 21.238281 9.238281 21.082031 C 9.429688 20.929688 9.707031 20.953125 9.859375 21.144531 L 14.757812 27.097656 C 16.019531 25.867188 20.804688 21.210938 30.210938 12.167969 C 30.386719 12 30.664062 12.007812 30.832031 12.183594 C 31.003906 12.359375 30.996094 12.636719 30.820312 12.804688 C 19.746094 23.453125 15.078125 28.019531 15.03125 28.0625 C 14.949219 28.144531 14.835938 28.1875 14.722656 28.1875 Z M 14.722656 28.1875 " fill-opacity="1" fill-rule="nonzero"/></svg>