<svg xmlns="http://www.w3.org/2000/svg" xmlns:xlink="http://www.w3.org/1999/xlink" width="52" zoomAndPan="magnify" viewBox="0 0 39 45.749998" height="61" preserveAspectRatio="xMidYMid meet" version="1.0"><defs><clipPath id="810d7216ee"><path d="M 26 10.144531 L 31.230469 10.144531 L 31.230469 16 L 26 16 Z M 26 10.144531 " clip-rule="nonzero"/></clipPath><clipPath id="21f00193d0"><path d="M 11 10.144531 L 31.230469 10.144531 L 31.230469 36.25 L 11 36.25 Z M 11 10.144531 " clip-rule="nonzero"/></clipPath><clipPath id="38016a648f"><path d="M 26 15 L 31.230469 15 L 31.230469 17 L 26 17 Z M 26 15 " clip-rule="nonzero"/></clipPath><clipPath id="d71da871b1"><path d="M 8.105469 11 L 24 11 L 24 19 L 8.105469 19 Z M 8.105469 11 " clip-rule="nonzero"/></clipPath><clipPath id="9293feeeb3"><path d="M 8.105469 13 L 10 13 L 10 18 L 8.105469 18 Z M 8.105469 13 " clip-rule="nonzero"/></clipPath><clipPath id="e7826fb03e"><path d="M 30 0.738281 L 38.894531 0.738281 L 38.894531 10 L 30 10 Z M 30 0.738281 " clip-rule="nonzero"/></clipPath><clipPath id="f80ab3279c"><path d="M 6 0.738281 L 38.894531 0.738281 L 38.894531 44.746094 L 6 44.746094 Z M 6 0.738281 " clip-rule="nonzero"/></clipPath><clipPath id="a468b6c12e"><path d="M 31 9 L 38.894531 9 L 38.894531 11 L 31 11 Z M 31 9 " clip-rule="nonzero"/></clipPath><clipPath id="b3be10d617"><path d="M 0.324219 2 L 27 2 L 27 15 L 0.324219 15 Z M 0.324219 2 " clip-rule="nonzero"/></clipPath></defs><g clip-path="url(#810d7216ee)"><path fill="#ffaf36" d="M 26.089844 10.144531 L 31.226562 15.195312 L 26.089844 15.195312 Z M 26.089844 10.144531 " fill-opacity="1" fill-rule="nonzero"/></g><g clip-path="url(#21f00193d0)"><path fill="#ff6d00" d="M 31.226562 15.195312 L 31.226562 36.25 L 11.535156 36.25 L 11.535156 10.144531 L 26.089844 10.144531 L 26.089844 15.195312 Z M 31.226562 15.195312 " fill-opacity="1" fill-rule="nonzero"/></g><path fill="#f54e00" d="M 12.390625 13.511719 L 12.390625 33.722656 C 12.390625 33.945312 12.433594 34.160156 12.519531 34.367188 C 12.609375 34.574219 12.730469 34.757812 12.890625 34.914062 C 13.054688 35.074219 13.238281 35.195312 13.449219 35.28125 C 13.65625 35.363281 13.875 35.40625 14.101562 35.40625 L 28.660156 35.40625 C 28.886719 35.40625 29.105469 35.363281 29.316406 35.28125 C 29.523438 35.195312 29.710938 35.074219 29.871094 34.914062 C 30.03125 34.757812 30.15625 34.574219 30.242188 34.367188 C 30.328125 34.160156 30.371094 33.945312 30.371094 33.722656 L 30.371094 32.828125 C 12.390625 31.738281 12.390625 13.511719 12.390625 13.511719 Z M 12.390625 13.511719 " fill-opacity="1" fill-rule="nonzero"/><g clip-path="url(#38016a648f)"><path fill="#f54e00" d="M 26.519531 15.195312 L 31.226562 15.195312 L 31.226562 16.039062 L 26.519531 16.039062 Z M 26.519531 15.195312 " fill-opacity="1" fill-rule="nonzero"/></g><g clip-path="url(#d71da871b1)"><path fill="#f54100" d="M 8.109375 11.40625 L 23.523438 11.40625 L 23.523438 18.144531 L 8.109375 18.144531 Z M 8.109375 11.40625 " fill-opacity="1" fill-rule="nonzero"/></g><path fill="#d63900" d="M 11.535156 18.144531 L 22.664062 18.144531 L 22.664062 19.40625 L 11.535156 19.40625 Z M 11.535156 18.144531 " fill-opacity="1" fill-rule="nonzero"/><path fill="#ffffff" d="M 20.953125 16.039062 L 20.953125 12.667969 L 20.097656 12.667969 L 20.097656 16.457031 C 20.097656 16.574219 20.140625 16.675781 20.222656 16.757812 C 20.304688 16.839844 20.40625 16.878906 20.523438 16.878906 L 22.238281 16.878906 L 22.238281 16.039062 Z M 20.953125 16.039062 " fill-opacity="1" fill-rule="nonzero"/><path fill="#ffffff" d="M 11.535156 14.351562 L 10.25 14.351562 L 10.25 12.667969 L 9.394531 12.667969 L 9.394531 16.878906 L 10.25 16.878906 L 10.25 15.195312 L 11.535156 15.195312 L 11.535156 16.878906 L 12.390625 16.878906 L 12.390625 12.667969 L 11.535156 12.667969 Z M 11.535156 14.351562 " fill-opacity="1" fill-rule="nonzero"/><path fill="#ffffff" d="M 12.820312 13.511719 L 13.675781 13.511719 L 13.675781 16.878906 L 14.53125 16.878906 L 14.53125 13.511719 L 15.386719 13.511719 L 15.386719 12.667969 L 12.820312 12.667969 Z M 12.820312 13.511719 " fill-opacity="1" fill-rule="nonzero"/><path fill="#ffffff" d="M 18.898438 12.679688 C 18.667969 12.628906 18.507812 12.710938 18.417969 12.925781 L 17.527344 14.96875 L 16.636719 12.925781 C 16.546875 12.714844 16.386719 12.632812 16.15625 12.679688 C 15.929688 12.722656 15.816406 12.863281 15.816406 13.089844 L 15.816406 16.878906 L 16.671875 16.878906 L 16.671875 15.140625 L 17.136719 16.203125 C 17.210938 16.375 17.339844 16.457031 17.527344 16.457031 C 17.714844 16.457031 17.847656 16.375 17.921875 16.203125 L 18.382812 15.140625 L 18.382812 16.878906 L 19.242188 16.878906 L 19.242188 13.089844 C 19.242188 12.859375 19.125 12.722656 18.898438 12.679688 Z M 18.898438 12.679688 " fill-opacity="1" fill-rule="nonzero"/><path fill="#ffffff" d="M 16.671875 30.777344 L 13.246094 26.984375 L 16.671875 23.195312 L 18.382812 23.195312 L 14.960938 26.984375 L 18.382812 30.777344 Z M 16.671875 30.777344 " fill-opacity="1" fill-rule="nonzero"/><path fill="#ffffff" d="M 26.089844 30.777344 L 29.515625 26.984375 L 26.089844 23.195312 L 24.378906 23.195312 L 27.804688 26.984375 L 24.378906 30.777344 Z M 26.089844 30.777344 " fill-opacity="1" fill-rule="nonzero"/><path fill="#ffffff" d="M 19.667969 30.777344 L 21.808594 23.195312 L 23.09375 23.195312 L 20.953125 30.777344 Z M 19.667969 30.777344 " fill-opacity="1" fill-rule="nonzero"/><path fill="#d63900" d="M 13.246094 26.984375 L 15.910156 24.039062 L 15.816406 24.039062 L 12.390625 27.828125 L 15.816406 31.617188 L 17.527344 31.617188 L 16.765625 30.777344 L 16.671875 30.777344 Z M 13.246094 26.984375 " fill-opacity="1" fill-rule="nonzero"/><path fill="#d63900" d="M 27.804688 26.984375 L 25.140625 24.039062 L 23.523438 24.039062 L 26.945312 27.828125 L 23.523438 31.617188 L 25.234375 31.617188 L 25.996094 30.777344 L 24.378906 30.777344 Z M 27.804688 26.984375 " fill-opacity="1" fill-rule="nonzero"/><path fill="#d63900" d="M 21.570312 24.039062 L 20.953125 24.039062 L 18.8125 31.617188 L 20.097656 31.617188 L 20.335938 30.777344 L 19.667969 30.777344 Z M 21.570312 24.039062 " fill-opacity="1" fill-rule="nonzero"/><path fill="#d63900" d="M 20.097656 16.457031 L 20.097656 13.089844 L 19.667969 13.089844 L 19.667969 16.878906 C 19.667969 16.996094 19.710938 17.09375 19.792969 17.179688 C 19.878906 17.261719 19.980469 17.300781 20.097656 17.300781 L 21.808594 17.300781 L 21.808594 16.878906 L 20.523438 16.878906 C 20.40625 16.878906 20.304688 16.839844 20.222656 16.757812 C 20.140625 16.675781 20.097656 16.574219 20.097656 16.457031 Z M 20.097656 16.457031 " fill-opacity="1" fill-rule="nonzero"/><path fill="#d63900" d="M 11.105469 13.089844 L 11.535156 13.089844 L 11.535156 14.351562 L 11.105469 14.351562 Z M 11.105469 13.089844 " fill-opacity="1" fill-rule="nonzero"/><g clip-path="url(#9293feeeb3)"><path fill="#d63900" d="M 9.394531 13.089844 L 8.964844 13.089844 L 8.964844 17.300781 L 9.824219 17.300781 L 9.824219 16.878906 L 9.394531 16.878906 Z M 9.394531 13.089844 " fill-opacity="1" fill-rule="nonzero"/></g><path fill="#d63900" d="M 11.535156 15.195312 L 10.25 15.195312 L 10.25 15.617188 L 11.105469 15.617188 L 11.105469 17.300781 L 11.960938 17.300781 L 11.960938 16.878906 L 11.535156 16.878906 Z M 11.535156 15.195312 " fill-opacity="1" fill-rule="nonzero"/><path fill="#d63900" d="M 14.53125 13.511719 L 14.960938 13.511719 L 14.960938 13.933594 L 14.53125 13.933594 Z M 14.53125 13.511719 " fill-opacity="1" fill-rule="nonzero"/><path fill="#d63900" d="M 13.675781 13.511719 L 12.820312 13.511719 L 12.820312 13.089844 L 12.390625 13.089844 L 12.390625 13.933594 L 13.246094 13.933594 L 13.246094 17.300781 L 14.101562 17.300781 L 14.101562 16.878906 L 13.675781 16.878906 Z M 13.675781 13.511719 " fill-opacity="1" fill-rule="nonzero"/><path fill="#d63900" d="M 15.816406 13.097656 C 15.789062 13.09375 15.757812 13.09375 15.730469 13.097656 C 15.503906 13.144531 15.386719 13.28125 15.386719 13.511719 L 15.386719 17.300781 L 16.242188 17.300781 L 16.242188 16.878906 L 15.816406 16.878906 Z M 15.816406 13.097656 " fill-opacity="1" fill-rule="nonzero"/><path fill="#d63900" d="M 18.34375 13.09375 C 18.175781 13.109375 18.058594 13.195312 17.992188 13.347656 L 17.40625 14.691406 L 17.527344 14.972656 Z M 18.34375 13.09375 " fill-opacity="1" fill-rule="nonzero"/><path fill="#d63900" d="M 17.136719 16.203125 L 16.671875 15.140625 L 16.671875 16.542969 L 16.707031 16.621094 C 16.78125 16.792969 16.910156 16.878906 17.101562 16.878906 C 17.289062 16.878906 17.417969 16.792969 17.492188 16.621094 L 17.570312 16.449219 C 17.554688 16.449219 17.542969 16.457031 17.527344 16.457031 C 17.339844 16.457031 17.210938 16.371094 17.136719 16.203125 Z M 17.136719 16.203125 " fill-opacity="1" fill-rule="nonzero"/><path fill="#d63900" d="M 18.382812 15.140625 L 17.957031 16.125 L 17.957031 17.300781 L 18.8125 17.300781 L 18.8125 16.878906 L 18.382812 16.878906 Z M 18.382812 15.140625 " fill-opacity="1" fill-rule="nonzero"/><g clip-path="url(#e7826fb03e)"><path fill="#ffaf36" d="M 30.488281 0.738281 L 39.101562 9.257812 L 30.488281 9.257812 Z M 30.488281 0.738281 " fill-opacity="1" fill-rule="nonzero"/></g><g clip-path="url(#f80ab3279c)"><path fill="#ff6d00" d="M 39.101562 9.257812 L 39.101562 44.746094 L 6.074219 44.746094 L 6.074219 0.738281 L 30.488281 0.738281 L 30.488281 9.257812 Z M 39.101562 9.257812 " fill-opacity="1" fill-rule="nonzero"/></g><path fill="#f54e00" d="M 7.511719 6.417969 L 7.511719 40.488281 C 7.511719 40.867188 7.582031 41.226562 7.730469 41.574219 C 7.875 41.921875 8.082031 42.230469 8.351562 42.496094 C 8.621094 42.761719 8.929688 42.96875 9.285156 43.113281 C 9.636719 43.257812 10 43.328125 10.382812 43.328125 L 34.796875 43.328125 C 35.175781 43.328125 35.542969 43.257812 35.894531 43.113281 C 36.246094 42.96875 36.554688 42.761719 36.824219 42.496094 C 37.09375 42.230469 37.304688 41.921875 37.449219 41.574219 C 37.59375 41.226562 37.667969 40.867188 37.667969 40.488281 L 37.667969 38.980469 C 7.511719 37.144531 7.511719 6.417969 7.511719 6.417969 Z M 7.511719 6.417969 " fill-opacity="1" fill-rule="nonzero"/><g clip-path="url(#a468b6c12e)"><path fill="#f54e00" d="M 31.203125 9.257812 L 39.101562 9.257812 L 39.101562 10.675781 L 31.203125 10.675781 Z M 31.203125 9.257812 " fill-opacity="1" fill-rule="nonzero"/></g><g clip-path="url(#b3be10d617)"><path fill="#f54100" d="M 0.332031 2.867188 L 26.179688 2.867188 L 26.179688 14.226562 L 0.332031 14.226562 Z M 0.332031 2.867188 " fill-opacity="1" fill-rule="nonzero"/></g><path fill="#d63900" d="M 6.074219 14.226562 L 24.742188 14.226562 L 24.742188 16.355469 L 6.074219 16.355469 Z M 6.074219 14.226562 " fill-opacity="1" fill-rule="nonzero"/><path fill="#ffffff" d="M 21.871094 10.675781 L 21.871094 4.996094 L 20.433594 4.996094 L 20.433594 11.386719 C 20.433594 11.582031 20.503906 11.75 20.644531 11.886719 C 20.785156 12.027344 20.953125 12.09375 21.152344 12.09375 L 24.023438 12.09375 L 24.023438 10.675781 Z M 21.871094 10.675781 " fill-opacity="1" fill-rule="nonzero"/><path fill="#ffffff" d="M 6.074219 7.835938 L 3.921875 7.835938 L 3.921875 4.996094 L 2.484375 4.996094 L 2.484375 12.09375 L 3.921875 12.09375 L 3.921875 9.257812 L 6.074219 9.257812 L 6.074219 12.09375 L 7.511719 12.09375 L 7.511719 4.996094 L 6.074219 4.996094 Z M 6.074219 7.835938 " fill-opacity="1" fill-rule="nonzero"/><path fill="#ffffff" d="M 8.226562 6.417969 L 9.664062 6.417969 L 9.664062 12.09375 L 11.101562 12.09375 L 11.101562 6.417969 L 12.535156 6.417969 L 12.535156 4.996094 L 8.226562 4.996094 Z M 8.226562 6.417969 " fill-opacity="1" fill-rule="nonzero"/><path fill="#ffffff" d="M 18.425781 5.011719 C 18.257812 4.976562 18.097656 5 17.945312 5.078125 C 17.796875 5.15625 17.6875 5.273438 17.621094 5.425781 L 16.125 8.875 L 14.632812 5.425781 C 14.566406 5.273438 14.457031 5.15625 14.304688 5.078125 C 14.152344 5 13.996094 4.976562 13.828125 5.011719 C 13.660156 5.046875 13.523438 5.128906 13.417969 5.257812 C 13.308594 5.390625 13.253906 5.539062 13.253906 5.707031 L 13.253906 12.09375 L 14.691406 12.09375 L 14.691406 9.164062 L 15.464844 10.957031 C 15.589844 11.242188 15.8125 11.386719 16.125 11.386719 C 16.441406 11.386719 16.660156 11.242188 16.785156 10.957031 L 17.5625 9.164062 L 17.5625 12.09375 L 19 12.09375 L 19 5.707031 C 19 5.539062 18.945312 5.390625 18.835938 5.257812 C 18.730469 5.128906 18.589844 5.046875 18.425781 5.011719 Z M 18.425781 5.011719 " fill-opacity="1" fill-rule="nonzero"/><path fill="#ffffff" d="M 14.691406 35.519531 L 8.945312 29.132812 L 14.691406 22.742188 L 17.5625 22.742188 L 11.820312 29.132812 L 17.5625 35.519531 Z M 14.691406 35.519531 " fill-opacity="1" fill-rule="nonzero"/><path fill="#ffffff" d="M 30.488281 35.519531 L 36.230469 29.132812 L 30.488281 22.742188 L 27.613281 22.742188 L 33.359375 29.132812 L 27.613281 35.519531 Z M 30.488281 35.519531 " fill-opacity="1" fill-rule="nonzero"/><path fill="#ffffff" d="M 19.714844 35.519531 L 23.308594 22.742188 L 25.460938 22.742188 L 21.871094 35.519531 Z M 19.714844 35.519531 " fill-opacity="1" fill-rule="nonzero"/><path fill="#d63900" d="M 8.945312 29.132812 L 13.414062 24.164062 L 13.253906 24.164062 L 7.511719 30.550781 L 13.253906 36.941406 L 16.125 36.941406 L 14.851562 35.519531 L 14.691406 35.519531 Z M 8.945312 29.132812 " fill-opacity="1" fill-rule="nonzero"/><path fill="#d63900" d="M 33.359375 29.132812 L 28.890625 24.164062 L 26.179688 24.164062 L 31.921875 30.550781 L 26.179688 36.941406 L 29.050781 36.941406 L 30.328125 35.519531 L 27.613281 35.519531 Z M 33.359375 29.132812 " fill-opacity="1" fill-rule="nonzero"/><path fill="#d63900" d="M 22.90625 24.164062 L 21.871094 24.164062 L 18.28125 36.941406 L 20.433594 36.941406 L 20.832031 35.519531 L 19.714844 35.519531 Z M 22.90625 24.164062 " fill-opacity="1" fill-rule="nonzero"/><path fill="#d63900" d="M 20.433594 11.386719 L 20.433594 5.707031 L 19.714844 5.707031 L 19.714844 12.09375 C 19.714844 12.292969 19.785156 12.457031 19.925781 12.597656 C 20.066406 12.734375 20.238281 12.804688 20.433594 12.804688 L 23.308594 12.804688 L 23.308594 12.09375 L 21.152344 12.09375 C 20.953125 12.09375 20.785156 12.027344 20.644531 11.886719 C 20.503906 11.75 20.433594 11.582031 20.433594 11.386719 Z M 20.433594 11.386719 " fill-opacity="1" fill-rule="nonzero"/><path fill="#d63900" d="M 5.355469 5.707031 L 6.074219 5.707031 L 6.074219 7.835938 L 5.355469 7.835938 Z M 5.355469 5.707031 " fill-opacity="1" fill-rule="nonzero"/><path fill="#d63900" d="M 2.484375 5.707031 L 1.765625 5.707031 L 1.765625 12.804688 L 3.203125 12.804688 L 3.203125 12.09375 L 2.484375 12.09375 Z M 2.484375 5.707031 " fill-opacity="1" fill-rule="nonzero"/><path fill="#d63900" d="M 6.074219 9.257812 L 3.921875 9.257812 L 3.921875 9.964844 L 5.355469 9.964844 L 5.355469 12.804688 L 6.792969 12.804688 L 6.792969 12.09375 L 6.074219 12.09375 Z M 6.074219 9.257812 " fill-opacity="1" fill-rule="nonzero"/><path fill="#d63900" d="M 11.101562 6.417969 L 11.820312 6.417969 L 11.820312 7.125 L 11.101562 7.125 Z M 11.101562 6.417969 " fill-opacity="1" fill-rule="nonzero"/><path fill="#d63900" d="M 9.664062 6.417969 L 8.226562 6.417969 L 8.226562 5.707031 L 7.511719 5.707031 L 7.511719 7.125 L 8.945312 7.125 L 8.945312 12.804688 L 10.382812 12.804688 L 10.382812 12.09375 L 9.664062 12.09375 Z M 9.664062 6.417969 " fill-opacity="1" fill-rule="nonzero"/><path fill="#d63900" d="M 13.253906 5.71875 C 13.207031 5.714844 13.160156 5.714844 13.109375 5.722656 C 12.945312 5.753906 12.804688 5.835938 12.699219 5.96875 C 12.589844 6.097656 12.535156 6.25 12.535156 6.417969 L 12.535156 12.804688 L 13.972656 12.804688 L 13.972656 12.09375 L 13.253906 12.09375 Z M 13.253906 5.71875 " fill-opacity="1" fill-rule="nonzero"/><path fill="#d63900" d="M 17.496094 5.714844 C 17.214844 5.738281 17.015625 5.882812 16.902344 6.140625 L 15.921875 8.40625 L 16.125 8.878906 Z M 17.496094 5.714844 " fill-opacity="1" fill-rule="nonzero"/><path fill="#d63900" d="M 15.464844 10.957031 L 14.691406 9.164062 L 14.691406 11.527344 L 14.75 11.660156 C 14.875 11.949219 15.09375 12.09375 15.410156 12.09375 C 15.722656 12.09375 15.945312 11.949219 16.070312 11.660156 L 16.195312 11.371094 C 16.171875 11.371094 16.148438 11.382812 16.125 11.382812 C 15.8125 11.382812 15.59375 11.242188 15.464844 10.957031 Z M 15.464844 10.957031 " fill-opacity="1" fill-rule="nonzero"/><path fill="#d63900" d="M 17.5625 9.164062 L 16.84375 10.820312 L 16.84375 12.804688 L 18.28125 12.804688 L 18.28125 12.09375 L 17.5625 12.09375 Z M 17.5625 9.164062 " fill-opacity="1" fill-rule="nonzero"/></svg>