<svg xmlns="http://www.w3.org/2000/svg" xmlns:xlink="http://www.w3.org/1999/xlink" width="55" zoomAndPan="magnify" viewBox="0 0 41.25 41.250001" height="55" preserveAspectRatio="xMidYMid meet" version="1.0"><defs><clipPath id="5ba3a4ae92"><path d="M 2 2 L 39 2 L 39 39.925781 L 2 39.925781 Z M 2 2 " clip-rule="nonzero"/></clipPath><clipPath id="adf7da274a"><path d="M 1 1 L 40 1 L 40 39.925781 L 1 39.925781 Z M 1 1 " clip-rule="nonzero"/></clipPath><clipPath id="ab422e4eaf"><path d="M 0.6875 10 L 40.464844 10 L 40.464844 11 L 0.6875 11 Z M 0.6875 10 " clip-rule="nonzero"/></clipPath><clipPath id="a790d47627"><path d="M 25 0.148438 L 27 0.148438 L 27 5 L 25 5 Z M 25 0.148438 " clip-rule="nonzero"/></clipPath><clipPath id="f0880b8d60"><path d="M 20 0.148438 L 21 0.148438 L 21 5 L 20 5 Z M 20 0.148438 " clip-rule="nonzero"/></clipPath><clipPath id="ddb9754b06"><path d="M 31 0.148438 L 33 0.148438 L 33 5 L 31 5 Z M 31 0.148438 " clip-rule="nonzero"/></clipPath><clipPath id="65fc4f9525"><path d="M 14 0.148438 L 16 0.148438 L 16 5 L 14 5 Z M 14 0.148438 " clip-rule="nonzero"/></clipPath><clipPath id="e01c639e06"><path d="M 8 0.148438 L 10 0.148438 L 10 5 L 8 5 Z M 8 0.148438 " clip-rule="nonzero"/></clipPath><clipPath id="ed2a8515db"><path d="M 2 2 L 39 2 L 39 39.925781 L 2 39.925781 Z M 2 2 " clip-rule="nonzero"/></clipPath><clipPath id="82e51a33d2"><path d="M 1 1 L 40 1 L 40 39.925781 L 1 39.925781 Z M 1 1 " clip-rule="nonzero"/></clipPath><clipPath id="505ce22d0e"><path d="M 0.6875 10 L 40.464844 10 L 40.464844 11 L 0.6875 11 Z M 0.6875 10 " clip-rule="nonzero"/></clipPath><clipPath id="cf6890b99e"><path d="M 25 0.148438 L 27 0.148438 L 27 5 L 25 5 Z M 25 0.148438 " clip-rule="nonzero"/></clipPath><clipPath id="856092a9ca"><path d="M 20 0.148438 L 21 0.148438 L 21 5 L 20 5 Z M 20 0.148438 " clip-rule="nonzero"/></clipPath><clipPath id="c69583920f"><path d="M 31 0.148438 L 33 0.148438 L 33 5 L 31 5 Z M 31 0.148438 " clip-rule="nonzero"/></clipPath><clipPath id="935ed68f44"><path d="M 14 0.148438 L 16 0.148438 L 16 5 L 14 5 Z M 14 0.148438 " clip-rule="nonzero"/></clipPath><clipPath id="0f919c5285"><path d="M 8 0.148438 L 10 0.148438 L 10 5 L 8 5 Z M 8 0.148438 " clip-rule="nonzero"/></clipPath></defs><g clip-path="url(#5ba3a4ae92)"><path fill="#fffbe0" d="M 2.128906 36.699219 L 2.128906 5.296875 C 2.128906 3.609375 3.5 2.238281 5.191406 2.238281 L 35.8125 2.238281 C 37.503906 2.238281 38.875 3.609375 38.875 5.296875 L 38.875 36.699219 C 38.875 38.390625 37.503906 39.761719 35.8125 39.761719 L 5.191406 39.761719 C 3.5 39.761719 2.128906 38.390625 2.128906 36.699219 Z M 2.128906 36.699219 " fill-opacity="1" fill-rule="nonzero"/></g><g clip-path="url(#adf7da274a)"><path fill="#000000" d="M 35.8125 40.144531 L 5.191406 40.144531 C 3.292969 40.144531 1.746094 38.597656 1.746094 36.699219 L 1.746094 5.296875 C 1.746094 3.398438 3.292969 1.855469 5.191406 1.855469 L 35.8125 1.855469 C 37.710938 1.855469 39.257812 3.398438 39.257812 5.296875 L 39.257812 36.699219 C 39.257812 38.597656 37.710938 40.144531 35.8125 40.144531 Z M 5.191406 2.621094 C 3.714844 2.621094 2.511719 3.820312 2.511719 5.296875 L 2.511719 36.699219 C 2.511719 38.175781 3.714844 39.378906 5.191406 39.378906 L 35.8125 39.378906 C 37.289062 39.378906 38.492188 38.175781 38.492188 36.699219 L 38.492188 5.296875 C 38.492188 3.820312 37.289062 2.621094 35.8125 2.621094 Z M 5.191406 2.621094 " fill-opacity="1" fill-rule="nonzero"/></g><path fill="#ffd83f" d="M 38.875 5.296875 C 38.875 3.609375 37.503906 2.238281 35.8125 2.238281 L 5.191406 2.238281 C 3.5 2.238281 2.128906 3.609375 2.128906 5.296875 L 2.128906 10.585938 L 38.875 10.585938 Z M 38.875 5.296875 " fill-opacity="1" fill-rule="nonzero"/><path fill="#000000" d="M 38.875 10.96875 L 2.128906 10.96875 C 1.917969 10.96875 1.746094 10.796875 1.746094 10.585938 L 1.746094 5.296875 C 1.746094 3.398438 3.292969 1.855469 5.191406 1.855469 L 35.8125 1.855469 C 37.710938 1.855469 39.257812 3.398438 39.257812 5.296875 L 39.257812 10.585938 C 39.257812 10.796875 39.085938 10.96875 38.875 10.96875 Z M 2.511719 10.203125 L 38.492188 10.203125 L 38.492188 5.296875 C 38.492188 3.820312 37.289062 2.621094 35.8125 2.621094 L 5.191406 2.621094 C 3.714844 2.621094 2.511719 3.820312 2.511719 5.296875 Z M 2.511719 10.203125 " fill-opacity="1" fill-rule="nonzero"/><g clip-path="url(#ab422e4eaf)"><path fill="#000000" d="M 39.925781 10.96875 L 1.078125 10.96875 C 0.867188 10.96875 0.695312 10.796875 0.695312 10.585938 C 0.695312 10.375 0.867188 10.203125 1.078125 10.203125 L 39.925781 10.203125 C 40.136719 10.203125 40.308594 10.375 40.308594 10.585938 C 40.308594 10.796875 40.136719 10.96875 39.925781 10.96875 Z M 39.925781 10.96875 " fill-opacity="1" fill-rule="nonzero"/></g><path fill="#000000" d="M 31.324219 18.265625 L 9.679688 18.265625 C 9.46875 18.265625 9.296875 18.09375 9.296875 17.882812 C 9.296875 17.671875 9.46875 17.5 9.679688 17.5 L 31.324219 17.5 C 31.535156 17.5 31.707031 17.671875 31.707031 17.882812 C 31.707031 18.09375 31.535156 18.265625 31.324219 18.265625 Z M 31.324219 18.265625 " fill-opacity="1" fill-rule="nonzero"/><path fill="#000000" d="M 31.324219 25.566406 L 9.679688 25.566406 C 9.46875 25.566406 9.296875 25.394531 9.296875 25.183594 C 9.296875 24.972656 9.46875 24.800781 9.679688 24.800781 L 31.324219 24.800781 C 31.535156 24.800781 31.707031 24.972656 31.707031 25.183594 C 31.707031 25.394531 31.535156 25.566406 31.324219 25.566406 Z M 31.324219 25.566406 " fill-opacity="1" fill-rule="nonzero"/><path fill="#000000" d="M 23.34375 32.863281 L 9.679688 32.863281 C 9.46875 32.863281 9.296875 32.691406 9.296875 32.480469 C 9.296875 32.269531 9.46875 32.097656 9.679688 32.097656 L 23.34375 32.097656 C 23.554688 32.097656 23.726562 32.269531 23.726562 32.480469 C 23.726562 32.691406 23.554688 32.863281 23.34375 32.863281 Z M 23.34375 32.863281 " fill-opacity="1" fill-rule="nonzero"/><g clip-path="url(#a790d47627)"><path fill="#000000" d="M 26.371094 4.324219 C 26.160156 4.324219 25.988281 4.15625 25.988281 3.941406 L 25.988281 0.53125 C 25.988281 0.320312 26.160156 0.148438 26.371094 0.148438 C 26.582031 0.148438 26.753906 0.320312 26.753906 0.53125 L 26.753906 3.941406 C 26.753906 4.15625 26.582031 4.324219 26.371094 4.324219 Z M 26.371094 4.324219 " fill-opacity="1" fill-rule="nonzero"/></g><g clip-path="url(#f0880b8d60)"><path fill="#000000" d="M 20.503906 4.324219 C 20.289062 4.324219 20.121094 4.15625 20.121094 3.941406 L 20.121094 0.53125 C 20.121094 0.320312 20.289062 0.148438 20.503906 0.148438 C 20.714844 0.148438 20.886719 0.320312 20.886719 0.53125 L 20.886719 3.941406 C 20.886719 4.15625 20.714844 4.324219 20.503906 4.324219 Z M 20.503906 4.324219 " fill-opacity="1" fill-rule="nonzero"/></g><g clip-path="url(#ddb9754b06)"><path fill="#000000" d="M 32.238281 4.324219 C 32.027344 4.324219 31.855469 4.15625 31.855469 3.941406 L 31.855469 0.53125 C 31.855469 0.320312 32.027344 0.148438 32.238281 0.148438 C 32.449219 0.148438 32.621094 0.320312 32.621094 0.53125 L 32.621094 3.941406 C 32.621094 4.15625 32.449219 4.324219 32.238281 4.324219 Z M 32.238281 4.324219 " fill-opacity="1" fill-rule="nonzero"/></g><g clip-path="url(#65fc4f9525)"><path fill="#000000" d="M 14.632812 4.324219 C 14.421875 4.324219 14.25 4.15625 14.25 3.941406 L 14.25 0.53125 C 14.25 0.320312 14.421875 0.148438 14.632812 0.148438 C 14.84375 0.148438 15.015625 0.320312 15.015625 0.53125 L 15.015625 3.941406 C 15.015625 4.15625 14.84375 4.324219 14.632812 4.324219 Z M 14.632812 4.324219 " fill-opacity="1" fill-rule="nonzero"/></g><g clip-path="url(#e01c639e06)"><path fill="#000000" d="M 8.765625 4.324219 C 8.554688 4.324219 8.382812 4.15625 8.382812 3.941406 L 8.382812 0.53125 C 8.382812 0.320312 8.554688 0.148438 8.765625 0.148438 C 8.976562 0.148438 9.148438 0.320312 9.148438 0.53125 L 9.148438 3.941406 C 9.148438 4.15625 8.976562 4.324219 8.765625 4.324219 Z M 8.765625 4.324219 " fill-opacity="1" fill-rule="nonzero"/></g><g clip-path="url(#ed2a8515db)"><path fill="#fffbe0" d="M 2.128906 36.699219 L 2.128906 5.296875 C 2.128906 3.609375 3.5 2.238281 5.191406 2.238281 L 35.8125 2.238281 C 37.503906 2.238281 38.875 3.609375 38.875 5.296875 L 38.875 36.699219 C 38.875 38.390625 37.503906 39.761719 35.8125 39.761719 L 5.191406 39.761719 C 3.5 39.761719 2.128906 38.390625 2.128906 36.699219 Z M 2.128906 36.699219 " fill-opacity="1" fill-rule="nonzero"/></g><g clip-path="url(#82e51a33d2)"><path fill="#000000" d="M 35.8125 40.144531 L 5.191406 40.144531 C 3.292969 40.144531 1.746094 38.597656 1.746094 36.699219 L 1.746094 5.296875 C 1.746094 3.398438 3.292969 1.855469 5.191406 1.855469 L 35.8125 1.855469 C 37.710938 1.855469 39.257812 3.398438 39.257812 5.296875 L 39.257812 36.699219 C 39.257812 38.597656 37.710938 40.144531 35.8125 40.144531 Z M 5.191406 2.621094 C 3.714844 2.621094 2.511719 3.820312 2.511719 5.296875 L 2.511719 36.699219 C 2.511719 38.175781 3.714844 39.378906 5.191406 39.378906 L 35.8125 39.378906 C 37.289062 39.378906 38.492188 38.175781 38.492188 36.699219 L 38.492188 5.296875 C 38.492188 3.820312 37.289062 2.621094 35.8125 2.621094 Z M 5.191406 2.621094 " fill-opacity="1" fill-rule="nonzero"/></g><path fill="#ffd83f" d="M 38.875 5.296875 C 38.875 3.609375 37.503906 2.238281 35.8125 2.238281 L 5.191406 2.238281 C 3.5 2.238281 2.128906 3.609375 2.128906 5.296875 L 2.128906 10.585938 L 38.875 10.585938 Z M 38.875 5.296875 " fill-opacity="1" fill-rule="nonzero"/><path fill="#000000" d="M 38.875 10.96875 L 2.128906 10.96875 C 1.917969 10.96875 1.746094 10.796875 1.746094 10.585938 L 1.746094 5.296875 C 1.746094 3.398438 3.292969 1.855469 5.191406 1.855469 L 35.8125 1.855469 C 37.710938 1.855469 39.257812 3.398438 39.257812 5.296875 L 39.257812 10.585938 C 39.257812 10.796875 39.085938 10.96875 38.875 10.96875 Z M 2.511719 10.203125 L 38.492188 10.203125 L 38.492188 5.296875 C 38.492188 3.820312 37.289062 2.621094 35.8125 2.621094 L 5.191406 2.621094 C 3.714844 2.621094 2.511719 3.820312 2.511719 5.296875 Z M 2.511719 10.203125 " fill-opacity="1" fill-rule="nonzero"/><g clip-path="url(#505ce22d0e)"><path fill="#000000" d="M 39.925781 10.96875 L 1.078125 10.96875 C 0.867188 10.96875 0.695312 10.796875 0.695312 10.585938 C 0.695312 10.375 0.867188 10.203125 1.078125 10.203125 L 39.925781 10.203125 C 40.136719 10.203125 40.308594 10.375 40.308594 10.585938 C 40.308594 10.796875 40.136719 10.96875 39.925781 10.96875 Z M 39.925781 10.96875 " fill-opacity="1" fill-rule="nonzero"/></g><path fill="#000000" d="M 31.324219 18.265625 L 9.679688 18.265625 C 9.46875 18.265625 9.296875 18.09375 9.296875 17.882812 C 9.296875 17.671875 9.46875 17.5 9.679688 17.5 L 31.324219 17.5 C 31.535156 17.5 31.707031 17.671875 31.707031 17.882812 C 31.707031 18.09375 31.535156 18.265625 31.324219 18.265625 Z M 31.324219 18.265625 " fill-opacity="1" fill-rule="nonzero"/><path fill="#000000" d="M 31.324219 25.566406 L 9.679688 25.566406 C 9.46875 25.566406 9.296875 25.394531 9.296875 25.183594 C 9.296875 24.972656 9.46875 24.800781 9.679688 24.800781 L 31.324219 24.800781 C 31.535156 24.800781 31.707031 24.972656 31.707031 25.183594 C 31.707031 25.394531 31.535156 25.566406 31.324219 25.566406 Z M 31.324219 25.566406 " fill-opacity="1" fill-rule="nonzero"/><path fill="#000000" d="M 23.34375 32.863281 L 9.679688 32.863281 C 9.46875 32.863281 9.296875 32.691406 9.296875 32.480469 C 9.296875 32.269531 9.46875 32.097656 9.679688 32.097656 L 23.34375 32.097656 C 23.554688 32.097656 23.726562 32.269531 23.726562 32.480469 C 23.726562 32.691406 23.554688 32.863281 23.34375 32.863281 Z M 23.34375 32.863281 " fill-opacity="1" fill-rule="nonzero"/><g clip-path="url(#cf6890b99e)"><path fill="#000000" d="M 26.371094 4.324219 C 26.160156 4.324219 25.988281 4.15625 25.988281 3.941406 L 25.988281 0.53125 C 25.988281 0.320312 26.160156 0.148438 26.371094 0.148438 C 26.582031 0.148438 26.753906 0.320312 26.753906 0.53125 L 26.753906 3.941406 C 26.753906 4.15625 26.582031 4.324219 26.371094 4.324219 Z M 26.371094 4.324219 " fill-opacity="1" fill-rule="nonzero"/></g><g clip-path="url(#856092a9ca)"><path fill="#000000" d="M 20.503906 4.324219 C 20.289062 4.324219 20.121094 4.15625 20.121094 3.941406 L 20.121094 0.53125 C 20.121094 0.320312 20.289062 0.148438 20.503906 0.148438 C 20.714844 0.148438 20.886719 0.320312 20.886719 0.53125 L 20.886719 3.941406 C 20.886719 4.15625 20.714844 4.324219 20.503906 4.324219 Z M 20.503906 4.324219 " fill-opacity="1" fill-rule="nonzero"/></g><g clip-path="url(#c69583920f)"><path fill="#000000" d="M 32.238281 4.324219 C 32.027344 4.324219 31.855469 4.15625 31.855469 3.941406 L 31.855469 0.53125 C 31.855469 0.320312 32.027344 0.148438 32.238281 0.148438 C 32.449219 0.148438 32.621094 0.320312 32.621094 0.53125 L 32.621094 3.941406 C 32.621094 4.15625 32.449219 4.324219 32.238281 4.324219 Z M 32.238281 4.324219 " fill-opacity="1" fill-rule="nonzero"/></g><g clip-path="url(#935ed68f44)"><path fill="#000000" d="M 14.632812 4.324219 C 14.421875 4.324219 14.25 4.15625 14.25 3.941406 L 14.25 0.53125 C 14.25 0.320312 14.421875 0.148438 14.632812 0.148438 C 14.84375 0.148438 15.015625 0.320312 15.015625 0.53125 L 15.015625 3.941406 C 15.015625 4.15625 14.84375 4.324219 14.632812 4.324219 Z M 14.632812 4.324219 " fill-opacity="1" fill-rule="nonzero"/></g><g clip-path="url(#0f919c5285)"><path fill="#000000" d="M 8.765625 4.324219 C 8.554688 4.324219 8.382812 4.15625 8.382812 3.941406 L 8.382812 0.53125 C 8.382812 0.320312 8.554688 0.148438 8.765625 0.148438 C 8.976562 0.148438 9.148438 0.320312 9.148438 0.53125 L 9.148438 3.941406 C 9.148438 4.15625 8.976562 4.324219 8.765625 4.324219 Z M 8.765625 4.324219 " fill-opacity="1" fill-rule="nonzero"/></g></svg>