<svg xmlns="http://www.w3.org/2000/svg" xmlns:xlink="http://www.w3.org/1999/xlink" width="45" zoomAndPan="magnify" viewBox="0 0 33.75 44.249999" height="59" preserveAspectRatio="xMidYMid meet" version="1.0"><defs><clipPath id="1835e02b4c"><path d="M 6 7.21875 L 27.125 7.21875 L 27.125 35.984375 L 6 35.984375 Z M 6 7.21875 " clip-rule="nonzero"/></clipPath><clipPath id="d90f7cb968"><path d="M 5.738281 7.21875 L 27.125 7.21875 L 27.125 35.984375 L 5.738281 35.984375 Z M 5.738281 7.21875 " clip-rule="nonzero"/></clipPath><clipPath id="ba261dedd2"><path d="M 21 30 L 27.125 30 L 27.125 35.984375 L 21 35.984375 Z M 21 30 " clip-rule="nonzero"/></clipPath><clipPath id="d8e270cb50"><path d="M 21 29 L 27.125 29 L 27.125 35.984375 L 21 35.984375 Z M 21 29 " clip-rule="nonzero"/></clipPath><clipPath id="450c652840"><path d="M 1 0.117188 L 33 0.117188 L 33 42.890625 L 1 42.890625 Z M 1 0.117188 " clip-rule="nonzero"/></clipPath><clipPath id="4c403e38d1"><path d="M 0.746094 0.117188 L 33.195312 0.117188 L 33.195312 42.890625 L 0.746094 42.890625 Z M 0.746094 0.117188 " clip-rule="nonzero"/></clipPath><clipPath id="0df760f92e"><path d="M 24 34 L 33 34 L 33 42.890625 L 24 42.890625 Z M 24 34 " clip-rule="nonzero"/></clipPath><clipPath id="a644e4526b"><path d="M 24 34 L 33.195312 34 L 33.195312 42.890625 L 24 42.890625 Z M 24 34 " clip-rule="nonzero"/></clipPath></defs><g clip-path="url(#1835e02b4c)"><path fill="#fffbe0" d="M 6.027344 33.546875 L 6.027344 9.460938 C 6.027344 8.378906 6.90625 7.5 7.988281 7.5 L 25.171875 7.5 C 26.253906 7.5 27.132812 8.378906 27.132812 9.460938 L 27.132812 30.226562 C 25.070312 32.289062 23.914062 33.445312 21.851562 35.507812 L 7.988281 35.507812 C 6.90625 35.507812 6.027344 34.628906 6.027344 33.546875 Z M 6.027344 33.546875 " fill-opacity="1" fill-rule="nonzero"/></g><g clip-path="url(#d90f7cb968)"><path fill="#000000" d="M 21.851562 35.785156 L 7.988281 35.785156 C 6.753906 35.785156 5.75 34.78125 5.75 33.546875 L 5.75 9.460938 C 5.75 8.226562 6.753906 7.21875 7.988281 7.21875 L 25.171875 7.21875 C 26.40625 7.21875 27.414062 8.226562 27.414062 9.460938 L 27.414062 30.226562 C 27.414062 30.300781 27.382812 30.371094 27.332031 30.425781 L 22.050781 35.703125 C 21.996094 35.757812 21.925781 35.785156 21.851562 35.785156 Z M 7.988281 7.78125 C 7.0625 7.78125 6.308594 8.535156 6.308594 9.460938 L 6.308594 33.546875 C 6.308594 34.472656 7.0625 35.226562 7.988281 35.226562 L 21.738281 35.226562 L 26.851562 30.109375 L 26.851562 9.460938 C 26.851562 8.535156 26.097656 7.78125 25.171875 7.78125 Z M 7.988281 7.78125 " fill-opacity="1" fill-rule="nonzero"/></g><g clip-path="url(#ba261dedd2)"><path fill="#ffd83f" d="M 23.8125 30.226562 L 27.132812 30.226562 C 25.070312 32.289062 23.914062 33.445312 21.851562 35.507812 L 21.851562 32.1875 C 21.851562 31.105469 22.730469 30.226562 23.8125 30.226562 Z M 23.8125 30.226562 " fill-opacity="1" fill-rule="nonzero"/></g><g clip-path="url(#d8e270cb50)"><path fill="#000000" d="M 21.851562 35.785156 C 21.816406 35.785156 21.78125 35.78125 21.746094 35.765625 C 21.640625 35.722656 21.574219 35.621094 21.574219 35.507812 L 21.574219 32.1875 C 21.574219 30.953125 22.578125 29.945312 23.8125 29.945312 L 27.132812 29.945312 C 27.246094 29.945312 27.347656 30.015625 27.390625 30.121094 C 27.433594 30.222656 27.410156 30.34375 27.332031 30.425781 L 22.050781 35.703125 C 21.996094 35.757812 21.925781 35.785156 21.851562 35.785156 Z M 23.8125 30.507812 C 22.886719 30.507812 22.132812 31.261719 22.132812 32.1875 L 22.132812 34.832031 L 26.457031 30.507812 Z M 23.8125 30.507812 " fill-opacity="1" fill-rule="nonzero"/></g><path fill="#000000" d="M 10.585938 12.859375 L 16.582031 12.859375 L 16.582031 13.417969 L 10.585938 13.417969 Z M 10.585938 12.859375 " fill-opacity="1" fill-rule="nonzero"/><path fill="#000000" d="M 10.585938 17.003906 L 22.574219 17.003906 L 22.574219 17.5625 L 10.585938 17.5625 Z M 10.585938 17.003906 " fill-opacity="1" fill-rule="nonzero"/><path fill="#000000" d="M 10.585938 21.152344 L 22.574219 21.152344 L 22.574219 21.710938 L 10.585938 21.710938 Z M 10.585938 21.152344 " fill-opacity="1" fill-rule="nonzero"/><path fill="#000000" d="M 10.585938 25.296875 L 22.574219 25.296875 L 22.574219 25.859375 L 10.585938 25.859375 Z M 10.585938 25.296875 " fill-opacity="1" fill-rule="nonzero"/><g clip-path="url(#450c652840)"><path fill="#fffbe0" d="M 1.183594 39.535156 L 1.183594 3.472656 C 1.183594 1.851562 2.496094 0.535156 4.117188 0.535156 L 29.847656 0.535156 C 31.46875 0.535156 32.785156 1.851562 32.785156 3.472656 L 32.785156 34.566406 C 29.695312 37.652344 27.964844 39.382812 24.878906 42.472656 L 4.117188 42.472656 C 2.496094 42.472656 1.183594 41.15625 1.183594 39.535156 Z M 1.183594 39.535156 " fill-opacity="1" fill-rule="nonzero"/></g><g clip-path="url(#4c403e38d1)"><path fill="#000000" d="M 24.878906 42.890625 L 4.117188 42.890625 C 2.269531 42.890625 0.761719 41.386719 0.761719 39.535156 L 0.761719 3.472656 C 0.761719 1.621094 2.269531 0.117188 4.117188 0.117188 L 29.847656 0.117188 C 31.699219 0.117188 33.203125 1.621094 33.203125 3.472656 L 33.203125 34.566406 C 33.203125 34.675781 33.160156 34.785156 33.082031 34.863281 L 25.175781 42.769531 C 25.09375 42.847656 24.988281 42.890625 24.878906 42.890625 Z M 4.117188 0.953125 C 2.730469 0.953125 1.601562 2.082031 1.601562 3.472656 L 1.601562 39.535156 C 1.601562 40.921875 2.730469 42.050781 4.117188 42.050781 L 24.703125 42.050781 L 32.363281 34.390625 L 32.363281 3.472656 C 32.363281 2.082031 31.234375 0.953125 29.847656 0.953125 Z M 4.117188 0.953125 " fill-opacity="1" fill-rule="nonzero"/></g><g clip-path="url(#0df760f92e)"><path fill="#ffd83f" d="M 27.8125 34.566406 L 32.785156 34.566406 C 29.695312 37.652344 27.964844 39.382812 24.878906 42.472656 L 24.878906 37.5 C 24.878906 35.878906 26.191406 34.566406 27.8125 34.566406 Z M 27.8125 34.566406 " fill-opacity="1" fill-rule="nonzero"/></g><g clip-path="url(#a644e4526b)"><path fill="#000000" d="M 24.878906 42.890625 C 24.824219 42.890625 24.769531 42.878906 24.71875 42.859375 C 24.558594 42.792969 24.457031 42.640625 24.457031 42.472656 L 24.457031 37.5 C 24.457031 35.652344 25.964844 34.144531 27.8125 34.144531 L 32.785156 34.144531 C 32.953125 34.144531 33.105469 34.25 33.171875 34.40625 C 33.234375 34.5625 33.199219 34.742188 33.082031 34.863281 L 25.175781 42.769531 C 25.09375 42.847656 24.988281 42.890625 24.878906 42.890625 Z M 27.8125 34.984375 C 26.425781 34.984375 25.296875 36.113281 25.296875 37.5 L 25.296875 41.460938 L 31.773438 34.984375 Z M 27.8125 34.984375 " fill-opacity="1" fill-rule="nonzero"/></g><path fill="#000000" d="M 8.007812 8.558594 L 16.984375 8.558594 L 16.984375 9.394531 L 8.007812 9.394531 Z M 8.007812 8.558594 " fill-opacity="1" fill-rule="nonzero"/><path fill="#000000" d="M 8.007812 14.765625 L 25.960938 14.765625 L 25.960938 15.605469 L 8.007812 15.605469 Z M 8.007812 14.765625 " fill-opacity="1" fill-rule="nonzero"/><path fill="#000000" d="M 8.007812 20.976562 L 25.960938 20.976562 L 25.960938 21.816406 L 8.007812 21.816406 Z M 8.007812 20.976562 " fill-opacity="1" fill-rule="nonzero"/><path fill="#000000" d="M 8.007812 27.183594 L 25.960938 27.183594 L 25.960938 28.023438 L 8.007812 28.023438 Z M 8.007812 27.183594 " fill-opacity="1" fill-rule="nonzero"/></svg>