<svg xmlns="http://www.w3.org/2000/svg" xmlns:xlink="http://www.w3.org/1999/xlink" width="54" zoomAndPan="magnify" viewBox="0 0 40.5 42" height="56" preserveAspectRatio="xMidYMid meet" version="1.0"><defs><clipPath id="ed3f452c93"><path d="M 14 8.035156 L 26 8.035156 L 26 26 L 14 26 Z M 14 8.035156 " clip-rule="nonzero"/></clipPath><clipPath id="408629ca16"><path d="M 13 8.035156 L 26 8.035156 L 26 26 L 13 26 Z M 13 8.035156 " clip-rule="nonzero"/></clipPath><clipPath id="3c08267032"><path d="M 8.378906 20 L 31 20 L 31 32 L 8.378906 32 Z M 8.378906 20 " clip-rule="nonzero"/></clipPath><clipPath id="79440f85e0"><path d="M 8.378906 20 L 31.089844 20 L 31.089844 32.210938 L 8.378906 32.210938 Z M 8.378906 20 " clip-rule="nonzero"/></clipPath><clipPath id="dd5d4a799f"><path d="M 19 20 L 21 20 L 21 32.210938 L 19 32.210938 Z M 19 20 " clip-rule="nonzero"/></clipPath><clipPath id="5624676cec"><path d="M 14 8.035156 L 22 8.035156 L 22 14 L 14 14 Z M 14 8.035156 " clip-rule="nonzero"/></clipPath><clipPath id="a3b096ac0a"><path d="M 13 8.035156 L 22 8.035156 L 22 14 L 13 14 Z M 13 8.035156 " clip-rule="nonzero"/></clipPath><clipPath id="625c9fdbd0"><path d="M 18 8.035156 L 26 8.035156 L 26 16 L 18 16 Z M 18 8.035156 " clip-rule="nonzero"/></clipPath><clipPath id="2a01519edb"><path d="M 10 0.078125 L 30 0.078125 L 30 30 L 10 30 Z M 10 0.078125 " clip-rule="nonzero"/></clipPath><clipPath id="1da59dae6d"><path d="M 9 0.078125 L 30 0.078125 L 30 30 L 9 30 Z M 9 0.078125 " clip-rule="nonzero"/></clipPath><clipPath id="c6548bfe36"><path d="M 1 21 L 39 21 L 39 40.367188 L 1 40.367188 Z M 1 21 " clip-rule="nonzero"/></clipPath><clipPath id="4f6ca24c0a"><path d="M 0.523438 20 L 39.351562 20 L 39.351562 40.367188 L 0.523438 40.367188 Z M 0.523438 20 " clip-rule="nonzero"/></clipPath><clipPath id="35e8d69653"><path d="M 19 20 L 21 20 L 21 40.367188 L 19 40.367188 Z M 19 20 " clip-rule="nonzero"/></clipPath><clipPath id="e5b5a66e6b"><path d="M 10 0.078125 L 22 0.078125 L 22 9 L 10 9 Z M 10 0.078125 " clip-rule="nonzero"/></clipPath><clipPath id="b71b4deff1"><path d="M 9 0.078125 L 23 0.078125 L 23 9 L 9 9 Z M 9 0.078125 " clip-rule="nonzero"/></clipPath><clipPath id="fb704672a9"><path d="M 17 0.078125 L 30 0.078125 L 30 13 L 17 13 Z M 17 0.078125 " clip-rule="nonzero"/></clipPath></defs><g clip-path="url(#ed3f452c93)"><path fill="#000000" d="M 25.558594 25.242188 L 14.121094 25.242188 L 14.121094 14.050781 C 14.121094 10.894531 16.683594 8.335938 19.839844 8.335938 C 23 8.335938 25.558594 10.894531 25.558594 14.050781 Z M 25.558594 25.242188 " fill-opacity="1" fill-rule="nonzero"/></g><g clip-path="url(#408629ca16)"><path fill="#000000" d="M 25.558594 25.488281 L 14.121094 25.488281 C 13.988281 25.488281 13.875 25.378906 13.875 25.242188 L 13.875 14.050781 C 13.875 10.765625 16.550781 8.089844 19.839844 8.089844 C 23.128906 8.089844 25.804688 10.765625 25.804688 14.050781 L 25.804688 25.242188 C 25.804688 25.378906 25.695312 25.488281 25.558594 25.488281 Z M 14.371094 24.996094 L 25.3125 24.996094 L 25.3125 14.050781 C 25.3125 11.035156 22.859375 8.582031 19.839844 8.582031 C 16.824219 8.582031 14.371094 11.035156 14.371094 14.050781 Z M 14.371094 24.996094 " fill-opacity="1" fill-rule="nonzero"/></g><path fill="#fffbe0" d="M 15.390625 16.578125 C 14.820312 16.578125 14.359375 16.117188 14.359375 15.546875 L 14.359375 14.9375 C 14.359375 14.367188 14.820312 13.90625 15.390625 13.90625 C 15.960938 13.90625 16.421875 14.367188 16.421875 14.9375 L 16.421875 15.546875 C 16.421875 16.117188 15.960938 16.578125 15.390625 16.578125 Z M 15.390625 16.578125 " fill-opacity="1" fill-rule="nonzero"/><path fill="#000000" d="M 15.390625 16.824219 C 14.6875 16.824219 14.113281 16.25 14.113281 15.546875 L 14.113281 14.9375 C 14.113281 14.234375 14.6875 13.660156 15.390625 13.660156 C 16.09375 13.660156 16.667969 14.234375 16.667969 14.9375 L 16.667969 15.546875 C 16.667969 16.25 16.09375 16.824219 15.390625 16.824219 Z M 15.390625 14.152344 C 14.957031 14.152344 14.609375 14.503906 14.609375 14.9375 L 14.609375 15.546875 C 14.609375 15.980469 14.957031 16.332031 15.390625 16.332031 C 15.824219 16.332031 16.171875 15.980469 16.171875 15.546875 L 16.171875 14.9375 C 16.171875 14.503906 15.824219 14.152344 15.390625 14.152344 Z M 15.390625 14.152344 " fill-opacity="1" fill-rule="nonzero"/><path fill="#fffbe0" d="M 24.289062 16.578125 C 24.859375 16.578125 25.320312 16.117188 25.320312 15.546875 L 25.320312 14.9375 C 25.320312 14.367188 24.859375 13.90625 24.289062 13.90625 C 23.722656 13.90625 23.261719 14.367188 23.261719 14.9375 L 23.261719 15.546875 C 23.261719 16.117188 23.722656 16.578125 24.289062 16.578125 Z M 24.289062 16.578125 " fill-opacity="1" fill-rule="nonzero"/><path fill="#000000" d="M 24.289062 16.824219 C 23.585938 16.824219 23.015625 16.25 23.015625 15.546875 L 23.015625 14.9375 C 23.015625 14.234375 23.585938 13.660156 24.289062 13.660156 C 24.996094 13.660156 25.566406 14.234375 25.566406 14.9375 L 25.566406 15.546875 C 25.566406 16.25 24.996094 16.824219 24.289062 16.824219 Z M 24.289062 14.152344 C 23.859375 14.152344 23.507812 14.503906 23.507812 14.9375 L 23.507812 15.546875 C 23.507812 15.980469 23.859375 16.332031 24.289062 16.332031 C 24.722656 16.332031 25.074219 15.980469 25.074219 15.546875 L 25.074219 14.9375 C 25.074219 14.503906 24.722656 14.152344 24.289062 14.152344 Z M 24.289062 14.152344 " fill-opacity="1" fill-rule="nonzero"/><path fill="#fffbe0" d="M 24.289062 12.398438 L 24.289062 14.941406 C 24.289062 17.398438 22.296875 19.390625 19.839844 19.390625 C 17.382812 19.390625 15.390625 17.398438 15.390625 14.941406 L 15.390625 12.398438 " fill-opacity="1" fill-rule="nonzero"/><path fill="#000000" d="M 19.839844 19.636719 C 17.25 19.636719 15.144531 17.53125 15.144531 14.941406 L 15.144531 12.398438 C 15.144531 12.261719 15.253906 12.152344 15.390625 12.152344 C 15.527344 12.152344 15.636719 12.261719 15.636719 12.398438 L 15.636719 14.941406 C 15.636719 17.257812 17.523438 19.144531 19.839844 19.144531 C 22.160156 19.144531 24.042969 17.257812 24.042969 14.941406 L 24.042969 12.398438 C 24.042969 12.261719 24.15625 12.152344 24.289062 12.152344 C 24.425781 12.152344 24.535156 12.261719 24.535156 12.398438 L 24.535156 14.941406 C 24.535156 17.53125 22.429688 19.636719 19.839844 19.636719 Z M 19.839844 19.636719 " fill-opacity="1" fill-rule="nonzero"/><g clip-path="url(#3c08267032)"><path fill="#ffd83f" d="M 19.839844 20.519531 C 14.304688 20.519531 9.703125 24.503906 8.742188 29.761719 C 8.546875 30.824219 9.359375 31.804688 10.4375 31.804688 L 29.242188 31.804688 C 30.324219 31.804688 31.132812 30.824219 30.941406 29.761719 C 29.980469 24.503906 25.375 20.519531 19.839844 20.519531 Z M 19.839844 20.519531 " fill-opacity="1" fill-rule="nonzero"/></g><g clip-path="url(#79440f85e0)"><path fill="#000000" d="M 29.242188 32.050781 L 10.4375 32.050781 C 9.851562 32.050781 9.300781 31.792969 8.925781 31.339844 C 8.546875 30.890625 8.394531 30.296875 8.5 29.71875 C 9.5 24.246094 14.269531 20.273438 19.839844 20.273438 C 25.414062 20.273438 30.183594 24.246094 31.183594 29.71875 C 31.289062 30.296875 31.132812 30.890625 30.757812 31.339844 C 30.382812 31.792969 29.828125 32.050781 29.242188 32.050781 Z M 19.839844 20.765625 C 14.507812 20.765625 9.941406 24.566406 8.984375 29.804688 C 8.902344 30.242188 9.019531 30.6875 9.304688 31.027344 C 9.585938 31.363281 10 31.558594 10.4375 31.558594 L 29.242188 31.558594 C 29.683594 31.558594 30.097656 31.363281 30.378906 31.027344 C 30.660156 30.6875 30.777344 30.242188 30.699219 29.804688 C 29.742188 24.566406 25.175781 20.765625 19.839844 20.765625 Z M 19.839844 20.765625 " fill-opacity="1" fill-rule="nonzero"/></g><path fill="#ffd83f" d="M 15.683594 21.308594 L 17.101562 23.316406 L 19.839844 20.519531 C 19.839844 20.519531 17.4375 20.519531 15.683594 21.308594 Z M 15.683594 21.308594 " fill-opacity="1" fill-rule="nonzero"/><path fill="#000000" d="M 17.101562 23.5625 C 17.097656 23.5625 17.089844 23.5625 17.082031 23.5625 C 17.011719 23.554688 16.945312 23.519531 16.902344 23.457031 L 15.484375 21.453125 C 15.441406 21.394531 15.425781 21.316406 15.445312 21.246094 C 15.464844 21.175781 15.515625 21.117188 15.582031 21.085938 C 17.363281 20.28125 19.742188 20.273438 19.839844 20.273438 C 19.941406 20.273438 20.027344 20.332031 20.066406 20.425781 C 20.105469 20.515625 20.085938 20.621094 20.015625 20.691406 L 17.28125 23.488281 C 17.234375 23.535156 17.167969 23.5625 17.101562 23.5625 Z M 16.0625 21.417969 L 17.132812 22.933594 L 19.230469 20.792969 C 18.480469 20.839844 17.167969 20.988281 16.0625 21.417969 Z M 16.0625 21.417969 " fill-opacity="1" fill-rule="nonzero"/><path fill="#ffd83f" d="M 23.996094 21.308594 L 22.578125 23.316406 L 19.839844 20.519531 C 19.839844 20.519531 22.242188 20.519531 23.996094 21.308594 Z M 23.996094 21.308594 " fill-opacity="1" fill-rule="nonzero"/><path fill="#000000" d="M 22.578125 23.5625 C 22.511719 23.5625 22.449219 23.535156 22.402344 23.488281 L 19.664062 20.691406 C 19.59375 20.621094 19.574219 20.515625 19.613281 20.425781 C 19.652344 20.332031 19.742188 20.273438 19.839844 20.273438 C 19.941406 20.273438 22.316406 20.28125 24.097656 21.085938 C 24.164062 21.117188 24.214844 21.175781 24.234375 21.246094 C 24.253906 21.316406 24.242188 21.394531 24.199219 21.453125 L 22.777344 23.457031 C 22.738281 23.519531 22.671875 23.554688 22.597656 23.5625 C 22.589844 23.5625 22.585938 23.5625 22.578125 23.5625 Z M 20.453125 20.792969 L 22.546875 22.933594 L 23.617188 21.417969 C 22.511719 20.988281 21.203125 20.839844 20.453125 20.792969 Z M 20.453125 20.792969 " fill-opacity="1" fill-rule="nonzero"/><g clip-path="url(#dd5d4a799f)"><path fill="#000000" d="M 19.839844 32.050781 C 19.703125 32.050781 19.59375 31.9375 19.59375 31.804688 L 19.59375 20.519531 C 19.59375 20.382812 19.703125 20.273438 19.839844 20.273438 C 19.976562 20.273438 20.085938 20.382812 20.085938 20.519531 L 20.085938 31.804688 C 20.085938 31.9375 19.976562 32.050781 19.839844 32.050781 Z M 19.839844 32.050781 " fill-opacity="1" fill-rule="nonzero"/></g><path fill="#000000" d="M 21.949219 26.339844 C 21.949219 26.5 21.894531 26.640625 21.78125 26.753906 C 21.664062 26.867188 21.527344 26.925781 21.367188 26.925781 C 21.207031 26.925781 21.066406 26.867188 20.953125 26.753906 C 20.839844 26.640625 20.78125 26.5 20.78125 26.339844 C 20.78125 26.179688 20.839844 26.042969 20.953125 25.925781 C 21.066406 25.8125 21.207031 25.757812 21.367188 25.757812 C 21.527344 25.757812 21.664062 25.8125 21.78125 25.925781 C 21.894531 26.042969 21.949219 26.179688 21.949219 26.339844 Z M 21.949219 26.339844 " fill-opacity="1" fill-rule="nonzero"/><path fill="#000000" d="M 21.949219 29.472656 C 21.949219 29.632812 21.894531 29.769531 21.78125 29.882812 C 21.664062 30 21.527344 30.054688 21.367188 30.054688 C 21.207031 30.054688 21.066406 30 20.953125 29.882812 C 20.839844 29.769531 20.78125 29.632812 20.78125 29.472656 C 20.78125 29.308594 20.839844 29.171875 20.953125 29.058594 C 21.066406 28.945312 21.207031 28.886719 21.367188 28.886719 C 21.527344 28.886719 21.664062 28.945312 21.78125 29.058594 C 21.894531 29.171875 21.949219 29.308594 21.949219 29.472656 Z M 21.949219 29.472656 " fill-opacity="1" fill-rule="nonzero"/><g clip-path="url(#5624676cec)"><path fill="#000000" d="M 19.839844 8.335938 C 19.390625 8.335938 18.949219 8.390625 18.527344 8.488281 C 16.363281 8.996094 14.671875 10.734375 14.234375 12.925781 C 15.628906 13.242188 17.140625 13.042969 18.460938 12.246094 C 18.632812 12.140625 18.796875 12.027344 18.957031 11.910156 C 20.101562 11.046875 20.839844 9.8125 21.109375 8.476562 C 20.699219 8.386719 20.277344 8.335938 19.839844 8.335938 Z M 19.839844 8.335938 " fill-opacity="1" fill-rule="nonzero"/></g><g clip-path="url(#a3b096ac0a)"><path fill="#000000" d="M 15.515625 13.316406 C 15.070312 13.316406 14.621094 13.265625 14.179688 13.167969 C 14.050781 13.136719 13.964844 13.007812 13.992188 12.878906 C 14.449219 10.597656 16.207031 8.78125 18.472656 8.25 C 19.359375 8.039062 20.273438 8.035156 21.164062 8.238281 C 21.292969 8.265625 21.378906 8.394531 21.351562 8.527344 C 21.0625 9.957031 20.265625 11.230469 19.105469 12.105469 C 18.9375 12.230469 18.765625 12.347656 18.589844 12.457031 C 17.648438 13.023438 16.589844 13.316406 15.515625 13.316406 Z M 14.53125 12.734375 C 15.84375 12.972656 17.1875 12.730469 18.335938 12.035156 C 18.496094 11.9375 18.65625 11.828125 18.808594 11.714844 C 19.804688 10.960938 20.511719 9.886719 20.8125 8.667969 C 20.074219 8.535156 19.316406 8.554688 18.585938 8.726562 C 16.585938 9.199219 15.019531 10.757812 14.53125 12.734375 Z M 14.53125 12.734375 " fill-opacity="1" fill-rule="nonzero"/></g><g clip-path="url(#625c9fdbd0)"><path fill="#000000" d="M 21.109375 8.476562 C 20.699219 8.386719 20.277344 8.335938 19.839844 8.335938 C 19.390625 8.335938 18.949219 8.390625 18.527344 8.488281 C 18.316406 9.648438 18.46875 10.84375 18.957031 11.910156 C 19.363281 12.800781 20 13.59375 20.859375 14.199219 C 22.277344 15.199219 23.996094 15.460938 25.558594 15.066406 L 25.558594 14.050781 C 25.558594 11.332031 23.65625 9.054688 21.109375 8.476562 Z M 21.109375 8.476562 " fill-opacity="1" fill-rule="nonzero"/><path fill="#000000" d="M 24.148438 15.488281 C 22.929688 15.488281 21.730469 15.113281 20.714844 14.398438 C 19.855469 13.792969 19.167969 12.96875 18.730469 12.011719 C 18.21875 10.890625 18.0625 9.65625 18.285156 8.445312 C 18.304688 8.347656 18.375 8.269531 18.472656 8.25 C 19.359375 8.039062 20.273438 8.035156 21.164062 8.238281 C 23.894531 8.855469 25.804688 11.25 25.804688 14.050781 L 25.804688 15.066406 C 25.804688 15.179688 25.726562 15.277344 25.617188 15.304688 C 25.132812 15.425781 24.636719 15.488281 24.148438 15.488281 Z M 18.742188 8.691406 C 18.582031 9.753906 18.730469 10.828125 19.179688 11.808594 C 19.582031 12.683594 20.210938 13.441406 21 13.996094 C 22.253906 14.882812 23.816406 15.195312 25.3125 14.871094 L 25.3125 14.050781 C 25.3125 11.480469 23.5625 9.285156 21.054688 8.71875 C 20.292969 8.546875 19.507812 8.535156 18.742188 8.691406 Z M 18.742188 8.691406 " fill-opacity="1" fill-rule="nonzero"/></g><g clip-path="url(#2a01519edb)"><path fill="#000000" d="M 29.472656 29.082031 L 10.199219 29.082031 L 10.199219 10.21875 C 10.199219 4.898438 14.511719 0.582031 19.835938 0.582031 C 25.160156 0.582031 29.472656 4.898438 29.472656 10.21875 Z M 29.472656 29.082031 " fill-opacity="1" fill-rule="nonzero"/></g><g clip-path="url(#1da59dae6d)"><path fill="#000000" d="M 29.472656 29.496094 L 10.199219 29.496094 C 9.96875 29.496094 9.785156 29.308594 9.785156 29.082031 L 9.785156 10.21875 C 9.785156 4.675781 14.292969 0.167969 19.835938 0.167969 C 25.378906 0.167969 29.886719 4.675781 29.886719 10.21875 L 29.886719 29.082031 C 29.886719 29.308594 29.703125 29.496094 29.472656 29.496094 Z M 10.613281 28.664062 L 29.058594 28.664062 L 29.058594 10.21875 C 29.058594 5.132812 24.921875 0.996094 19.835938 0.996094 C 14.75 0.996094 10.613281 5.132812 10.613281 10.21875 Z M 10.613281 28.664062 " fill-opacity="1" fill-rule="nonzero"/></g><path fill="#fffbe0" d="M 12.335938 14.472656 C 11.378906 14.472656 10.601562 13.695312 10.601562 12.738281 L 10.601562 11.707031 C 10.601562 10.75 11.378906 9.972656 12.335938 9.972656 C 13.292969 9.972656 14.070312 10.75 14.070312 11.707031 L 14.070312 12.738281 C 14.070312 13.695312 13.292969 14.472656 12.335938 14.472656 Z M 12.335938 14.472656 " fill-opacity="1" fill-rule="nonzero"/><path fill="#000000" d="M 12.335938 14.890625 C 11.148438 14.890625 10.1875 13.925781 10.1875 12.738281 L 10.1875 11.707031 C 10.1875 10.523438 11.148438 9.558594 12.335938 9.558594 C 13.523438 9.558594 14.484375 10.523438 14.484375 11.707031 L 14.484375 12.738281 C 14.484375 13.925781 13.523438 14.890625 12.335938 14.890625 Z M 12.335938 10.390625 C 11.609375 10.390625 11.015625 10.980469 11.015625 11.707031 L 11.015625 12.738281 C 11.015625 13.464844 11.609375 14.058594 12.335938 14.058594 C 13.0625 14.058594 13.65625 13.464844 13.65625 12.738281 L 13.65625 11.707031 C 13.65625 10.980469 13.0625 10.390625 12.335938 10.390625 Z M 12.335938 10.390625 " fill-opacity="1" fill-rule="nonzero"/><path fill="#fffbe0" d="M 27.335938 14.472656 C 28.292969 14.472656 29.070312 13.695312 29.070312 12.738281 L 29.070312 11.707031 C 29.070312 10.75 28.292969 9.972656 27.335938 9.972656 C 26.378906 9.972656 25.601562 10.75 25.601562 11.707031 L 25.601562 12.738281 C 25.601562 13.695312 26.378906 14.472656 27.335938 14.472656 Z M 27.335938 14.472656 " fill-opacity="1" fill-rule="nonzero"/><path fill="#000000" d="M 27.335938 14.890625 C 26.152344 14.890625 25.1875 13.925781 25.1875 12.738281 L 25.1875 11.707031 C 25.1875 10.523438 26.152344 9.558594 27.335938 9.558594 C 28.523438 9.558594 29.488281 10.523438 29.488281 11.707031 L 29.488281 12.738281 C 29.488281 13.925781 28.523438 14.890625 27.335938 14.890625 Z M 27.335938 10.390625 C 26.609375 10.390625 26.015625 10.980469 26.015625 11.707031 L 26.015625 12.738281 C 26.015625 13.464844 26.609375 14.058594 27.335938 14.058594 C 28.0625 14.058594 28.65625 13.464844 28.65625 12.738281 L 28.65625 11.707031 C 28.65625 10.980469 28.0625 10.390625 27.335938 10.390625 Z M 27.335938 10.390625 " fill-opacity="1" fill-rule="nonzero"/><path fill="#fffbe0" d="M 27.335938 7.429688 L 27.335938 11.714844 C 27.335938 15.859375 23.976562 19.21875 19.835938 19.21875 C 15.695312 19.21875 12.335938 15.859375 12.335938 11.714844 L 12.335938 7.429688 " fill-opacity="1" fill-rule="nonzero"/><path fill="#000000" d="M 19.835938 19.632812 C 15.472656 19.632812 11.921875 16.082031 11.921875 11.714844 L 11.921875 7.429688 C 11.921875 7.203125 12.105469 7.015625 12.335938 7.015625 C 12.566406 7.015625 12.75 7.203125 12.75 7.429688 L 12.75 11.714844 C 12.75 15.625 15.929688 18.800781 19.835938 18.800781 C 23.742188 18.800781 26.921875 15.625 26.921875 11.714844 L 26.921875 7.429688 C 26.921875 7.203125 27.105469 7.015625 27.335938 7.015625 C 27.566406 7.015625 27.75 7.203125 27.75 7.429688 L 27.75 11.714844 C 27.75 16.082031 24.199219 19.632812 19.835938 19.632812 Z M 19.835938 19.632812 " fill-opacity="1" fill-rule="nonzero"/><g clip-path="url(#c6548bfe36)"><path fill="#ffd83f" d="M 19.835938 21.117188 C 10.507812 21.117188 2.75 27.835938 1.128906 36.695312 C 0.800781 38.484375 2.167969 40.136719 3.988281 40.136719 L 35.683594 40.136719 C 37.503906 40.136719 38.871094 38.484375 38.542969 36.695312 C 36.921875 27.835938 29.164062 21.117188 19.835938 21.117188 Z M 19.835938 21.117188 " fill-opacity="1" fill-rule="nonzero"/></g><g clip-path="url(#4f6ca24c0a)"><path fill="#000000" d="M 35.683594 40.550781 L 3.988281 40.550781 C 3 40.550781 2.070312 40.117188 1.4375 39.359375 C 0.804688 38.597656 0.542969 37.597656 0.71875 36.621094 C 2.40625 27.398438 10.445312 20.703125 19.835938 20.703125 C 29.226562 20.703125 37.265625 27.398438 38.953125 36.621094 C 39.128906 37.597656 38.867188 38.597656 38.234375 39.359375 C 37.601562 40.117188 36.671875 40.550781 35.683594 40.550781 Z M 19.835938 21.535156 C 10.847656 21.535156 3.152344 27.941406 1.535156 36.769531 C 1.402344 37.503906 1.597656 38.253906 2.078125 38.828125 C 2.550781 39.394531 3.246094 39.722656 3.988281 39.722656 L 35.683594 39.722656 C 36.425781 39.722656 37.121094 39.394531 37.59375 38.828125 C 38.074219 38.253906 38.269531 37.503906 38.136719 36.769531 C 36.519531 27.941406 28.824219 21.535156 19.835938 21.535156 Z M 19.835938 21.535156 " fill-opacity="1" fill-rule="nonzero"/></g><path fill="#ffd83f" d="M 12.832031 22.453125 L 15.222656 25.832031 L 19.835938 21.117188 C 19.835938 21.117188 15.785156 21.117188 12.832031 22.453125 Z M 12.832031 22.453125 " fill-opacity="1" fill-rule="nonzero"/><path fill="#000000" d="M 15.222656 26.25 C 15.210938 26.25 15.199219 26.246094 15.191406 26.246094 C 15.066406 26.238281 14.953125 26.171875 14.882812 26.074219 L 12.492188 22.691406 C 12.421875 22.589844 12.398438 22.460938 12.429688 22.34375 C 12.460938 22.222656 12.546875 22.125 12.660156 22.074219 C 15.660156 20.71875 19.667969 20.703125 19.835938 20.703125 C 20.003906 20.703125 20.152344 20.804688 20.21875 20.957031 C 20.285156 21.113281 20.25 21.289062 20.132812 21.410156 L 15.519531 26.125 C 15.441406 26.203125 15.332031 26.25 15.222656 26.25 Z M 13.46875 22.632812 L 15.273438 25.1875 L 18.808594 21.578125 C 17.542969 21.660156 15.335938 21.90625 13.46875 22.632812 Z M 13.46875 22.632812 " fill-opacity="1" fill-rule="nonzero"/><path fill="#ffd83f" d="M 26.839844 22.453125 L 24.449219 25.832031 L 19.835938 21.117188 C 19.835938 21.117188 23.886719 21.117188 26.839844 22.453125 Z M 26.839844 22.453125 " fill-opacity="1" fill-rule="nonzero"/><path fill="#000000" d="M 24.449219 26.25 C 24.339844 26.25 24.230469 26.203125 24.152344 26.125 L 19.539062 21.410156 C 19.421875 21.289062 19.386719 21.113281 19.453125 20.957031 C 19.519531 20.804688 19.667969 20.703125 19.835938 20.703125 C 20.003906 20.703125 24.011719 20.71875 27.011719 22.074219 C 27.125 22.125 27.210938 22.222656 27.242188 22.34375 C 27.273438 22.460938 27.25 22.589844 27.179688 22.691406 L 24.789062 26.074219 C 24.71875 26.171875 24.605469 26.238281 24.480469 26.246094 C 24.472656 26.246094 24.460938 26.25 24.449219 26.25 Z M 20.863281 21.578125 L 24.398438 25.1875 L 26.203125 22.632812 C 24.339844 21.90625 22.128906 21.660156 20.863281 21.578125 Z M 20.863281 21.578125 " fill-opacity="1" fill-rule="nonzero"/><g clip-path="url(#35e8d69653)"><path fill="#000000" d="M 19.835938 40.550781 C 19.605469 40.550781 19.421875 40.367188 19.421875 40.136719 L 19.421875 21.117188 C 19.421875 20.890625 19.605469 20.703125 19.835938 20.703125 C 20.066406 20.703125 20.25 20.890625 20.25 21.117188 L 20.25 40.136719 C 20.25 40.367188 20.066406 40.550781 19.835938 40.550781 Z M 19.835938 40.550781 " fill-opacity="1" fill-rule="nonzero"/></g><path fill="#000000" d="M 23.390625 30.929688 C 23.390625 31.058594 23.367188 31.183594 23.316406 31.304688 C 23.269531 31.425781 23.195312 31.53125 23.105469 31.625 C 23.011719 31.71875 22.90625 31.789062 22.785156 31.839844 C 22.664062 31.886719 22.539062 31.914062 22.40625 31.914062 C 22.277344 31.914062 22.152344 31.886719 22.03125 31.839844 C 21.910156 31.789062 21.804688 31.71875 21.710938 31.625 C 21.621094 31.53125 21.546875 31.425781 21.5 31.304688 C 21.449219 31.183594 21.421875 31.058594 21.421875 30.929688 C 21.421875 30.796875 21.449219 30.671875 21.5 30.550781 C 21.546875 30.433594 21.621094 30.324219 21.710938 30.234375 C 21.804688 30.140625 21.910156 30.070312 22.03125 30.019531 C 22.152344 29.96875 22.277344 29.945312 22.40625 29.945312 C 22.539062 29.945312 22.664062 29.96875 22.785156 30.019531 C 22.90625 30.070312 23.011719 30.140625 23.105469 30.234375 C 23.195312 30.324219 23.269531 30.433594 23.316406 30.550781 C 23.367188 30.671875 23.390625 30.796875 23.390625 30.929688 Z M 23.390625 30.929688 " fill-opacity="1" fill-rule="nonzero"/><path fill="#000000" d="M 23.390625 36.207031 C 23.390625 36.335938 23.367188 36.460938 23.316406 36.582031 C 23.269531 36.703125 23.195312 36.808594 23.105469 36.902344 C 23.011719 36.996094 22.90625 37.066406 22.785156 37.117188 C 22.664062 37.164062 22.539062 37.191406 22.40625 37.191406 C 22.277344 37.191406 22.152344 37.164062 22.03125 37.117188 C 21.910156 37.066406 21.804688 36.996094 21.710938 36.902344 C 21.621094 36.808594 21.546875 36.703125 21.5 36.582031 C 21.449219 36.460938 21.421875 36.335938 21.421875 36.207031 C 21.421875 36.074219 21.449219 35.949219 21.5 35.828125 C 21.546875 35.707031 21.621094 35.601562 21.710938 35.511719 C 21.804688 35.417969 21.910156 35.347656 22.03125 35.296875 C 22.152344 35.246094 22.277344 35.222656 22.40625 35.222656 C 22.539062 35.222656 22.664062 35.246094 22.785156 35.296875 C 22.90625 35.347656 23.011719 35.417969 23.105469 35.511719 C 23.195312 35.601562 23.269531 35.707031 23.316406 35.828125 C 23.367188 35.949219 23.390625 36.074219 23.390625 36.207031 Z M 23.390625 36.207031 " fill-opacity="1" fill-rule="nonzero"/><g clip-path="url(#e5b5a66e6b)"><path fill="#000000" d="M 19.835938 0.582031 C 19.074219 0.582031 18.335938 0.671875 17.625 0.839844 C 13.976562 1.699219 11.125 4.625 10.386719 8.320312 C 12.738281 8.855469 15.289062 8.519531 17.511719 7.171875 C 17.804688 6.996094 18.078125 6.808594 18.34375 6.609375 C 20.273438 5.152344 21.523438 3.070312 21.972656 0.824219 C 21.285156 0.667969 20.570312 0.582031 19.835938 0.582031 Z M 19.835938 0.582031 " fill-opacity="1" fill-rule="nonzero"/></g><g clip-path="url(#b71b4deff1)"><path fill="#000000" d="M 12.542969 8.980469 C 11.796875 8.980469 11.042969 8.894531 10.296875 8.726562 C 10.074219 8.675781 9.9375 8.460938 9.980469 8.238281 C 10.746094 4.394531 13.710938 1.332031 17.527344 0.4375 C 19.023438 0.0859375 20.566406 0.078125 22.066406 0.417969 C 22.285156 0.46875 22.425781 0.683594 22.382812 0.90625 C 21.894531 3.320312 20.550781 5.464844 18.59375 6.941406 C 18.316406 7.152344 18.023438 7.347656 17.726562 7.527344 C 16.144531 8.484375 14.359375 8.980469 12.542969 8.980469 Z M 10.882812 8 C 13.097656 8.402344 15.363281 7.988281 17.296875 6.816406 C 17.570312 6.652344 17.839844 6.472656 18.09375 6.277344 C 19.777344 5.007812 20.96875 3.195312 21.476562 1.144531 C 20.226562 0.921875 18.953125 0.953125 17.71875 1.246094 C 14.351562 2.035156 11.707031 4.664062 10.882812 8 Z M 10.882812 8 " fill-opacity="1" fill-rule="nonzero"/></g><g clip-path="url(#fb704672a9)"><path fill="#000000" d="M 21.972656 0.824219 C 21.285156 0.667969 20.570312 0.582031 19.835938 0.582031 C 19.074219 0.582031 18.335938 0.671875 17.625 0.839844 C 17.265625 2.792969 17.523438 4.8125 18.34375 6.609375 C 19.03125 8.105469 20.105469 9.449219 21.550781 10.464844 C 23.945312 12.152344 26.839844 12.59375 29.472656 11.925781 L 29.472656 10.21875 C 29.472656 5.632812 26.265625 1.796875 21.972656 0.824219 Z M 21.972656 0.824219 " fill-opacity="1" fill-rule="nonzero"/><path fill="#000000" d="M 27.09375 12.636719 C 25.042969 12.636719 23.019531 12.011719 21.3125 10.804688 C 19.859375 9.78125 18.703125 8.390625 17.964844 6.78125 C 17.101562 4.890625 16.839844 2.808594 17.214844 0.765625 C 17.246094 0.601562 17.367188 0.472656 17.527344 0.4375 C 19.023438 0.0859375 20.566406 0.078125 22.066406 0.417969 C 26.671875 1.460938 29.886719 5.492188 29.886719 10.21875 L 29.886719 11.925781 C 29.886719 12.117188 29.757812 12.28125 29.574219 12.328125 C 28.753906 12.535156 27.921875 12.636719 27.09375 12.636719 Z M 17.988281 1.1875 C 17.710938 2.972656 17.964844 4.785156 18.722656 6.4375 C 19.398438 7.914062 20.457031 9.1875 21.789062 10.125 C 23.902344 11.617188 26.535156 12.144531 29.058594 11.597656 L 29.058594 10.21875 C 29.058594 5.882812 26.105469 2.1875 21.882812 1.226562 C 20.597656 0.9375 19.273438 0.921875 17.988281 1.1875 Z M 17.988281 1.1875 " fill-opacity="1" fill-rule="nonzero"/></g></svg>