<svg xmlns="http://www.w3.org/2000/svg" xmlns:xlink="http://www.w3.org/1999/xlink" width="56" zoomAndPan="magnify" viewBox="0 0 42 42" height="56" preserveAspectRatio="xMidYMid meet" version="1.0"><defs><clipPath id="164126a9df"><path d="M 7.195312 7 L 34 7 L 34 34 L 7.195312 34 Z M 7.195312 7 " clip-rule="nonzero"/></clipPath><clipPath id="4097de0a91"><path d="M 7.195312 6.925781 L 34.300781 6.925781 L 34.300781 34.03125 L 7.195312 34.03125 Z M 7.195312 6.925781 " clip-rule="nonzero"/></clipPath><clipPath id="69788ca4b7"><path d="M 1 0.078125 L 41 0.078125 L 41 40 L 1 40 Z M 1 0.078125 " clip-rule="nonzero"/></clipPath><clipPath id="99412a80a3"><path d="M 0.882812 0.078125 L 41.171875 0.078125 L 41.171875 40.367188 L 0.882812 40.367188 Z M 0.882812 0.078125 " clip-rule="nonzero"/></clipPath></defs><g clip-path="url(#164126a9df)"><path fill="#ce69cd" d="M 34 20.476562 C 34 21.347656 33.914062 22.210938 33.746094 23.0625 C 33.574219 23.914062 33.324219 24.746094 32.992188 25.546875 C 32.65625 26.351562 32.25 27.117188 31.765625 27.839844 C 31.28125 28.5625 30.734375 29.230469 30.117188 29.847656 C 29.503906 30.460938 28.832031 31.011719 28.109375 31.496094 C 27.386719 31.976562 26.621094 32.386719 25.820312 32.71875 C 25.015625 33.050781 24.1875 33.304688 23.332031 33.472656 C 22.480469 33.644531 21.617188 33.726562 20.75 33.726562 C 19.878906 33.726562 19.015625 33.644531 18.164062 33.472656 C 17.308594 33.304688 16.480469 33.050781 15.675781 32.71875 C 14.875 32.386719 14.109375 31.976562 13.386719 31.496094 C 12.664062 31.011719 11.992188 30.460938 11.378906 29.847656 C 10.761719 29.230469 10.214844 28.5625 9.730469 27.839844 C 9.246094 27.117188 8.839844 26.351562 8.507812 25.546875 C 8.171875 24.746094 7.921875 23.914062 7.753906 23.0625 C 7.582031 22.210938 7.496094 21.347656 7.496094 20.476562 C 7.496094 19.605469 7.582031 18.746094 7.753906 17.890625 C 7.921875 17.039062 8.171875 16.210938 8.507812 15.40625 C 8.839844 14.601562 9.246094 13.839844 9.730469 13.117188 C 10.214844 12.390625 10.761719 11.722656 11.378906 11.109375 C 11.992188 10.492188 12.664062 9.941406 13.386719 9.460938 C 14.109375 8.976562 14.875 8.566406 15.675781 8.234375 C 16.480469 7.902344 17.308594 7.652344 18.164062 7.480469 C 19.015625 7.3125 19.878906 7.226562 20.75 7.226562 C 21.617188 7.226562 22.480469 7.3125 23.332031 7.480469 C 24.1875 7.652344 25.015625 7.902344 25.820312 8.234375 C 26.621094 8.566406 27.386719 8.976562 28.109375 9.460938 C 28.832031 9.941406 29.503906 10.492188 30.117188 11.109375 C 30.734375 11.722656 31.28125 12.390625 31.765625 13.117188 C 32.25 13.839844 32.65625 14.601562 32.992188 15.40625 C 33.324219 16.210938 33.574219 17.039062 33.746094 17.890625 C 33.914062 18.746094 34 19.605469 34 20.476562 Z M 34 20.476562 " fill-opacity="1" fill-rule="nonzero"/></g><g clip-path="url(#4097de0a91)"><path fill="#353333" d="M 20.75 34.03125 C 13.277344 34.03125 7.195312 27.949219 7.195312 20.476562 C 7.195312 13.003906 13.277344 6.925781 20.75 6.925781 C 28.222656 6.925781 34.300781 13.003906 34.300781 20.476562 C 34.300781 27.949219 28.222656 34.03125 20.75 34.03125 Z M 20.75 7.527344 C 13.609375 7.527344 7.800781 13.335938 7.800781 20.476562 C 7.800781 27.617188 13.609375 33.425781 20.75 33.425781 C 27.886719 33.425781 33.699219 27.617188 33.699219 20.476562 C 33.699219 13.335938 27.886719 7.527344 20.75 7.527344 Z M 20.75 7.527344 " fill-opacity="1" fill-rule="nonzero"/></g><path fill="#f9b2dc" d="M 31.484375 20.476562 C 31.484375 21.183594 31.414062 21.878906 31.277344 22.570312 C 31.140625 23.261719 30.9375 23.933594 30.667969 24.585938 C 30.398438 25.238281 30.066406 25.855469 29.675781 26.441406 C 29.285156 27.027344 28.839844 27.570312 28.339844 28.070312 C 27.839844 28.566406 27.300781 29.011719 26.714844 29.402344 C 26.125 29.796875 25.507812 30.125 24.855469 30.394531 C 24.207031 30.667969 23.535156 30.871094 22.84375 31.007812 C 22.152344 31.144531 21.453125 31.214844 20.75 31.214844 C 20.042969 31.214844 19.34375 31.144531 18.652344 31.007812 C 17.960938 30.871094 17.289062 30.667969 16.640625 30.394531 C 15.988281 30.125 15.371094 29.796875 14.785156 29.402344 C 14.199219 29.011719 13.65625 28.566406 13.15625 28.070312 C 12.65625 27.570312 12.214844 27.027344 11.820312 26.441406 C 11.429688 25.855469 11.097656 25.238281 10.828125 24.585938 C 10.558594 23.933594 10.355469 23.261719 10.21875 22.570312 C 10.082031 21.878906 10.011719 21.183594 10.011719 20.476562 C 10.011719 19.773438 10.082031 19.074219 10.21875 18.382812 C 10.355469 17.691406 10.558594 17.019531 10.828125 16.367188 C 11.097656 15.71875 11.429688 15.097656 11.820312 14.511719 C 12.214844 13.925781 12.65625 13.382812 13.15625 12.886719 C 13.65625 12.386719 14.199219 11.941406 14.785156 11.550781 C 15.371094 11.160156 15.988281 10.828125 16.640625 10.558594 C 17.289062 10.289062 17.960938 10.085938 18.652344 9.949219 C 19.34375 9.808594 20.042969 9.742188 20.75 9.742188 C 21.453125 9.742188 22.152344 9.808594 22.84375 9.949219 C 23.535156 10.085938 24.207031 10.289062 24.855469 10.558594 C 25.507812 10.828125 26.125 11.160156 26.714844 11.550781 C 27.300781 11.941406 27.839844 12.386719 28.339844 12.886719 C 28.839844 13.382812 29.285156 13.925781 29.675781 14.511719 C 30.066406 15.097656 30.398438 15.71875 30.667969 16.367188 C 30.9375 17.019531 31.140625 17.691406 31.277344 18.382812 C 31.414062 19.074219 31.484375 19.773438 31.484375 20.476562 Z M 31.484375 20.476562 " fill-opacity="1" fill-rule="nonzero"/><path fill="#353333" d="M 20.75 31.515625 C 14.660156 31.515625 9.710938 26.5625 9.710938 20.476562 C 9.710938 14.390625 14.660156 9.441406 20.75 9.441406 C 26.835938 9.441406 31.785156 14.390625 31.785156 20.476562 C 31.785156 26.5625 26.835938 31.515625 20.75 31.515625 Z M 20.75 10.042969 C 14.996094 10.042969 10.3125 14.722656 10.3125 20.476562 C 10.3125 26.230469 14.996094 30.910156 20.75 30.910156 C 26.5 30.910156 31.183594 26.230469 31.183594 20.476562 C 31.183594 14.722656 26.5 10.042969 20.75 10.042969 Z M 20.75 10.042969 " fill-opacity="1" fill-rule="nonzero"/><path fill="#353333" d="M 25.316406 20.777344 L 20.75 20.777344 C 20.582031 20.777344 20.445312 20.644531 20.445312 20.476562 L 20.445312 14.601562 C 20.445312 14.4375 20.582031 14.300781 20.75 14.300781 C 20.914062 14.300781 21.050781 14.4375 21.050781 14.601562 L 21.050781 20.175781 L 25.316406 20.175781 C 25.484375 20.175781 25.617188 20.308594 25.617188 20.476562 C 25.617188 20.644531 25.484375 20.777344 25.316406 20.777344 Z M 25.316406 20.777344 " fill-opacity="1" fill-rule="nonzero"/><path fill="#353333" d="M 20.75 12.472656 C 20.582031 12.472656 20.445312 12.335938 20.445312 12.171875 L 20.445312 11.308594 C 20.445312 11.140625 20.582031 11.007812 20.75 11.007812 C 20.914062 11.007812 21.050781 11.140625 21.050781 11.308594 L 21.050781 12.171875 C 21.050781 12.335938 20.914062 12.472656 20.75 12.472656 Z M 20.75 12.472656 " fill-opacity="1" fill-rule="nonzero"/><path fill="#353333" d="M 20.75 29.949219 C 20.582031 29.949219 20.445312 29.8125 20.445312 29.648438 L 20.445312 28.785156 C 20.445312 28.617188 20.582031 28.484375 20.75 28.484375 C 20.914062 28.484375 21.050781 28.617188 21.050781 28.785156 L 21.050781 29.648438 C 21.050781 29.8125 20.914062 29.949219 20.75 29.949219 Z M 20.75 29.949219 " fill-opacity="1" fill-rule="nonzero"/><path fill="#353333" d="M 29.917969 20.777344 L 29.054688 20.777344 C 28.890625 20.777344 28.753906 20.644531 28.753906 20.476562 C 28.753906 20.308594 28.890625 20.175781 29.054688 20.175781 L 29.917969 20.175781 C 30.085938 20.175781 30.21875 20.308594 30.21875 20.476562 C 30.21875 20.644531 30.085938 20.777344 29.917969 20.777344 Z M 29.917969 20.777344 " fill-opacity="1" fill-rule="nonzero"/><path fill="#353333" d="M 12.441406 20.777344 L 11.578125 20.777344 C 11.414062 20.777344 11.277344 20.644531 11.277344 20.476562 C 11.277344 20.308594 11.414062 20.175781 11.578125 20.175781 L 12.441406 20.175781 C 12.609375 20.175781 12.742188 20.308594 12.742188 20.476562 C 12.742188 20.644531 12.609375 20.777344 12.441406 20.777344 Z M 12.441406 20.777344 " fill-opacity="1" fill-rule="nonzero"/><path fill="#ffffff" d="M 21.5 20.476562 C 21.5 20.683594 21.425781 20.863281 21.277344 21.007812 C 21.132812 21.15625 20.957031 21.226562 20.75 21.226562 C 20.539062 21.226562 20.363281 21.15625 20.21875 21.007812 C 20.070312 20.863281 19.996094 20.683594 19.996094 20.476562 C 19.996094 20.269531 20.070312 20.09375 20.21875 19.945312 C 20.363281 19.800781 20.539062 19.726562 20.75 19.726562 C 20.957031 19.726562 21.132812 19.800781 21.277344 19.945312 C 21.425781 20.09375 21.5 20.269531 21.5 20.476562 Z M 21.5 20.476562 " fill-opacity="1" fill-rule="nonzero"/><path fill="#353333" d="M 20.75 21.53125 C 20.167969 21.53125 19.695312 21.058594 19.695312 20.476562 C 19.695312 19.898438 20.167969 19.425781 20.75 19.425781 C 21.328125 19.425781 21.800781 19.898438 21.800781 20.476562 C 21.800781 21.058594 21.328125 21.53125 20.75 21.53125 Z M 20.75 20.027344 C 20.5 20.027344 20.300781 20.230469 20.300781 20.476562 C 20.300781 20.726562 20.5 20.925781 20.75 20.925781 C 20.996094 20.925781 21.199219 20.726562 21.199219 20.476562 C 21.199219 20.230469 20.996094 20.027344 20.75 20.027344 Z M 20.75 20.027344 " fill-opacity="1" fill-rule="nonzero"/><path fill="#353333" d="M 26.621094 14.90625 C 26.546875 14.90625 26.46875 14.875 26.410156 14.816406 C 26.292969 14.699219 26.292969 14.507812 26.410156 14.390625 L 27.019531 13.78125 C 27.136719 13.664062 27.328125 13.664062 27.445312 13.78125 C 27.5625 13.898438 27.5625 14.089844 27.445312 14.207031 L 26.835938 14.816406 C 26.777344 14.875 26.699219 14.90625 26.621094 14.90625 Z M 26.621094 14.90625 " fill-opacity="1" fill-rule="nonzero"/><path fill="#353333" d="M 14.265625 27.261719 C 14.1875 27.261719 14.109375 27.234375 14.050781 27.175781 C 13.933594 27.058594 13.933594 26.867188 14.050781 26.746094 L 14.660156 26.136719 C 14.777344 26.019531 14.96875 26.019531 15.085938 26.136719 C 15.207031 26.257812 15.207031 26.445312 15.085938 26.566406 L 14.476562 27.175781 C 14.417969 27.234375 14.339844 27.261719 14.265625 27.261719 Z M 14.265625 27.261719 " fill-opacity="1" fill-rule="nonzero"/><path fill="#353333" d="M 27.230469 27.261719 C 27.15625 27.261719 27.078125 27.234375 27.019531 27.175781 L 26.410156 26.566406 C 26.292969 26.445312 26.292969 26.257812 26.410156 26.136719 C 26.527344 26.019531 26.71875 26.019531 26.835938 26.136719 L 27.445312 26.746094 C 27.5625 26.867188 27.5625 27.058594 27.445312 27.175781 C 27.386719 27.234375 27.308594 27.261719 27.230469 27.261719 Z M 27.230469 27.261719 " fill-opacity="1" fill-rule="nonzero"/><path fill="#353333" d="M 14.875 14.90625 C 14.796875 14.90625 14.71875 14.875 14.660156 14.816406 L 14.050781 14.207031 C 13.933594 14.089844 13.933594 13.898438 14.050781 13.78125 C 14.167969 13.664062 14.359375 13.664062 14.476562 13.78125 L 15.085938 14.390625 C 15.207031 14.507812 15.207031 14.699219 15.085938 14.816406 C 15.027344 14.875 14.953125 14.90625 14.875 14.90625 Z M 14.875 14.90625 " fill-opacity="1" fill-rule="nonzero"/><g clip-path="url(#69788ca4b7)"><path fill="#ce69cd" d="M 40.722656 20.222656 C 40.722656 20.867188 40.691406 21.511719 40.628906 22.152344 C 40.566406 22.796875 40.472656 23.433594 40.34375 24.066406 C 40.21875 24.699219 40.0625 25.324219 39.875 25.941406 C 39.6875 26.558594 39.472656 27.164062 39.226562 27.761719 C 38.976562 28.355469 38.703125 28.941406 38.398438 29.507812 C 38.09375 30.078125 37.761719 30.628906 37.40625 31.167969 C 37.046875 31.703125 36.664062 32.21875 36.253906 32.71875 C 35.84375 33.21875 35.410156 33.695312 34.953125 34.152344 C 34.5 34.609375 34.019531 35.039062 33.523438 35.449219 C 33.023438 35.859375 32.507812 36.242188 31.96875 36.601562 C 31.433594 36.960938 30.882812 37.289062 30.3125 37.59375 C 29.742188 37.898438 29.160156 38.175781 28.566406 38.421875 C 27.96875 38.667969 27.363281 38.886719 26.746094 39.074219 C 26.128906 39.257812 25.503906 39.417969 24.871094 39.542969 C 24.238281 39.667969 23.601562 39.761719 22.957031 39.824219 C 22.316406 39.890625 21.671875 39.921875 21.027344 39.921875 C 20.382812 39.921875 19.738281 39.890625 19.097656 39.824219 C 18.453125 39.761719 17.816406 39.667969 17.183594 39.542969 C 16.550781 39.417969 15.925781 39.257812 15.308594 39.074219 C 14.691406 38.886719 14.085938 38.667969 13.488281 38.421875 C 12.894531 38.175781 12.3125 37.898438 11.742188 37.59375 C 11.171875 37.289062 10.621094 36.960938 10.085938 36.601562 C 9.546875 36.242188 9.03125 35.859375 8.53125 35.449219 C 8.03125 35.039062 7.554688 34.609375 7.097656 34.152344 C 6.644531 33.695312 6.210938 33.21875 5.800781 32.71875 C 5.390625 32.21875 5.007812 31.703125 4.648438 31.167969 C 4.292969 30.628906 3.960938 30.078125 3.65625 29.507812 C 3.351562 28.941406 3.078125 28.355469 2.828125 27.761719 C 2.582031 27.164062 2.367188 26.558594 2.179688 25.941406 C 1.992188 25.324219 1.835938 24.699219 1.707031 24.066406 C 1.582031 23.433594 1.488281 22.796875 1.425781 22.152344 C 1.363281 21.511719 1.332031 20.867188 1.332031 20.222656 C 1.332031 19.578125 1.363281 18.933594 1.425781 18.292969 C 1.488281 17.652344 1.582031 17.011719 1.707031 16.378906 C 1.835938 15.746094 1.992188 15.121094 2.179688 14.503906 C 2.367188 13.886719 2.582031 13.28125 2.828125 12.6875 C 3.078125 12.089844 3.351562 11.507812 3.65625 10.9375 C 3.960938 10.371094 4.292969 9.816406 4.648438 9.28125 C 5.007812 8.742188 5.390625 8.226562 5.800781 7.726562 C 6.210938 7.230469 6.644531 6.75 7.097656 6.296875 C 7.554688 5.839844 8.03125 5.40625 8.53125 4.996094 C 9.03125 4.589844 9.546875 4.203125 10.085938 3.847656 C 10.621094 3.488281 11.171875 3.15625 11.742188 2.851562 C 12.3125 2.546875 12.894531 2.273438 13.488281 2.027344 C 14.085938 1.777344 14.691406 1.5625 15.308594 1.375 C 15.925781 1.1875 16.550781 1.03125 17.183594 0.90625 C 17.816406 0.777344 18.453125 0.683594 19.097656 0.621094 C 19.738281 0.558594 20.382812 0.527344 21.027344 0.527344 C 21.671875 0.527344 22.316406 0.558594 22.957031 0.621094 C 23.601562 0.683594 24.238281 0.777344 24.871094 0.90625 C 25.503906 1.03125 26.128906 1.1875 26.746094 1.375 C 27.363281 1.5625 27.96875 1.777344 28.566406 2.027344 C 29.160156 2.273438 29.742188 2.546875 30.3125 2.851562 C 30.882812 3.15625 31.433594 3.488281 31.96875 3.847656 C 32.507812 4.203125 33.023438 4.589844 33.523438 4.996094 C 34.019531 5.40625 34.5 5.839844 34.953125 6.296875 C 35.410156 6.75 35.84375 7.230469 36.253906 7.726562 C 36.664062 8.226562 37.046875 8.742188 37.40625 9.28125 C 37.761719 9.816406 38.09375 10.371094 38.398438 10.9375 C 38.703125 11.507812 38.976562 12.089844 39.226562 12.6875 C 39.472656 13.28125 39.6875 13.886719 39.875 14.503906 C 40.0625 15.121094 40.21875 15.746094 40.34375 16.378906 C 40.472656 17.011719 40.566406 17.652344 40.628906 18.292969 C 40.691406 18.933594 40.722656 19.578125 40.722656 20.222656 Z M 40.722656 20.222656 " fill-opacity="1" fill-rule="nonzero"/></g><g clip-path="url(#99412a80a3)"><path fill="#353333" d="M 21.027344 40.367188 C 9.917969 40.367188 0.882812 31.332031 0.882812 20.222656 C 0.882812 9.113281 9.917969 0.078125 21.027344 0.078125 C 32.136719 0.078125 41.171875 9.113281 41.171875 20.222656 C 41.171875 31.332031 32.136719 40.367188 21.027344 40.367188 Z M 21.027344 0.976562 C 10.414062 0.976562 1.777344 9.609375 1.777344 20.222656 C 1.777344 30.835938 10.414062 39.472656 21.027344 39.472656 C 31.640625 39.472656 40.277344 30.835938 40.277344 20.222656 C 40.277344 9.609375 31.640625 0.976562 21.027344 0.976562 Z M 21.027344 0.976562 " fill-opacity="1" fill-rule="nonzero"/></g><path fill="#f9b2dc" d="M 36.988281 20.222656 C 36.988281 20.746094 36.960938 21.265625 36.910156 21.789062 C 36.859375 22.308594 36.78125 22.824219 36.679688 23.335938 C 36.578125 23.847656 36.449219 24.355469 36.300781 24.855469 C 36.148438 25.355469 35.972656 25.847656 35.773438 26.332031 C 35.570312 26.8125 35.347656 27.285156 35.101562 27.746094 C 34.855469 28.207031 34.585938 28.65625 34.296875 29.089844 C 34.007812 29.523438 33.695312 29.945312 33.363281 30.347656 C 33.03125 30.75 32.683594 31.140625 32.3125 31.507812 C 31.941406 31.878906 31.554688 32.230469 31.152344 32.558594 C 30.746094 32.890625 30.328125 33.203125 29.894531 33.492188 C 29.460938 33.785156 29.011719 34.050781 28.550781 34.296875 C 28.089844 34.542969 27.617188 34.769531 27.132812 34.96875 C 26.652344 35.167969 26.160156 35.34375 25.660156 35.496094 C 25.160156 35.648438 24.652344 35.773438 24.140625 35.875 C 23.628906 35.976562 23.113281 36.054688 22.589844 36.105469 C 22.070312 36.15625 21.550781 36.183594 21.027344 36.183594 C 20.503906 36.183594 19.984375 36.15625 19.460938 36.105469 C 18.941406 36.054688 18.425781 35.976562 17.914062 35.875 C 17.402344 35.773438 16.894531 35.648438 16.394531 35.496094 C 15.894531 35.34375 15.402344 35.167969 14.917969 34.96875 C 14.4375 34.769531 13.964844 34.542969 13.503906 34.296875 C 13.042969 34.050781 12.59375 33.785156 12.160156 33.492188 C 11.726562 33.203125 11.308594 32.890625 10.902344 32.558594 C 10.5 32.230469 10.113281 31.878906 9.742188 31.507812 C 9.371094 31.140625 9.023438 30.75 8.691406 30.347656 C 8.359375 29.945312 8.046875 29.523438 7.757812 29.089844 C 7.46875 28.65625 7.199219 28.207031 6.953125 27.746094 C 6.707031 27.285156 6.484375 26.8125 6.28125 26.332031 C 6.082031 25.847656 5.90625 25.355469 5.753906 24.855469 C 5.601562 24.355469 5.476562 23.847656 5.375 23.335938 C 5.273438 22.824219 5.195312 22.308594 5.144531 21.789062 C 5.09375 21.265625 5.066406 20.746094 5.066406 20.222656 C 5.066406 19.699219 5.09375 19.179688 5.144531 18.660156 C 5.195312 18.140625 5.273438 17.621094 5.375 17.109375 C 5.476562 16.597656 5.601562 16.089844 5.753906 15.589844 C 5.90625 15.089844 6.082031 14.597656 6.28125 14.117188 C 6.484375 13.632812 6.707031 13.160156 6.953125 12.699219 C 7.199219 12.238281 7.46875 11.792969 7.757812 11.355469 C 8.046875 10.921875 8.359375 10.503906 8.691406 10.097656 C 9.023438 9.695312 9.371094 9.308594 9.742188 8.9375 C 10.113281 8.570312 10.5 8.21875 10.902344 7.886719 C 11.308594 7.554688 11.726562 7.242188 12.160156 6.953125 C 12.59375 6.664062 13.042969 6.394531 13.503906 6.148438 C 13.964844 5.902344 14.4375 5.679688 14.917969 5.480469 C 15.402344 5.277344 15.894531 5.101562 16.394531 4.953125 C 16.894531 4.800781 17.402344 4.671875 17.914062 4.570312 C 18.425781 4.46875 18.941406 4.390625 19.460938 4.339844 C 19.984375 4.289062 20.503906 4.265625 21.027344 4.265625 C 21.550781 4.265625 22.070312 4.289062 22.589844 4.339844 C 23.113281 4.390625 23.628906 4.46875 24.140625 4.570312 C 24.652344 4.671875 25.160156 4.800781 25.660156 4.953125 C 26.160156 5.101562 26.652344 5.277344 27.132812 5.480469 C 27.617188 5.679688 28.089844 5.902344 28.550781 6.148438 C 29.011719 6.394531 29.460938 6.664062 29.894531 6.953125 C 30.328125 7.242188 30.746094 7.554688 31.152344 7.886719 C 31.554688 8.21875 31.941406 8.570312 32.3125 8.9375 C 32.683594 9.308594 33.03125 9.695312 33.363281 10.097656 C 33.695312 10.503906 34.007812 10.921875 34.296875 11.355469 C 34.585938 11.792969 34.855469 12.238281 35.101562 12.699219 C 35.347656 13.160156 35.570312 13.632812 35.773438 14.117188 C 35.972656 14.597656 36.148438 15.089844 36.300781 15.589844 C 36.449219 16.089844 36.578125 16.597656 36.679688 17.109375 C 36.78125 17.621094 36.859375 18.140625 36.910156 18.660156 C 36.960938 19.179688 36.988281 19.699219 36.988281 20.222656 Z M 36.988281 20.222656 " fill-opacity="1" fill-rule="nonzero"/><path fill="#353333" d="M 21.027344 36.632812 C 11.980469 36.632812 4.621094 29.269531 4.621094 20.222656 C 4.621094 11.175781 11.980469 3.816406 21.027344 3.816406 C 30.074219 3.816406 37.433594 11.175781 37.433594 20.222656 C 37.433594 29.269531 30.074219 36.632812 21.027344 36.632812 Z M 21.027344 4.710938 C 12.472656 4.710938 5.515625 11.671875 5.515625 20.222656 C 5.515625 28.777344 12.472656 35.734375 21.027344 35.734375 C 29.578125 35.734375 36.539062 28.777344 36.539062 20.222656 C 36.539062 11.671875 29.578125 4.710938 21.027344 4.710938 Z M 21.027344 4.710938 " fill-opacity="1" fill-rule="nonzero"/><path fill="#353333" d="M 27.816406 20.671875 L 21.027344 20.671875 C 20.78125 20.671875 20.578125 20.472656 20.578125 20.222656 L 20.578125 11.492188 C 20.578125 11.242188 20.78125 11.042969 21.027344 11.042969 C 21.273438 11.042969 21.476562 11.242188 21.476562 11.492188 L 21.476562 19.773438 L 27.816406 19.773438 C 28.066406 19.773438 28.265625 19.976562 28.265625 20.222656 C 28.265625 20.472656 28.066406 20.671875 27.816406 20.671875 Z M 27.816406 20.671875 " fill-opacity="1" fill-rule="nonzero"/><path fill="#353333" d="M 21.027344 8.324219 C 20.78125 8.324219 20.578125 8.121094 20.578125 7.875 L 20.578125 6.59375 C 20.578125 6.34375 20.78125 6.144531 21.027344 6.144531 C 21.273438 6.144531 21.476562 6.34375 21.476562 6.59375 L 21.476562 7.875 C 21.476562 8.121094 21.273438 8.324219 21.027344 8.324219 Z M 21.027344 8.324219 " fill-opacity="1" fill-rule="nonzero"/><path fill="#353333" d="M 21.027344 34.300781 C 20.78125 34.300781 20.578125 34.101562 20.578125 33.855469 L 20.578125 32.570312 C 20.578125 32.324219 20.78125 32.125 21.027344 32.125 C 21.273438 32.125 21.476562 32.324219 21.476562 32.570312 L 21.476562 33.855469 C 21.476562 34.101562 21.273438 34.300781 21.027344 34.300781 Z M 21.027344 34.300781 " fill-opacity="1" fill-rule="nonzero"/><path fill="#353333" d="M 34.65625 20.671875 L 33.375 20.671875 C 33.128906 20.671875 32.925781 20.472656 32.925781 20.222656 C 32.925781 19.976562 33.128906 19.773438 33.375 19.773438 L 34.65625 19.773438 C 34.90625 19.773438 35.105469 19.976562 35.105469 20.222656 C 35.105469 20.472656 34.90625 20.671875 34.65625 20.671875 Z M 34.65625 20.671875 " fill-opacity="1" fill-rule="nonzero"/><path fill="#353333" d="M 8.679688 20.671875 L 7.398438 20.671875 C 7.148438 20.671875 6.949219 20.472656 6.949219 20.222656 C 6.949219 19.976562 7.148438 19.773438 7.398438 19.773438 L 8.679688 19.773438 C 8.925781 19.773438 9.125 19.976562 9.125 20.222656 C 9.125 20.472656 8.925781 20.671875 8.679688 20.671875 Z M 8.679688 20.671875 " fill-opacity="1" fill-rule="nonzero"/><path fill="#ffffff" d="M 22.144531 20.222656 C 22.144531 20.371094 22.113281 20.515625 22.058594 20.652344 C 22 20.789062 21.921875 20.90625 21.816406 21.011719 C 21.710938 21.117188 21.589844 21.199219 21.453125 21.253906 C 21.316406 21.3125 21.175781 21.339844 21.027344 21.339844 C 20.878906 21.339844 20.738281 21.3125 20.601562 21.253906 C 20.464844 21.199219 20.34375 21.117188 20.238281 21.011719 C 20.132812 20.90625 20.054688 20.789062 19.996094 20.652344 C 19.941406 20.515625 19.910156 20.371094 19.910156 20.222656 C 19.910156 20.074219 19.941406 19.933594 19.996094 19.796875 C 20.054688 19.660156 20.132812 19.539062 20.238281 19.433594 C 20.34375 19.328125 20.464844 19.25 20.601562 19.191406 C 20.738281 19.136719 20.878906 19.109375 21.027344 19.109375 C 21.175781 19.109375 21.316406 19.136719 21.453125 19.191406 C 21.589844 19.25 21.710938 19.328125 21.816406 19.433594 C 21.921875 19.539062 22 19.660156 22.058594 19.796875 C 22.113281 19.933594 22.144531 20.074219 22.144531 20.222656 Z M 22.144531 20.222656 " fill-opacity="1" fill-rule="nonzero"/><path fill="#353333" d="M 21.027344 21.789062 C 20.164062 21.789062 19.464844 21.085938 19.464844 20.222656 C 19.464844 19.359375 20.164062 18.660156 21.027344 18.660156 C 21.890625 18.660156 22.589844 19.359375 22.589844 20.222656 C 22.589844 21.085938 21.890625 21.789062 21.027344 21.789062 Z M 21.027344 19.554688 C 20.660156 19.554688 20.359375 19.855469 20.359375 20.222656 C 20.359375 20.589844 20.660156 20.890625 21.027344 20.890625 C 21.394531 20.890625 21.695312 20.589844 21.695312 20.222656 C 21.695312 19.855469 21.394531 19.554688 21.027344 19.554688 Z M 21.027344 19.554688 " fill-opacity="1" fill-rule="nonzero"/><path fill="#353333" d="M 29.757812 11.941406 C 29.644531 11.941406 29.53125 11.894531 29.441406 11.808594 C 29.265625 11.632812 29.265625 11.351562 29.441406 11.175781 L 30.347656 10.269531 C 30.523438 10.09375 30.808594 10.09375 30.980469 10.269531 C 31.15625 10.445312 31.15625 10.726562 30.980469 10.902344 L 30.074219 11.808594 C 29.988281 11.894531 29.875 11.941406 29.757812 11.941406 Z M 29.757812 11.941406 " fill-opacity="1" fill-rule="nonzero"/><path fill="#353333" d="M 11.390625 30.308594 C 11.273438 30.308594 11.160156 30.265625 11.070312 30.179688 C 10.898438 30.003906 10.898438 29.71875 11.070312 29.542969 L 11.980469 28.636719 C 12.152344 28.464844 12.4375 28.464844 12.613281 28.636719 C 12.789062 28.8125 12.789062 29.097656 12.613281 29.273438 L 11.707031 30.179688 C 11.617188 30.265625 11.503906 30.308594 11.390625 30.308594 Z M 11.390625 30.308594 " fill-opacity="1" fill-rule="nonzero"/><path fill="#353333" d="M 30.664062 30.308594 C 30.550781 30.308594 30.4375 30.265625 30.347656 30.179688 L 29.441406 29.273438 C 29.265625 29.097656 29.265625 28.8125 29.441406 28.636719 C 29.617188 28.464844 29.902344 28.464844 30.074219 28.636719 L 30.980469 29.542969 C 31.15625 29.71875 31.15625 30.003906 30.980469 30.179688 C 30.894531 30.265625 30.78125 30.308594 30.664062 30.308594 Z M 30.664062 30.308594 " fill-opacity="1" fill-rule="nonzero"/><path fill="#353333" d="M 12.296875 11.941406 C 12.179688 11.941406 12.066406 11.894531 11.980469 11.808594 L 11.070312 10.902344 C 10.898438 10.726562 10.898438 10.445312 11.070312 10.269531 C 11.246094 10.09375 11.53125 10.09375 11.707031 10.269531 L 12.613281 11.175781 C 12.789062 11.351562 12.789062 11.632812 12.613281 11.808594 C 12.523438 11.894531 12.410156 11.941406 12.296875 11.941406 Z M 12.296875 11.941406 " fill-opacity="1" fill-rule="nonzero"/></svg>