<svg xmlns="http://www.w3.org/2000/svg" xmlns:xlink="http://www.w3.org/1999/xlink" width="51" zoomAndPan="magnify" viewBox="0 0 38.25 44.249999" height="59" preserveAspectRatio="xMidYMid meet" version="1.0"><defs><clipPath id="e00baa2f07"><path d="M 9.707031 11.238281 L 28 11.238281 L 28 32.566406 L 9.707031 32.566406 Z M 9.707031 11.238281 " clip-rule="nonzero"/></clipPath><clipPath id="56f4b50e16"><path d="M 9.707031 11.238281 L 28.097656 11.238281 L 28.097656 32.566406 L 9.707031 32.566406 Z M 9.707031 11.238281 " clip-rule="nonzero"/></clipPath><clipPath id="88452332aa"><path d="M 0.503906 1 L 37 1 L 37 42.601562 L 0.503906 42.601562 Z M 0.503906 1 " clip-rule="nonzero"/></clipPath><clipPath id="22ac746d59"><path d="M 0.503906 0.675781 L 37.285156 0.675781 L 37.285156 42.601562 L 0.503906 42.601562 Z M 0.503906 0.675781 " clip-rule="nonzero"/></clipPath></defs><path fill="#ffffff" d="M 20.058594 13.828125 L 23.042969 17.242188 L 20.058594 20.65625 Z M 20.058594 13.828125 " fill-opacity="1" fill-rule="nonzero"/><path fill="#ffffff" d="M 23.042969 17.242188 L 26.03125 20.65625 L 20.058594 20.65625 Z M 23.042969 17.242188 " fill-opacity="1" fill-rule="nonzero"/><path fill="#ffffff" d="M 26.03125 13.828125 L 26.03125 20.65625 L 23.042969 17.242188 Z M 26.03125 13.828125 " fill-opacity="1" fill-rule="nonzero"/><path fill="#ffffff" d="M 26.03125 13.828125 L 23.042969 17.242188 L 20.058594 13.828125 Z M 26.03125 13.828125 " fill-opacity="1" fill-rule="nonzero"/><g clip-path="url(#e00baa2f07)"><path fill="#ff8e51" d="M 27.863281 12.835938 L 27.863281 30.75 C 27.863281 31.5 27.25 32.109375 26.503906 32.109375 L 11.308594 32.109375 C 10.558594 32.109375 9.949219 31.5 9.949219 30.75 L 9.949219 12.835938 C 9.949219 12.085938 10.558594 11.476562 11.308594 11.476562 L 26.503906 11.476562 C 27.25 11.476562 27.863281 12.085938 27.863281 12.835938 Z M 26.03125 20.65625 L 26.03125 13.828125 L 20.058594 13.828125 L 20.058594 20.65625 Z M 26.03125 20.65625 " fill-opacity="1" fill-rule="nonzero"/></g><g clip-path="url(#56f4b50e16)"><path fill="#000000" d="M 26.503906 32.351562 L 11.308594 32.351562 C 10.425781 32.351562 9.707031 31.632812 9.707031 30.75 L 9.707031 12.835938 C 9.707031 11.953125 10.425781 11.238281 11.308594 11.238281 L 26.503906 11.238281 C 27.386719 11.238281 28.101562 11.953125 28.101562 12.835938 L 28.101562 30.75 C 28.101562 31.632812 27.386719 32.351562 26.503906 32.351562 Z M 11.308594 11.714844 C 10.6875 11.714844 10.1875 12.21875 10.1875 12.835938 L 10.1875 30.75 C 10.1875 31.371094 10.6875 31.871094 11.308594 31.871094 L 26.503906 31.871094 C 27.121094 31.871094 27.625 31.371094 27.625 30.75 L 27.625 12.835938 C 27.625 12.21875 27.121094 11.714844 26.503906 11.714844 Z M 11.308594 11.714844 " fill-opacity="1" fill-rule="nonzero"/></g><path fill="#000000" d="M 18.367188 14.066406 L 11.78125 14.066406 C 11.648438 14.066406 11.542969 13.960938 11.542969 13.828125 C 11.542969 13.695312 11.648438 13.589844 11.78125 13.589844 L 18.367188 13.589844 C 18.5 13.589844 18.605469 13.695312 18.605469 13.828125 C 18.605469 13.960938 18.5 14.066406 18.367188 14.066406 Z M 18.367188 14.066406 " fill-opacity="1" fill-rule="nonzero"/><path fill="#000000" d="M 18.367188 16.34375 L 11.78125 16.34375 C 11.648438 16.34375 11.542969 16.234375 11.542969 16.105469 C 11.542969 15.972656 11.648438 15.867188 11.78125 15.867188 L 18.367188 15.867188 C 18.5 15.867188 18.605469 15.972656 18.605469 16.105469 C 18.605469 16.234375 18.5 16.34375 18.367188 16.34375 Z M 18.367188 16.34375 " fill-opacity="1" fill-rule="nonzero"/><path fill="#000000" d="M 18.367188 18.617188 L 11.78125 18.617188 C 11.648438 18.617188 11.542969 18.511719 11.542969 18.378906 C 11.542969 18.246094 11.648438 18.140625 11.78125 18.140625 L 18.367188 18.140625 C 18.5 18.140625 18.605469 18.246094 18.605469 18.378906 C 18.605469 18.511719 18.5 18.617188 18.367188 18.617188 Z M 18.367188 18.617188 " fill-opacity="1" fill-rule="nonzero"/><path fill="#000000" d="M 18.367188 20.894531 L 11.78125 20.894531 C 11.648438 20.894531 11.542969 20.789062 11.542969 20.65625 C 11.542969 20.523438 11.648438 20.417969 11.78125 20.417969 L 18.367188 20.417969 C 18.5 20.417969 18.605469 20.523438 18.605469 20.65625 C 18.605469 20.789062 18.5 20.894531 18.367188 20.894531 Z M 18.367188 20.894531 " fill-opacity="1" fill-rule="nonzero"/><path fill="#000000" d="M 26.03125 23.171875 L 11.78125 23.171875 C 11.648438 23.171875 11.542969 23.0625 11.542969 22.929688 C 11.542969 22.800781 11.648438 22.691406 11.78125 22.691406 L 26.03125 22.691406 C 26.164062 22.691406 26.269531 22.800781 26.269531 22.929688 C 26.269531 23.0625 26.164062 23.171875 26.03125 23.171875 Z M 26.03125 23.171875 " fill-opacity="1" fill-rule="nonzero"/><path fill="#000000" d="M 26.03125 25.445312 L 11.78125 25.445312 C 11.648438 25.445312 11.542969 25.339844 11.542969 25.207031 C 11.542969 25.074219 11.648438 24.96875 11.78125 24.96875 L 26.03125 24.96875 C 26.164062 24.96875 26.269531 25.074219 26.269531 25.207031 C 26.269531 25.339844 26.164062 25.445312 26.03125 25.445312 Z M 26.03125 25.445312 " fill-opacity="1" fill-rule="nonzero"/><path fill="#000000" d="M 26.03125 27.722656 L 11.78125 27.722656 C 11.648438 27.722656 11.542969 27.613281 11.542969 27.484375 C 11.542969 27.351562 11.648438 27.242188 11.78125 27.242188 L 26.03125 27.242188 C 26.164062 27.242188 26.269531 27.351562 26.269531 27.484375 C 26.269531 27.613281 26.164062 27.722656 26.03125 27.722656 Z M 26.03125 27.722656 " fill-opacity="1" fill-rule="nonzero"/><path fill="#000000" d="M 26.03125 29.996094 L 11.78125 29.996094 C 11.648438 29.996094 11.542969 29.890625 11.542969 29.757812 C 11.542969 29.625 11.648438 29.519531 11.78125 29.519531 L 26.03125 29.519531 C 26.164062 29.519531 26.269531 29.625 26.269531 29.757812 C 26.269531 29.890625 26.164062 29.996094 26.03125 29.996094 Z M 26.03125 29.996094 " fill-opacity="1" fill-rule="nonzero"/><path fill="#000000" d="M 26.03125 20.894531 L 20.058594 20.894531 C 19.925781 20.894531 19.820312 20.789062 19.820312 20.65625 L 19.820312 13.828125 C 19.820312 13.695312 19.925781 13.589844 20.058594 13.589844 L 26.03125 13.589844 C 26.164062 13.589844 26.269531 13.695312 26.269531 13.828125 L 26.269531 20.65625 C 26.269531 20.789062 26.164062 20.894531 26.03125 20.894531 Z M 20.296875 20.417969 L 25.792969 20.417969 L 25.792969 14.066406 L 20.296875 14.066406 Z M 20.296875 20.417969 " fill-opacity="1" fill-rule="nonzero"/><path fill="#000000" d="M 26.03125 20.894531 C 25.964844 20.894531 25.898438 20.867188 25.851562 20.8125 L 19.878906 13.984375 C 19.792969 13.886719 19.800781 13.734375 19.902344 13.648438 C 20 13.5625 20.152344 13.570312 20.238281 13.671875 L 26.210938 20.5 C 26.296875 20.597656 26.285156 20.75 26.1875 20.835938 C 26.140625 20.875 26.085938 20.894531 26.03125 20.894531 Z M 26.03125 20.894531 " fill-opacity="1" fill-rule="nonzero"/><path fill="#000000" d="M 20.058594 20.894531 C 20.003906 20.894531 19.945312 20.875 19.902344 20.835938 C 19.800781 20.75 19.792969 20.597656 19.878906 20.5 L 25.851562 13.671875 C 25.9375 13.570312 26.089844 13.5625 26.1875 13.648438 C 26.285156 13.734375 26.296875 13.886719 26.210938 13.984375 L 20.238281 20.8125 C 20.191406 20.867188 20.125 20.894531 20.058594 20.894531 Z M 20.058594 20.894531 " fill-opacity="1" fill-rule="nonzero"/><path fill="#ffffff" d="M 21.207031 5.859375 L 27.179688 12.6875 L 21.207031 19.515625 Z M 21.207031 5.859375 " fill-opacity="1" fill-rule="nonzero"/><path fill="#ffffff" d="M 27.179688 12.6875 L 33.15625 19.515625 L 21.207031 19.515625 Z M 27.179688 12.6875 " fill-opacity="1" fill-rule="nonzero"/><path fill="#ffffff" d="M 33.15625 5.859375 L 33.15625 19.515625 L 27.179688 12.6875 Z M 33.15625 5.859375 " fill-opacity="1" fill-rule="nonzero"/><path fill="#ffffff" d="M 33.15625 5.859375 L 27.179688 12.6875 L 21.207031 5.859375 Z M 33.15625 5.859375 " fill-opacity="1" fill-rule="nonzero"/><g clip-path="url(#88452332aa)"><path fill="#ff8e51" d="M 36.820312 3.871094 L 36.820312 39.714844 C 36.820312 41.210938 35.597656 42.433594 34.101562 42.433594 L 3.703125 42.433594 C 2.203125 42.433594 0.980469 41.210938 0.980469 39.714844 L 0.980469 3.871094 C 0.980469 2.375 2.203125 1.152344 3.703125 1.152344 L 34.101562 1.152344 C 35.597656 1.152344 36.820312 2.375 36.820312 3.871094 Z M 33.15625 19.515625 L 33.15625 5.859375 L 21.207031 5.859375 L 21.207031 19.515625 Z M 33.15625 19.515625 " fill-opacity="1" fill-rule="nonzero"/></g><g clip-path="url(#22ac746d59)"><path fill="#000000" d="M 34.101562 42.914062 L 3.703125 42.914062 C 1.9375 42.914062 0.503906 41.476562 0.503906 39.714844 L 0.503906 3.871094 C 0.503906 2.109375 1.9375 0.675781 3.703125 0.675781 L 34.101562 0.675781 C 35.863281 0.675781 37.300781 2.109375 37.300781 3.871094 L 37.300781 39.714844 C 37.300781 41.476562 35.863281 42.914062 34.101562 42.914062 Z M 3.703125 1.628906 C 2.464844 1.628906 1.457031 2.636719 1.457031 3.871094 L 1.457031 39.714844 C 1.457031 40.949219 2.464844 41.957031 3.703125 41.957031 L 34.101562 41.957031 C 35.335938 41.957031 36.34375 40.949219 36.34375 39.714844 L 36.34375 3.871094 C 36.34375 2.636719 35.339844 1.628906 34.101562 1.628906 Z M 3.703125 1.628906 " fill-opacity="1" fill-rule="nonzero"/></g><path fill="#000000" d="M 17.824219 6.335938 L 4.648438 6.335938 C 4.382812 6.335938 4.167969 6.125 4.167969 5.859375 C 4.167969 5.597656 4.382812 5.382812 4.648438 5.382812 L 17.824219 5.382812 C 18.089844 5.382812 18.304688 5.597656 18.304688 5.859375 C 18.304688 6.125 18.089844 6.335938 17.824219 6.335938 Z M 17.824219 6.335938 " fill-opacity="1" fill-rule="nonzero"/><path fill="#000000" d="M 17.824219 10.890625 L 4.648438 10.890625 C 4.382812 10.890625 4.167969 10.675781 4.167969 10.414062 C 4.167969 10.148438 4.382812 9.933594 4.648438 9.933594 L 17.824219 9.933594 C 18.089844 9.933594 18.304688 10.148438 18.304688 10.414062 C 18.304688 10.675781 18.089844 10.890625 17.824219 10.890625 Z M 17.824219 10.890625 " fill-opacity="1" fill-rule="nonzero"/><path fill="#000000" d="M 17.824219 15.441406 L 4.648438 15.441406 C 4.382812 15.441406 4.167969 15.230469 4.167969 14.964844 C 4.167969 14.699219 4.382812 14.488281 4.648438 14.488281 L 17.824219 14.488281 C 18.089844 14.488281 18.304688 14.699219 18.304688 14.964844 C 18.304688 15.230469 18.089844 15.441406 17.824219 15.441406 Z M 17.824219 15.441406 " fill-opacity="1" fill-rule="nonzero"/><path fill="#000000" d="M 17.824219 19.996094 L 4.648438 19.996094 C 4.382812 19.996094 4.167969 19.78125 4.167969 19.515625 C 4.167969 19.253906 4.382812 19.039062 4.648438 19.039062 L 17.824219 19.039062 C 18.089844 19.039062 18.304688 19.253906 18.304688 19.515625 C 18.304688 19.78125 18.089844 19.996094 17.824219 19.996094 Z M 17.824219 19.996094 " fill-opacity="1" fill-rule="nonzero"/><path fill="#000000" d="M 33.15625 24.546875 L 4.648438 24.546875 C 4.382812 24.546875 4.167969 24.332031 4.167969 24.070312 C 4.167969 23.804688 4.382812 23.59375 4.648438 23.59375 L 33.15625 23.59375 C 33.417969 23.59375 33.632812 23.804688 33.632812 24.070312 C 33.632812 24.332031 33.417969 24.546875 33.15625 24.546875 Z M 33.15625 24.546875 " fill-opacity="1" fill-rule="nonzero"/><path fill="#000000" d="M 33.15625 29.101562 L 4.648438 29.101562 C 4.382812 29.101562 4.167969 28.886719 4.167969 28.621094 C 4.167969 28.359375 4.382812 28.144531 4.648438 28.144531 L 33.15625 28.144531 C 33.417969 28.144531 33.632812 28.359375 33.632812 28.621094 C 33.632812 28.886719 33.417969 29.101562 33.15625 29.101562 Z M 33.15625 29.101562 " fill-opacity="1" fill-rule="nonzero"/><path fill="#000000" d="M 33.15625 33.652344 L 4.648438 33.652344 C 4.382812 33.652344 4.167969 33.4375 4.167969 33.175781 C 4.167969 32.910156 4.382812 32.695312 4.648438 32.695312 L 33.15625 32.695312 C 33.417969 32.695312 33.632812 32.910156 33.632812 33.175781 C 33.632812 33.4375 33.417969 33.652344 33.15625 33.652344 Z M 33.15625 33.652344 " fill-opacity="1" fill-rule="nonzero"/><path fill="#000000" d="M 33.15625 38.207031 L 4.648438 38.207031 C 4.382812 38.207031 4.167969 37.992188 4.167969 37.726562 C 4.167969 37.464844 4.382812 37.25 4.648438 37.25 L 33.15625 37.25 C 33.417969 37.25 33.632812 37.464844 33.632812 37.726562 C 33.632812 37.992188 33.417969 38.207031 33.15625 38.207031 Z M 33.15625 38.207031 " fill-opacity="1" fill-rule="nonzero"/><path fill="#000000" d="M 33.15625 19.996094 L 21.207031 19.996094 C 20.945312 19.996094 20.730469 19.78125 20.730469 19.515625 L 20.730469 5.859375 C 20.730469 5.597656 20.945312 5.382812 21.207031 5.382812 L 33.15625 5.382812 C 33.417969 5.382812 33.632812 5.597656 33.632812 5.859375 L 33.632812 19.515625 C 33.632812 19.78125 33.417969 19.996094 33.15625 19.996094 Z M 21.6875 19.039062 L 32.675781 19.039062 L 32.675781 6.335938 L 21.6875 6.335938 Z M 21.6875 19.039062 " fill-opacity="1" fill-rule="nonzero"/><path fill="#000000" d="M 33.15625 19.996094 C 33.023438 19.996094 32.890625 19.941406 32.796875 19.832031 L 20.847656 6.175781 C 20.675781 5.976562 20.695312 5.671875 20.894531 5.5 C 21.09375 5.328125 21.394531 5.347656 21.566406 5.546875 L 33.515625 19.203125 C 33.6875 19.402344 33.667969 19.703125 33.46875 19.875 C 33.378906 19.957031 33.265625 19.996094 33.15625 19.996094 Z M 33.15625 19.996094 " fill-opacity="1" fill-rule="nonzero"/><path fill="#000000" d="M 21.207031 19.996094 C 21.097656 19.996094 20.984375 19.957031 20.894531 19.875 C 20.695312 19.703125 20.675781 19.402344 20.847656 19.203125 L 32.796875 5.546875 C 32.96875 5.347656 33.269531 5.328125 33.46875 5.5 C 33.667969 5.671875 33.6875 5.976562 33.515625 6.175781 L 21.566406 19.832031 C 21.472656 19.941406 21.339844 19.996094 21.207031 19.996094 Z M 21.207031 19.996094 " fill-opacity="1" fill-rule="nonzero"/></svg>